<svg xmlns="http://www.w3.org/2000/svg" xmlns:xlink="http://www.w3.org/1999/xlink" width="500" zoomAndPan="magnify" viewBox="0 0 375 374.999991" height="500" preserveAspectRatio="xMidYMid meet" version="1.0"><defs><g/><clipPath id="0a89f1f01b"><path d="M 55.804688 152.75 L 121.804688 152.75 L 121.804688 211.25 L 55.804688 211.25 Z M 55.804688 152.75 " clip-rule="nonzero"/></clipPath></defs><path stroke-linecap="round" transform="matrix(0, -0.75, 0.75, 0, 53.864797, 244.614829)" fill="none" stroke-linejoin="miter" d="M 46.502066 46.497982 L 122.418738 46.497982 " stroke="#d6860d" stroke-width="93" stroke-opacity="1" stroke-miterlimit="4"/><g clip-path="url(#0a89f1f01b)"><path fill="#030304" d="M 117.910156 185.703125 C 117.9375 185.613281 118.011719 185.546875 118.105469 185.53125 C 118.742188 185.425781 119.300781 185.175781 119.773438 184.777344 C 120.152344 184.460938 120.503906 183.988281 120.835938 183.363281 C 121.417969 182.257812 121.738281 181.074219 121.800781 179.800781 C 121.804688 179.714844 121.773438 179.695312 121.699219 179.75 C 120.484375 180.714844 119.351562 181.789062 118.3125 182.976562 C 118.203125 183.101562 118.15625 183.082031 118.171875 182.917969 L 118.425781 180.070312 C 118.433594 179.984375 118.488281 179.914062 118.566406 179.878906 C 119.378906 179.535156 119.964844 179.011719 120.328125 178.304688 C 120.613281 177.753906 120.796875 177.027344 120.886719 176.125 C 120.960938 175.355469 120.90625 174.578125 120.722656 173.792969 C 120.695312 173.671875 120.644531 173.660156 120.570312 173.753906 C 119.664062 174.902344 118.84375 176.109375 118.097656 177.382812 C 118.074219 177.421875 118.058594 177.421875 118.050781 177.375 L 117.597656 174.792969 C 117.574219 174.65625 117.613281 174.515625 117.703125 174.417969 C 118.773438 173.234375 119.238281 171.886719 119.097656 170.371094 C 119.019531 169.546875 118.816406 168.714844 118.484375 167.878906 C 118.460938 167.820312 118.433594 167.816406 118.398438 167.871094 C 117.667969 169.082031 117.058594 170.332031 116.566406 171.617188 C 116.542969 171.679688 116.515625 171.683594 116.488281 171.621094 L 115.445312 169.378906 C 115.375 169.226562 115.375 169.074219 115.449219 168.921875 C 115.980469 167.808594 116.179688 166.691406 116.046875 165.570312 C 115.917969 164.453125 115.523438 163.421875 114.859375 162.476562 C 114.789062 162.378906 114.730469 162.382812 114.679688 162.492188 C 114.582031 162.707031 114.503906 162.964844 114.445312 163.257812 C 114.25 164.257812 114.035156 165.296875 113.800781 166.375 C 113.785156 166.449219 113.75 166.457031 113.703125 166.398438 L 112.074219 164.355469 C 111.96875 164.226562 111.9375 164.085938 111.976562 163.933594 C 112.433594 162.203125 112.25 160.53125 111.421875 158.914062 C 111.195312 158.46875 110.902344 158.070312 110.542969 157.71875 C 110.492188 157.667969 110.457031 157.679688 110.441406 157.746094 C 110.132812 159.019531 109.972656 160.3125 109.960938 161.621094 C 109.960938 161.671875 109.941406 161.679688 109.90625 161.644531 L 108.019531 159.742188 C 107.890625 159.617188 107.84375 159.460938 107.867188 159.285156 C 107.929688 158.839844 107.867188 158.355469 107.675781 157.832031 C 107.054688 156.121094 106.023438 154.75 104.582031 153.726562 C 104.394531 153.59375 104.308594 153.640625 104.316406 153.867188 C 104.382812 155.171875 104.648438 156.410156 105.117188 157.589844 C 105.15625 157.6875 105.132812 157.703125 105.050781 157.636719 C 104.296875 157.042969 103.539062 156.472656 102.769531 155.917969 C 101.828125 155.242188 101.023438 154.734375 100.355469 154.390625 C 98.886719 153.640625 97.324219 153.125 95.667969 152.851562 C 95.371094 152.804688 95.074219 152.785156 94.773438 152.800781 C 94.714844 152.804688 94.707031 152.824219 94.75 152.867188 C 95.53125 153.597656 96.34375 154.277344 97.195312 154.910156 C 98.324219 155.75 99.144531 156.292969 99.664062 156.539062 C 100.546875 156.960938 101.554688 157.210938 102.683594 157.292969 C 102.90625 157.308594 103.097656 157.382812 103.257812 157.511719 L 104.675781 158.644531 C 104.960938 158.867188 104.921875 158.957031 104.5625 158.902344 C 103 158.683594 101.679688 159.0625 100.597656 160.050781 C 100.589844 160.054688 100.585938 160.058594 100.585938 160.066406 C 100.574219 160.089844 100.582031 160.121094 100.609375 160.132812 C 102.660156 161.148438 104.8125 161.289062 107.058594 160.554688 C 107.15625 160.523438 107.265625 160.546875 107.335938 160.617188 L 109.15625 162.394531 C 109.308594 162.542969 109.28125 162.585938 109.074219 162.53125 C 108.882812 162.480469 108.703125 162.433594 108.527344 162.390625 C 108.339844 162.34375 108.15625 162.320312 107.972656 162.320312 C 106.929688 162.320312 105.851562 162.457031 104.746094 162.734375 C 104.679688 162.75 104.675781 162.777344 104.726562 162.816406 C 106.6875 164.269531 108.847656 164.972656 111.214844 164.917969 C 111.261719 164.917969 111.304688 164.9375 111.335938 164.972656 C 111.949219 165.644531 112.480469 166.378906 112.929688 167.167969 C 112.953125 167.210938 112.941406 167.222656 112.898438 167.207031 C 111.390625 166.640625 109.828125 166.304688 108.210938 166.199219 C 108.121094 166.195312 108.105469 166.226562 108.160156 166.296875 C 108.5 166.738281 108.875 167.167969 109.28125 167.574219 C 110.558594 168.859375 112.25 169.59375 114.359375 169.78125 C 114.414062 169.785156 114.464844 169.816406 114.492188 169.863281 C 114.949219 170.691406 115.34375 171.523438 115.679688 172.359375 C 115.695312 172.40625 115.683594 172.414062 115.640625 172.390625 C 114.828125 171.890625 113.960938 171.515625 113.039062 171.269531 C 112.480469 171.117188 111.929688 170.972656 111.386719 170.828125 C 111.253906 170.792969 111.222656 170.835938 111.292969 170.953125 C 111.625 171.507812 111.992188 172.035156 112.398438 172.535156 C 112.875 173.121094 113.335938 173.566406 113.78125 173.863281 C 114.546875 174.375 115.441406 174.695312 116.472656 174.824219 C 116.578125 174.835938 116.660156 174.914062 116.675781 175.007812 L 117.101562 177.515625 C 117.117188 177.601562 117.089844 177.617188 117.019531 177.558594 C 115.949219 176.640625 114.738281 175.976562 113.382812 175.570312 C 113.375 175.566406 113.367188 175.566406 113.359375 175.566406 C 113.335938 175.570312 113.316406 175.59375 113.320312 175.621094 C 113.597656 177.511719 114.601562 178.863281 116.328125 179.671875 C 116.628906 179.8125 116.960938 179.898438 117.328125 179.9375 C 117.371094 179.941406 117.402344 179.976562 117.398438 180.019531 L 117.226562 182.753906 C 117.21875 182.925781 117.164062 182.941406 117.0625 182.800781 C 116.320312 181.785156 115.394531 180.894531 114.269531 180.140625 C 114.261719 180.132812 114.25 180.128906 114.238281 180.128906 C 114.195312 180.125 114.164062 180.152344 114.160156 180.191406 C 114.117188 180.734375 114.109375 181.300781 114.140625 181.886719 C 114.167969 182.410156 114.289062 182.875 114.5 183.28125 C 115.007812 184.261719 115.742188 184.972656 116.707031 185.40625 C 116.804688 185.453125 116.859375 185.558594 116.832031 185.664062 C 116.601562 186.59375 116.3125 187.5 115.964844 188.375 C 115.910156 188.515625 115.863281 188.511719 115.828125 188.367188 C 115.636719 187.53125 115.316406 186.710938 114.871094 185.902344 C 114.585938 185.382812 114.289062 184.984375 113.988281 184.703125 C 113.980469 184.699219 113.976562 184.695312 113.96875 184.695312 C 113.945312 184.6875 113.917969 184.699219 113.910156 184.726562 C 113.648438 185.503906 113.5 186.304688 113.460938 187.128906 C 113.394531 188.496094 113.835938 189.667969 114.777344 190.644531 C 114.832031 190.699219 114.84375 190.78125 114.8125 190.847656 L 113.597656 193.085938 C 113.5625 193.152344 113.535156 193.148438 113.523438 193.070312 C 113.308594 191.773438 112.886719 190.578125 112.257812 189.492188 C 112.175781 189.347656 112.101562 189.351562 112.035156 189.503906 C 111.65625 190.394531 111.417969 191.363281 111.332031 192.410156 C 111.25 193.378906 111.453125 194.320312 111.941406 195.234375 C 112.042969 195.417969 112.027344 195.582031 111.90625 195.726562 L 110.167969 197.761719 C 110.128906 197.808594 110.109375 197.800781 110.109375 197.738281 C 110.125 196.488281 109.957031 195.226562 109.605469 193.953125 C 109.605469 193.945312 109.597656 193.9375 109.59375 193.929688 C 109.566406 193.902344 109.527344 193.898438 109.5 193.921875 C 109.25 194.148438 109.054688 194.378906 108.914062 194.617188 C 108.460938 195.382812 108.113281 196.195312 107.871094 197.054688 C 107.648438 197.851562 107.632812 198.652344 107.828125 199.457031 C 107.839844 199.503906 107.824219 199.546875 107.792969 199.578125 C 107.042969 200.273438 106.265625 200.894531 105.460938 201.441406 C 105.378906 201.496094 105.355469 201.480469 105.390625 201.386719 C 105.585938 200.851562 105.695312 200.328125 105.714844 199.824219 C 105.742188 199.070312 105.710938 198.320312 105.621094 197.574219 C 105.601562 197.445312 105.542969 197.421875 105.445312 197.503906 C 104.066406 198.65625 103.195312 200.109375 102.832031 201.867188 C 102.792969 202.058594 102.765625 202.300781 102.753906 202.601562 C 102.753906 202.667969 102.714844 202.730469 102.65625 202.761719 L 100.269531 204.070312 C 100.167969 204.125 100.148438 204.101562 100.210938 204.003906 C 100.941406 202.8125 101.304688 201.523438 101.304688 200.128906 C 101.304688 200.125 101.304688 200.117188 101.300781 200.113281 C 101.292969 200.082031 101.261719 200.0625 101.230469 200.074219 C 100.914062 200.160156 100.625 200.304688 100.359375 200.503906 C 99.074219 201.460938 98.0625 202.6875 97.328125 204.179688 C 97.292969 204.246094 97.238281 204.300781 97.167969 204.328125 C 94.675781 205.316406 92.132812 205.953125 89.546875 206.238281 C 89.011719 206.296875 88.480469 206.289062 87.949219 206.21875 C 85.398438 205.871094 82.925781 205.246094 80.53125 204.339844 C 80.371094 204.277344 80.25 204.171875 80.167969 204.023438 C 79.589844 202.957031 78.878906 201.992188 78.03125 201.125 C 77.585938 200.667969 77.058594 200.320312 76.449219 200.082031 C 76.429688 200.070312 76.40625 200.070312 76.378906 200.070312 C 76.300781 200.078125 76.238281 200.152344 76.246094 200.230469 C 76.375 201.617188 76.757812 202.875 77.402344 204.003906 C 77.457031 204.101562 77.441406 204.117188 77.351562 204.050781 C 76.675781 203.554688 75.917969 203.097656 75.074219 202.6875 C 75.027344 202.664062 75 202.617188 74.996094 202.570312 C 74.988281 202.210938 74.929688 201.867188 74.824219 201.535156 C 74.460938 200.371094 73.890625 199.316406 73.113281 198.375 C 72.820312 198.019531 72.492188 197.722656 72.128906 197.488281 C 72.113281 197.480469 72.09375 197.472656 72.078125 197.472656 C 72.015625 197.46875 71.964844 197.511719 71.960938 197.570312 C 71.902344 198.308594 71.898438 199.019531 71.941406 199.710938 C 71.976562 200.273438 72.105469 200.816406 72.328125 201.339844 C 72.390625 201.488281 72.359375 201.511719 72.234375 201.414062 L 69.96875 199.609375 C 69.933594 199.585938 69.921875 199.539062 69.933594 199.496094 C 70.085938 198.957031 70.140625 198.523438 70.097656 198.199219 C 69.898438 196.636719 69.289062 195.238281 68.273438 193.996094 C 68.140625 193.832031 68.050781 193.855469 68.003906 194.058594 C 67.726562 195.261719 67.605469 196.496094 67.640625 197.765625 C 67.640625 197.832031 67.621094 197.84375 67.578125 197.792969 L 65.617188 195.613281 C 65.558594 195.546875 65.550781 195.445312 65.597656 195.363281 C 66.230469 194.265625 66.4375 193.128906 66.226562 191.949219 C 66.136719 191.464844 66.011719 191.007812 65.847656 190.582031 C 65.675781 190.132812 65.441406 189.71875 65.144531 189.332031 C 65.140625 189.328125 65.132812 189.324219 65.128906 189.320312 C 65.101562 189.308594 65.074219 189.316406 65.066406 189.339844 C 64.523438 190.441406 64.160156 191.691406 63.976562 193.085938 C 63.957031 193.210938 63.921875 193.222656 63.859375 193.109375 L 62.632812 190.847656 C 62.613281 190.808594 62.621094 190.757812 62.648438 190.722656 C 63.101562 190.160156 63.414062 189.734375 63.59375 189.441406 C 63.875 188.984375 64.039062 188.433594 64.085938 187.785156 C 64.160156 186.761719 64.019531 185.75 63.664062 184.757812 C 63.621094 184.644531 63.566406 184.632812 63.488281 184.734375 C 62.65625 185.835938 62.050781 187.039062 61.675781 188.339844 C 61.644531 188.445312 61.613281 188.445312 61.574219 188.34375 C 61.230469 187.417969 60.953125 186.496094 60.734375 185.578125 C 60.714844 185.484375 60.757812 185.386719 60.847656 185.339844 C 61.886719 184.820312 62.644531 184.117188 63.125 183.226562 C 63.3125 182.875 63.421875 182.503906 63.449219 182.105469 C 63.492188 181.492188 63.507812 180.84375 63.492188 180.15625 C 63.488281 180.078125 63.457031 180.0625 63.394531 180.109375 C 62.285156 180.90625 61.3125 181.855469 60.46875 182.960938 C 60.433594 183.003906 60.417969 182.996094 60.414062 182.945312 L 60.234375 180.039062 C 60.234375 179.976562 60.273438 179.925781 60.335938 179.910156 C 62.65625 179.34375 63.996094 177.910156 64.363281 175.617188 C 64.363281 175.609375 64.363281 175.601562 64.363281 175.597656 C 64.355469 175.570312 64.328125 175.558594 64.304688 175.566406 C 62.980469 175.976562 61.785156 176.59375 60.722656 177.414062 C 60.625 177.492188 60.582031 177.46875 60.597656 177.34375 C 60.691406 176.523438 60.84375 175.714844 61.054688 174.914062 C 61.078125 174.824219 61.15625 174.761719 61.25 174.757812 C 61.835938 174.746094 62.394531 174.605469 62.921875 174.332031 C 64.410156 173.550781 65.542969 172.417969 66.324219 170.929688 C 66.359375 170.863281 66.339844 170.835938 66.265625 170.851562 C 64.800781 171.128906 63.382812 171.636719 62.011719 172.375 C 61.898438 172.4375 61.863281 172.40625 61.90625 172.289062 C 62.191406 171.496094 62.558594 170.691406 62.996094 169.871094 C 63.023438 169.820312 63.074219 169.785156 63.132812 169.78125 C 65.179688 169.589844 66.824219 168.875 68.058594 167.636719 C 68.488281 167.207031 68.882812 166.753906 69.25 166.269531 C 69.289062 166.214844 69.273438 166.191406 69.207031 166.195312 C 68.164062 166.292969 67.128906 166.457031 66.101562 166.691406 C 65.65625 166.792969 65.234375 166.949219 64.828125 167.15625 C 64.65625 167.246094 64.617188 167.207031 64.710938 167.039062 C 65.121094 166.316406 65.617188 165.625 66.199219 164.96875 C 66.230469 164.9375 66.277344 164.914062 66.324219 164.917969 C 68.640625 164.976562 70.703125 164.277344 72.515625 162.824219 C 72.628906 162.730469 72.613281 162.671875 72.46875 162.640625 C 72.164062 162.578125 71.839844 162.527344 71.496094 162.480469 C 71.480469 162.480469 71.195312 162.4375 70.640625 162.347656 C 69.863281 162.226562 69.09375 162.269531 68.324219 162.476562 C 68.277344 162.488281 68.269531 162.476562 68.300781 162.441406 C 68.941406 161.730469 69.644531 161.089844 70.410156 160.519531 C 70.449219 160.492188 70.496094 160.484375 70.542969 160.5 C 72.589844 161.191406 74.652344 161.066406 76.726562 160.117188 C 76.734375 160.113281 76.738281 160.109375 76.746094 160.105469 C 76.78125 160.074219 76.78125 160.023438 76.75 159.988281 C 75.84375 159.019531 74.738281 158.628906 73.441406 158.808594 C 73.203125 158.84375 72.96875 158.847656 72.734375 158.824219 C 72.683594 158.820312 72.679688 158.800781 72.722656 158.769531 C 73.355469 158.28125 74.011719 157.820312 74.683594 157.386719 C 74.875 157.261719 75.085938 157.1875 75.316406 157.164062 C 75.667969 157.128906 76.019531 157.101562 76.375 157.078125 C 76.859375 157.050781 77.4375 156.851562 78.109375 156.480469 C 79.121094 155.917969 80.070312 155.261719 80.953125 154.511719 C 81.578125 153.980469 82.234375 153.425781 82.914062 152.855469 C 82.988281 152.792969 82.976562 152.761719 82.882812 152.761719 C 82.421875 152.757812 82.03125 152.789062 81.714844 152.851562 C 79.246094 153.324219 77.003906 154.304688 74.992188 155.785156 C 74.09375 156.449219 73.203125 157.117188 72.320312 157.800781 C 72.28125 157.832031 72.273438 157.824219 72.292969 157.777344 C 72.824219 156.539062 73.148438 155.191406 73.269531 153.734375 C 73.277344 153.632812 73.238281 153.609375 73.152344 153.667969 C 71.601562 154.691406 70.484375 156.097656 69.804688 157.890625 C 69.644531 158.308594 69.605469 158.835938 69.683594 159.476562 C 69.6875 159.527344 69.671875 159.574219 69.640625 159.605469 L 67.621094 161.589844 C 67.5625 161.648438 67.535156 161.636719 67.535156 161.550781 C 67.5625 160.222656 67.433594 159.019531 67.152344 157.933594 C 67.105469 157.757812 67.027344 157.742188 66.914062 157.886719 C 65.601562 159.609375 65.160156 161.609375 65.585938 163.886719 C 65.617188 164.042969 65.578125 164.183594 65.472656 164.304688 C 64.921875 164.9375 64.375 165.65625 63.835938 166.464844 C 63.773438 166.5625 63.730469 166.554688 63.707031 166.4375 L 63.023438 162.621094 C 62.984375 162.402344 62.898438 162.386719 62.769531 162.566406 C 61.421875 164.457031 61.195312 166.550781 62.089844 168.851562 C 62.175781 169.070312 62.167969 169.285156 62.070312 169.496094 L 61.050781 171.660156 C 61.007812 171.742188 60.976562 171.742188 60.945312 171.652344 C 60.492188 170.375 59.882812 169.183594 59.109375 168.074219 C 59.082031 168.035156 59.058594 168.039062 59.039062 168.082031 C 58.773438 168.78125 58.609375 169.566406 58.558594 170.441406 C 58.464844 171.980469 58.902344 173.277344 59.863281 174.332031 C 60 174.484375 60.050781 174.664062 60.015625 174.871094 L 59.625 177.132812 C 59.597656 177.304688 59.539062 177.316406 59.445312 177.171875 C 58.703125 175.96875 57.875 174.816406 56.964844 173.71875 C 56.929688 173.679688 56.910156 173.6875 56.898438 173.734375 C 56.5625 175.355469 56.757812 176.910156 57.484375 178.390625 C 57.820312 179.066406 58.371094 179.550781 59.132812 179.839844 C 59.1875 179.859375 59.222656 179.910156 59.226562 179.972656 L 59.378906 182.984375 C 59.386719 183.164062 59.339844 183.183594 59.234375 183.039062 C 58.304688 181.761719 57.203125 180.644531 55.921875 179.679688 C 55.84375 179.621094 55.808594 179.640625 55.8125 179.734375 C 55.84375 180.988281 56.125 182.148438 56.65625 183.222656 C 57.003906 183.921875 57.460938 184.492188 58.023438 184.933594 C 58.234375 185.09375 58.460938 185.21875 58.710938 185.308594 C 58.957031 185.398438 59.210938 185.464844 59.46875 185.507812 C 59.566406 185.527344 59.644531 185.59375 59.671875 185.683594 L 60.488281 188.363281 C 60.527344 188.484375 60.492188 188.507812 60.386719 188.433594 C 59.464844 187.789062 58.535156 187.175781 57.601562 186.601562 C 57.160156 186.324219 56.785156 186.128906 56.484375 186.015625 C 56.4375 186 56.417969 186.011719 56.429688 186.0625 C 56.792969 188 57.773438 189.492188 59.367188 190.542969 C 59.730469 190.777344 60.074219 190.953125 60.410156 191.058594 C 60.789062 191.179688 61.175781 191.246094 61.570312 191.257812 C 61.636719 191.261719 61.695312 191.296875 61.722656 191.351562 L 63.011719 193.660156 C 63.085938 193.792969 63.054688 193.824219 62.917969 193.761719 C 61.511719 193.101562 60.027344 192.519531 58.46875 192.015625 C 58.40625 191.996094 58.390625 192.015625 58.414062 192.074219 C 58.832031 193.019531 59.398438 193.835938 60.105469 194.519531 C 61.28125 195.648438 62.75 196.144531 64.515625 196.007812 C 64.582031 196.003906 64.644531 196.027344 64.6875 196.074219 L 66.789062 198.460938 C 66.820312 198.496094 66.832031 198.535156 66.816406 198.558594 C 66.800781 198.578125 66.773438 198.578125 66.726562 198.558594 C 65.84375 198.195312 64.925781 197.949219 63.980469 197.820312 C 63.300781 197.730469 62.625 197.640625 61.945312 197.554688 C 61.894531 197.546875 61.886719 197.5625 61.914062 197.601562 C 62.363281 198.242188 62.9375 198.824219 63.632812 199.351562 C 64.648438 200.117188 65.765625 200.566406 66.980469 200.703125 C 67.703125 200.78125 68.394531 200.691406 69.050781 200.433594 C 69.121094 200.402344 69.203125 200.410156 69.269531 200.453125 C 70.105469 201.007812 70.90625 201.609375 71.671875 202.25 C 71.863281 202.414062 71.835938 202.460938 71.59375 202.398438 C 71.203125 202.292969 70.804688 202.257812 70.402344 202.292969 C 69.402344 202.375 68.351562 202.523438 67.246094 202.738281 C 67.175781 202.75 67.167969 202.777344 67.222656 202.824219 C 67.851562 203.335938 68.523438 203.753906 69.230469 204.066406 C 70.015625 204.414062 70.769531 204.59375 71.496094 204.605469 C 72.578125 204.625 73.589844 204.3125 74.53125 203.667969 C 74.570312 203.640625 74.617188 203.636719 74.660156 203.65625 C 75.519531 204.050781 76.34375 204.484375 77.132812 204.960938 C 77.328125 205.082031 77.3125 205.152344 77.082031 205.175781 C 75.699219 205.304688 74.386719 205.667969 73.144531 206.269531 C 73.03125 206.324219 73.03125 206.375 73.144531 206.429688 C 74.304688 206.984375 75.53125 207.269531 76.820312 207.289062 C 78.117188 207.308594 79.207031 206.921875 80.097656 206.132812 C 80.191406 206.046875 80.324219 206.019531 80.445312 206.054688 C 82.605469 206.691406 84.691406 207.195312 86.703125 207.566406 C 86.96875 207.617188 86.972656 207.671875 86.703125 207.730469 C 84.578125 208.195312 82.816406 209.300781 81.421875 211.039062 C 81.3125 211.179688 81.347656 211.238281 81.523438 211.214844 C 82.867188 211.046875 84.089844 210.707031 85.195312 210.195312 C 86.394531 209.632812 87.542969 208.957031 88.636719 208.171875 C 88.675781 208.148438 88.726562 208.148438 88.761719 208.171875 C 90.609375 209.488281 92.632812 210.4375 94.828125 211.019531 C 95.117188 211.097656 95.433594 211.140625 95.78125 211.15625 C 95.890625 211.160156 95.910156 211.117188 95.847656 211.03125 C 95.011719 209.925781 93.957031 209.042969 92.683594 208.386719 C 92.140625 208.105469 91.566406 207.90625 90.960938 207.78125 C 90.617188 207.714844 90.621094 207.652344 90.964844 207.597656 C 93.113281 207.253906 95.238281 206.714844 97.339844 205.984375 C 97.382812 205.96875 97.429688 205.976562 97.464844 206.011719 C 98.359375 206.890625 99.421875 207.324219 100.648438 207.316406 C 102.0625 207.300781 103.363281 206.964844 104.550781 206.304688 C 104.679688 206.234375 104.675781 206.167969 104.539062 206.105469 C 103.207031 205.515625 101.828125 205.195312 100.40625 205.140625 C 100.25 205.132812 100.246094 205.097656 100.386719 205.027344 L 103.164062 203.6875 C 103.234375 203.65625 103.3125 203.660156 103.375 203.699219 C 104.167969 204.230469 105.011719 204.523438 105.910156 204.578125 C 106.667969 204.625 107.46875 204.46875 108.3125 204.105469 C 109.050781 203.789062 109.761719 203.363281 110.445312 202.824219 C 110.511719 202.773438 110.503906 202.738281 110.421875 202.714844 C 108.914062 202.324219 107.449219 202.191406 106.03125 202.324219 C 105.976562 202.328125 105.972656 202.316406 106.015625 202.285156 L 108.492188 200.453125 C 108.527344 200.425781 108.578125 200.417969 108.628906 200.429688 C 110.578125 200.929688 112.359375 200.582031 113.980469 199.386719 C 114.671875 198.878906 115.238281 198.292969 115.679688 197.632812 C 115.703125 197.589844 115.691406 197.570312 115.644531 197.578125 C 114.921875 197.652344 114.203125 197.738281 113.488281 197.835938 C 112.644531 197.953125 111.828125 198.171875 111.039062 198.492188 C 110.886719 198.554688 110.859375 198.519531 110.960938 198.386719 C 111.535156 197.628906 112.210938 196.855469 112.980469 196.058594 C 113.035156 196.003906 113.113281 195.976562 113.191406 195.980469 C 114.578125 196.0625 115.789062 195.679688 116.820312 194.824219 C 117.707031 194.089844 118.394531 193.195312 118.882812 192.152344 C 118.925781 192.054688 118.902344 192.027344 118.800781 192.0625 L 114.628906 193.625 C 114.535156 193.660156 114.515625 193.636719 114.5625 193.554688 L 115.941406 191.269531 C 115.972656 191.21875 116.035156 191.183594 116.105469 191.183594 C 116.609375 191.1875 117.082031 191.078125 117.519531 190.863281 C 119.453125 189.898438 120.652344 188.328125 121.117188 186.144531 C 121.144531 186.027344 121.101562 185.996094 120.996094 186.058594 C 119.710938 186.796875 118.472656 187.574219 117.273438 188.390625 C 117.113281 188.5 117.0625 188.460938 117.117188 188.273438 Z M 117.910156 185.703125 " fill-opacity="1" fill-rule="nonzero"/></g><path fill="#030304" d="M 89.65625 164.082031 C 89.886719 164.175781 90.089844 164.308594 90.265625 164.484375 C 90.4375 164.660156 90.574219 164.859375 90.667969 165.085938 C 90.765625 165.316406 90.8125 165.550781 90.8125 165.800781 C 90.8125 166.046875 90.765625 166.28125 90.667969 166.511719 C 90.574219 166.738281 90.4375 166.9375 90.265625 167.113281 C 90.089844 167.289062 89.886719 167.421875 89.65625 167.515625 C 89.429688 167.609375 89.191406 167.660156 88.941406 167.660156 C 88.695312 167.660156 88.457031 167.609375 88.226562 167.515625 C 87.996094 167.421875 87.796875 167.289062 87.621094 167.113281 C 87.445312 166.9375 87.308594 166.738281 87.214844 166.511719 C 87.121094 166.28125 87.074219 166.046875 87.074219 165.800781 C 87.074219 165.550781 87.121094 165.316406 87.214844 165.085938 C 87.308594 164.859375 87.445312 164.660156 87.621094 164.484375 C 87.796875 164.308594 87.996094 164.175781 88.226562 164.082031 C 88.457031 163.988281 88.695312 163.941406 88.941406 163.941406 C 89.191406 163.941406 89.429688 163.988281 89.65625 164.082031 Z M 89.65625 164.082031 " fill-opacity="1" fill-rule="nonzero"/><path fill="#030304" d="M 108.609375 187.335938 C 108.5625 187.3125 108.53125 187.273438 108.519531 187.226562 C 108.195312 185.980469 107.835938 184.753906 107.4375 183.546875 C 106.363281 180.300781 105.265625 177.0625 104.144531 173.832031 C 104.050781 173.5625 103.96875 173.351562 103.902344 173.1875 C 104.246094 172.941406 104.472656 172.535156 104.472656 172.078125 C 104.472656 171.589844 104.214844 171.160156 103.824219 170.917969 C 103.890625 170.902344 103.953125 170.886719 104.011719 170.867188 C 104.660156 170.753906 105.152344 170.191406 105.152344 169.515625 C 105.152344 169.027344 104.894531 168.601562 104.507812 168.355469 C 104.324219 168.226562 104.121094 168.15625 103.898438 168.144531 C 104.066406 168.339844 104.179688 168.585938 104.207031 168.851562 C 104.285156 169.671875 103.601562 170.351562 102.777344 170.273438 C 102.71875 170.265625 102.65625 170.253906 102.597656 170.238281 C 102.601562 170.246094 102.605469 170.25 102.605469 170.253906 C 98.664062 169.574219 94.734375 168.929688 90.8125 168.324219 C 89.546875 168.132812 88.308594 168.125 87.097656 168.304688 C 83.425781 168.847656 79.523438 169.503906 75.382812 170.277344 C 75.382812 170.273438 75.386719 170.269531 75.386719 170.265625 C 75.289062 170.28125 75.1875 170.28125 75.085938 170.269531 C 74.476562 170.210938 73.984375 169.722656 73.921875 169.117188 C 73.886719 168.742188 74.007812 168.398438 74.230469 168.144531 C 74.132812 168.144531 74.039062 168.152344 73.945312 168.171875 C 73.898438 168.179688 73.855469 168.191406 73.808594 168.203125 C 73.527344 168.277344 73.304688 168.4375 73.140625 168.675781 C 72.960938 168.90625 72.851562 169.199219 72.851562 169.515625 C 72.851562 169.527344 72.855469 169.542969 72.855469 169.554688 C 72.839844 169.859375 72.925781 170.128906 73.113281 170.359375 C 73.304688 170.597656 73.550781 170.773438 73.847656 170.894531 C 73.4375 171.128906 73.160156 171.574219 73.160156 172.078125 C 73.160156 172.589844 73.441406 173.03125 73.855469 173.269531 C 73.5 174.425781 73.113281 175.574219 72.695312 176.71875 C 71.847656 179.03125 71.027344 181.355469 70.238281 183.6875 C 69.707031 185.25 69.339844 186.46875 69.140625 187.339844 C 69.128906 187.382812 69.09375 187.414062 69.050781 187.417969 C 68.710938 187.445312 68.515625 187.621094 68.464844 187.941406 C 68.375 188.5 68.570312 188.882812 69.054688 189.089844 C 69.144531 189.128906 69.273438 189.152344 69.445312 189.15625 C 69.582031 189.164062 69.714844 189.179688 69.847656 189.207031 C 69.894531 189.214844 69.9375 189.242188 69.972656 189.277344 C 70.203125 189.515625 70.429688 189.761719 70.65625 190.007812 C 71.222656 190.628906 71.882812 191.058594 72.640625 191.300781 C 73.316406 191.519531 74.078125 191.605469 74.925781 191.5625 C 76.570312 191.472656 77.898438 190.726562 78.914062 189.320312 C 78.945312 189.28125 78.988281 189.257812 79.03125 189.257812 C 79.152344 189.25 79.269531 189.25 79.386719 189.257812 C 79.5625 189.261719 79.703125 189.25 79.808594 189.21875 C 80.496094 189.023438 80.757812 188.5625 80.59375 187.839844 C 80.566406 187.722656 80.527344 187.628906 80.46875 187.566406 C 80.390625 187.476562 80.296875 187.429688 80.1875 187.417969 C 80.101562 187.414062 80.027344 187.351562 80.007812 187.269531 C 79.667969 185.960938 79.308594 184.714844 78.921875 183.523438 C 77.816406 180.125 76.652344 176.746094 75.429688 173.390625 C 75.40625 173.332031 75.378906 173.269531 75.335938 173.203125 C 75.691406 172.953125 75.921875 172.542969 75.921875 172.078125 C 75.921875 171.59375 75.667969 171.167969 75.285156 170.921875 C 76.210938 170.800781 77.476562 170.617188 79.082031 170.371094 C 81.949219 169.929688 84.78125 169.484375 87.578125 169.03125 C 87.582031 169.027344 87.589844 169.027344 87.59375 169.027344 C 87.664062 169.023438 87.722656 169.078125 87.726562 169.148438 C 87.984375 174.660156 88.097656 180.171875 88.074219 185.6875 C 88.066406 186.777344 88.046875 187.757812 88.015625 188.640625 C 87.941406 190.558594 87.832031 192.121094 87.691406 193.328125 C 87.554688 194.515625 87.367188 195.597656 87.132812 196.574219 C 86.941406 197.382812 86.671875 198.175781 86.320312 198.964844 C 85.96875 199.746094 85.589844 200.382812 85.183594 200.875 C 84.707031 201.453125 84.140625 201.945312 83.488281 202.359375 C 82.8125 202.785156 82.121094 203.199219 81.425781 203.597656 C 81.175781 203.742188 81.195312 203.839844 81.476562 203.886719 C 83.898438 204.300781 86.253906 204.265625 88.542969 203.777344 C 88.761719 203.730469 88.980469 203.726562 89.203125 203.765625 C 91.527344 204.195312 93.78125 204.257812 95.96875 203.957031 C 96.328125 203.910156 96.363281 203.773438 96.078125 203.554688 C 95.832031 203.367188 95.535156 203.183594 95.183594 203.003906 C 94.046875 202.414062 93.117188 201.625 92.394531 200.636719 C 91.917969 199.984375 91.492188 199.101562 91.117188 197.988281 C 90.691406 196.71875 90.402344 195.460938 90.253906 194.210938 C 89.765625 190.113281 89.5625 185.820312 89.636719 181.332031 C 89.703125 177.257812 89.824219 173.1875 89.992188 169.113281 C 89.992188 169.113281 89.992188 169.109375 89.992188 169.105469 C 89.996094 169.070312 90.03125 169.046875 90.066406 169.050781 L 102.339844 170.929688 C 101.960938 171.171875 101.710938 171.597656 101.710938 172.078125 C 101.710938 172.566406 101.972656 172.996094 102.363281 173.238281 C 102.355469 173.25 102.347656 173.261719 102.34375 173.273438 C 101.542969 175.585938 100.726562 177.898438 99.90625 180.203125 C 99.164062 182.273438 98.476562 184.363281 97.84375 186.464844 C 97.769531 186.707031 97.710938 186.976562 97.664062 187.277344 C 97.65625 187.324219 97.625 187.363281 97.582031 187.378906 C 97.121094 187.550781 96.90625 187.832031 96.933594 188.226562 C 96.953125 188.535156 97.078125 188.789062 97.308594 188.984375 C 97.546875 189.191406 97.855469 189.261719 98.226562 189.195312 C 98.371094 189.167969 98.519531 189.21875 98.617188 189.328125 C 98.886719 189.632812 99.160156 189.917969 99.4375 190.183594 C 99.765625 190.496094 100.078125 190.734375 100.378906 190.902344 C 101.128906 191.308594 101.984375 191.527344 102.945312 191.554688 C 104.933594 191.613281 106.464844 190.882812 107.542969 189.367188 C 107.570312 189.328125 107.613281 189.304688 107.660156 189.304688 C 108.035156 189.308594 108.375 189.222656 108.671875 189.046875 C 108.996094 188.851562 109.179688 188.597656 109.222656 188.277344 C 109.277344 187.878906 109.070312 187.566406 108.609375 187.335938 Z M 80.417969 188.132812 C 80.417969 188.121094 80.417969 188.109375 80.417969 188.101562 C 80.417969 188.109375 80.417969 188.121094 80.417969 188.132812 C 80.417969 188.140625 80.414062 188.148438 80.414062 188.15625 C 80.414062 188.148438 80.417969 188.140625 80.417969 188.132812 Z M 80.386719 187.957031 C 80.378906 187.945312 80.371094 187.941406 80.359375 187.941406 C 80.371094 187.941406 80.378906 187.945312 80.386719 187.957031 Z M 80.316406 188.3125 C 80.296875 188.308594 80.285156 188.292969 80.273438 188.269531 C 80.285156 188.292969 80.300781 188.308594 80.316406 188.3125 Z M 74.207031 188.042969 C 74.207031 188.082031 74.175781 188.113281 74.136719 188.113281 L 70.460938 188.121094 C 70.363281 188.125 70.28125 188.050781 70.265625 187.957031 C 70.222656 187.675781 70.109375 187.488281 69.933594 187.390625 C 69.921875 187.382812 69.875 187.375 69.789062 187.367188 L 69.5 187.335938 C 69.496094 187.335938 69.496094 187.335938 69.492188 187.335938 C 69.457031 187.324219 69.4375 187.28125 69.449219 187.242188 C 70.085938 184.902344 70.828125 182.59375 71.667969 180.320312 C 72.460938 178.179688 73.226562 176.027344 73.960938 173.867188 C 74.015625 173.703125 74.09375 173.550781 74.191406 173.40625 C 74.230469 173.417969 74.273438 173.425781 74.316406 173.433594 C 74.316406 173.4375 74.316406 173.4375 74.316406 173.445312 C 74.191406 178.296875 74.15625 183.164062 74.207031 188.042969 Z M 79.71875 187.214844 C 79.726562 187.253906 79.707031 187.292969 79.667969 187.304688 C 79.535156 187.335938 79.402344 187.363281 79.269531 187.382812 C 78.957031 187.429688 78.792969 187.617188 78.78125 187.941406 C 78.777344 188.042969 78.695312 188.125 78.59375 188.125 L 74.523438 188.117188 C 74.519531 188.117188 74.519531 188.117188 74.515625 188.117188 C 74.480469 188.113281 74.449219 188.078125 74.453125 188.042969 C 74.460938 187.953125 74.472656 187.867188 74.488281 187.777344 C 74.503906 187.679688 74.511719 187.589844 74.511719 187.511719 C 74.535156 183.371094 74.574219 179.234375 74.628906 175.09375 C 74.640625 174.542969 74.660156 173.996094 74.691406 173.445312 C 74.816406 173.429688 74.9375 173.398438 75.050781 173.355469 C 75.074219 173.386719 75.097656 173.421875 75.113281 173.460938 C 76.863281 178.015625 78.398438 182.597656 79.71875 187.214844 Z M 103.089844 174.652344 C 103.050781 179.121094 103.042969 183.589844 103.066406 188.0625 C 103.066406 188.101562 103.03125 188.132812 102.992188 188.132812 L 98.945312 188.125 C 98.863281 188.125 98.796875 188.0625 98.796875 187.980469 C 98.789062 187.746094 98.679688 187.550781 98.46875 187.398438 C 98.445312 187.382812 98.402344 187.371094 98.332031 187.363281 L 98.050781 187.324219 C 98.050781 187.324219 98.050781 187.324219 98.046875 187.324219 C 98.011719 187.320312 97.984375 187.277344 97.992188 187.230469 C 98.101562 186.574219 98.28125 185.863281 98.527344 185.097656 C 99.847656 181.011719 101.214844 177.144531 102.636719 173.496094 C 102.652344 173.457031 102.667969 173.421875 102.683594 173.390625 C 102.792969 173.425781 102.90625 173.445312 103.023438 173.449219 C 103.074219 173.585938 103.097656 173.988281 103.089844 174.652344 Z M 107.761719 188.042969 C 107.765625 188.007812 107.769531 187.976562 107.78125 187.953125 C 107.769531 187.976562 107.765625 188.007812 107.761719 188.042969 C 107.757812 188.113281 107.777344 188.175781 107.8125 188.21875 C 107.777344 188.175781 107.757812 188.113281 107.761719 188.042969 Z M 107.886719 188.257812 C 107.890625 188.257812 107.890625 188.257812 107.894531 188.257812 C 107.890625 188.257812 107.890625 188.257812 107.886719 188.257812 Z M 107.933594 188.25 C 107.980469 188.226562 108.019531 188.171875 108.03125 188.101562 C 108.019531 188.171875 107.980469 188.226562 107.933594 188.25 Z M 107.914062 187.84375 C 107.949219 187.84375 107.980469 187.867188 108.003906 187.902344 C 107.980469 187.867188 107.949219 187.84375 107.914062 187.84375 Z M 108.140625 187.304688 C 107.605469 187.34375 107.320312 187.574219 107.28125 188 C 107.277344 188.074219 107.210938 188.132812 107.132812 188.132812 L 103.457031 188.132812 C 103.414062 188.132812 103.382812 188.101562 103.382812 188.058594 L 103.429688 173.410156 C 103.496094 173.394531 103.558594 173.371094 103.621094 173.347656 C 103.632812 173.363281 103.640625 173.378906 103.648438 173.398438 C 105.335938 177.949219 106.867188 182.535156 108.242188 187.160156 C 108.246094 187.167969 108.246094 187.175781 108.246094 187.1875 C 108.25 187.246094 108.203125 187.300781 108.140625 187.304688 Z M 108.140625 187.304688 " fill-opacity="1" fill-rule="nonzero"/><g fill="#000000" fill-opacity="1"><g transform="translate(137.974008, 155.493618)"><g><path d="M 21.125 -27.640625 C 21.832031 -27.640625 22.410156 -27.425781 22.859375 -27 C 23.304688 -26.582031 23.53125 -26.03125 23.53125 -25.34375 C 23.53125 -24.664062 23.304688 -24.117188 22.859375 -23.703125 C 22.410156 -23.296875 21.832031 -23.09375 21.125 -23.09375 L 14.921875 -23.09375 L 14.921875 -2.40625 C 14.921875 -1.71875 14.671875 -1.144531 14.171875 -0.6875 C 13.671875 -0.226562 13.050781 0 12.3125 0 C 11.582031 0 10.976562 -0.226562 10.5 -0.6875 C 10.03125 -1.144531 9.796875 -1.71875 9.796875 -2.40625 L 9.796875 -23.09375 L 3.59375 -23.09375 C 2.882812 -23.09375 2.304688 -23.300781 1.859375 -23.71875 C 1.410156 -24.144531 1.1875 -24.703125 1.1875 -25.390625 C 1.1875 -26.046875 1.414062 -26.582031 1.875 -27 C 2.332031 -27.425781 2.90625 -27.640625 3.59375 -27.640625 Z M 21.125 -27.640625 "/></g></g></g><g fill="#000000" fill-opacity="1"><g transform="translate(163.480883, 155.493618)"><g><path d="M 13.65625 -21.515625 C 16.269531 -21.515625 18.078125 -20.71875 19.078125 -19.125 C 20.078125 -17.53125 20.578125 -15.328125 20.578125 -12.515625 L 20.578125 -2.40625 C 20.578125 -1.71875 20.351562 -1.144531 19.90625 -0.6875 C 19.457031 -0.226562 18.890625 0 18.203125 0 C 17.515625 0 16.945312 -0.226562 16.5 -0.6875 C 16.050781 -1.144531 15.828125 -1.71875 15.828125 -2.40625 L 15.828125 -12.515625 C 15.828125 -13.960938 15.546875 -15.097656 14.984375 -15.921875 C 14.421875 -16.753906 13.425781 -17.171875 12 -17.171875 C 10.53125 -17.171875 9.378906 -16.726562 8.546875 -15.84375 C 7.710938 -14.96875 7.296875 -13.859375 7.296875 -12.515625 L 7.296875 -2.40625 C 7.296875 -1.71875 7.070312 -1.144531 6.625 -0.6875 C 6.1875 -0.226562 5.625 0 4.9375 0 C 4.25 0 3.679688 -0.226562 3.234375 -0.6875 C 2.785156 -1.144531 2.5625 -1.71875 2.5625 -2.40625 L 2.5625 -26.8125 C 2.5625 -27.5 2.785156 -28.070312 3.234375 -28.53125 C 3.679688 -28.988281 4.25 -29.21875 4.9375 -29.21875 C 5.625 -29.21875 6.1875 -28.988281 6.625 -28.53125 C 7.070312 -28.070312 7.296875 -27.5 7.296875 -26.8125 L 7.296875 -18.078125 C 8.015625 -19.023438 8.914062 -19.832031 10 -20.5 C 11.09375 -21.175781 12.3125 -21.515625 13.65625 -21.515625 Z M 13.65625 -21.515625 "/></g></g></g><g fill="#000000" fill-opacity="1"><g transform="translate(187.40839, 155.493618)"><g><path d="M 21.515625 -11.0625 C 21.492188 -10.425781 21.242188 -9.910156 20.765625 -9.515625 C 20.296875 -9.117188 19.742188 -8.921875 19.109375 -8.921875 L 6.078125 -8.921875 C 6.390625 -7.367188 7.113281 -6.148438 8.25 -5.265625 C 9.382812 -4.390625 10.660156 -3.953125 12.078125 -3.953125 C 13.160156 -3.953125 14.003906 -4.050781 14.609375 -4.25 C 15.210938 -4.445312 15.691406 -4.65625 16.046875 -4.875 C 16.398438 -5.101562 16.644531 -5.253906 16.78125 -5.328125 C 17.25 -5.566406 17.695312 -5.6875 18.125 -5.6875 C 18.675781 -5.6875 19.148438 -5.488281 19.546875 -5.09375 C 19.941406 -4.695312 20.140625 -4.238281 20.140625 -3.71875 C 20.140625 -3 19.769531 -2.351562 19.03125 -1.78125 C 18.289062 -1.175781 17.300781 -0.660156 16.0625 -0.234375 C 14.832031 0.179688 13.582031 0.390625 12.3125 0.390625 C 10.101562 0.390625 8.175781 -0.0664062 6.53125 -0.984375 C 4.882812 -1.910156 3.613281 -3.179688 2.71875 -4.796875 C 1.820312 -6.410156 1.375 -8.234375 1.375 -10.265625 C 1.375 -12.523438 1.847656 -14.507812 2.796875 -16.21875 C 3.742188 -17.9375 4.992188 -19.25 6.546875 -20.15625 C 8.109375 -21.0625 9.769531 -21.515625 11.53125 -21.515625 C 13.269531 -21.515625 14.90625 -21.039062 16.4375 -20.09375 C 17.976562 -19.144531 19.207031 -17.867188 20.125 -16.265625 C 21.050781 -14.660156 21.515625 -12.925781 21.515625 -11.0625 Z M 11.53125 -17.171875 C 8.476562 -17.171875 6.675781 -15.738281 6.125 -12.875 L 16.46875 -12.875 L 16.46875 -13.140625 C 16.363281 -14.253906 15.820312 -15.203125 14.84375 -15.984375 C 13.875 -16.773438 12.769531 -17.171875 11.53125 -17.171875 Z M 11.53125 -17.171875 "/></g></g></g><g fill="#000000" fill-opacity="1"><g transform="translate(137.974008, 196.433201)"><g><path d="M 18.203125 -4.625 C 18.890625 -4.625 19.460938 -4.40625 19.921875 -3.96875 C 20.378906 -3.53125 20.609375 -2.972656 20.609375 -2.296875 C 20.609375 -1.628906 20.378906 -1.078125 19.921875 -0.640625 C 19.460938 -0.210938 18.890625 0 18.203125 0 L 5.375 0 C 4.6875 0 4.113281 -0.226562 3.65625 -0.6875 C 3.195312 -1.144531 2.96875 -1.71875 2.96875 -2.40625 L 2.96875 -25.234375 C 2.96875 -25.910156 3.203125 -26.476562 3.671875 -26.9375 C 4.140625 -27.40625 4.742188 -27.640625 5.484375 -27.640625 C 6.140625 -27.640625 6.703125 -27.40625 7.171875 -26.9375 C 7.648438 -26.476562 7.890625 -25.910156 7.890625 -25.234375 L 7.890625 -4.625 Z M 18.203125 -4.625 "/></g></g></g><g fill="#000000" fill-opacity="1"><g transform="translate(160.953894, 196.433201)"><g><path d="M 21.515625 -11.0625 C 21.492188 -10.425781 21.242188 -9.910156 20.765625 -9.515625 C 20.296875 -9.117188 19.742188 -8.921875 19.109375 -8.921875 L 6.078125 -8.921875 C 6.390625 -7.367188 7.113281 -6.148438 8.25 -5.265625 C 9.382812 -4.390625 10.660156 -3.953125 12.078125 -3.953125 C 13.160156 -3.953125 14.003906 -4.050781 14.609375 -4.25 C 15.210938 -4.445312 15.691406 -4.65625 16.046875 -4.875 C 16.398438 -5.101562 16.644531 -5.253906 16.78125 -5.328125 C 17.25 -5.566406 17.695312 -5.6875 18.125 -5.6875 C 18.675781 -5.6875 19.148438 -5.488281 19.546875 -5.09375 C 19.941406 -4.695312 20.140625 -4.238281 20.140625 -3.71875 C 20.140625 -3 19.769531 -2.351562 19.03125 -1.78125 C 18.289062 -1.175781 17.300781 -0.660156 16.0625 -0.234375 C 14.832031 0.179688 13.582031 0.390625 12.3125 0.390625 C 10.101562 0.390625 8.175781 -0.0664062 6.53125 -0.984375 C 4.882812 -1.910156 3.613281 -3.179688 2.71875 -4.796875 C 1.820312 -6.410156 1.375 -8.234375 1.375 -10.265625 C 1.375 -12.523438 1.847656 -14.507812 2.796875 -16.21875 C 3.742188 -17.9375 4.992188 -19.25 6.546875 -20.15625 C 8.109375 -21.0625 9.769531 -21.515625 11.53125 -21.515625 C 13.269531 -21.515625 14.90625 -21.039062 16.4375 -20.09375 C 17.976562 -19.144531 19.207031 -17.867188 20.125 -16.265625 C 21.050781 -14.660156 21.515625 -12.925781 21.515625 -11.0625 Z M 11.53125 -17.171875 C 8.476562 -17.171875 6.675781 -15.738281 6.125 -12.875 L 16.46875 -12.875 L 16.46875 -13.140625 C 16.363281 -14.253906 15.820312 -15.203125 14.84375 -15.984375 C 13.875 -16.773438 12.769531 -17.171875 11.53125 -17.171875 Z M 11.53125 -17.171875 "/></g></g></g><g fill="#000000" fill-opacity="1"><g transform="translate(184.644487, 196.433201)"><g><path d="M 20.0625 -21.515625 C 20.738281 -21.515625 21.300781 -21.289062 21.75 -20.84375 C 22.195312 -20.394531 22.421875 -19.816406 22.421875 -19.109375 L 22.421875 -1.546875 C 22.421875 1.671875 21.425781 4.046875 19.4375 5.578125 C 17.457031 7.117188 14.941406 7.890625 11.890625 7.890625 C 11.097656 7.890625 10.007812 7.757812 8.625 7.5 C 7.238281 7.238281 6.257812 6.976562 5.6875 6.71875 C 4.394531 6.164062 3.75 5.398438 3.75 4.421875 C 3.75 4.234375 3.789062 4.023438 3.875 3.796875 C 4.03125 3.210938 4.296875 2.769531 4.671875 2.46875 C 5.054688 2.164062 5.472656 2.015625 5.921875 2.015625 C 6.179688 2.015625 6.429688 2.050781 6.671875 2.125 C 6.773438 2.15625 7.425781 2.398438 8.625 2.859375 C 9.820312 3.316406 10.910156 3.546875 11.890625 3.546875 C 13.835938 3.546875 15.289062 3.15625 16.25 2.375 C 17.207031 1.601562 17.6875 0.507812 17.6875 -0.90625 L 17.6875 -2.796875 C 17.101562 -1.984375 16.226562 -1.25 15.0625 -0.59375 C 13.894531 0.0625 12.640625 0.390625 11.296875 0.390625 C 9.453125 0.390625 7.769531 -0.0703125 6.25 -1 C 4.738281 -1.9375 3.546875 -3.234375 2.671875 -4.890625 C 1.804688 -6.554688 1.375 -8.441406 1.375 -10.546875 C 1.375 -12.648438 1.800781 -14.535156 2.65625 -16.203125 C 3.519531 -17.878906 4.691406 -19.179688 6.171875 -20.109375 C 7.660156 -21.046875 9.316406 -21.515625 11.140625 -21.515625 C 12.472656 -21.515625 13.71875 -21.238281 14.875 -20.6875 C 16.039062 -20.132812 16.976562 -19.460938 17.6875 -18.671875 L 17.6875 -19.109375 C 17.6875 -19.796875 17.910156 -20.367188 18.359375 -20.828125 C 18.804688 -21.285156 19.375 -21.515625 20.0625 -21.515625 Z M 11.890625 -3.953125 C 13.648438 -3.953125 15.085938 -4.578125 16.203125 -5.828125 C 17.328125 -7.078125 17.890625 -8.648438 17.890625 -10.546875 C 17.890625 -12.441406 17.328125 -14.019531 16.203125 -15.28125 C 15.085938 -16.539062 13.648438 -17.171875 11.890625 -17.171875 C 10.117188 -17.171875 8.679688 -16.539062 7.578125 -15.28125 C 6.472656 -14.019531 5.921875 -12.441406 5.921875 -10.546875 C 5.921875 -8.648438 6.472656 -7.078125 7.578125 -5.828125 C 8.679688 -4.578125 10.117188 -3.953125 11.890625 -3.953125 Z M 11.890625 -3.953125 "/></g></g></g><g fill="#000000" fill-opacity="1"><g transform="translate(210.427742, 196.433201)"><g><path d="M 19.65625 -21.515625 C 20.34375 -21.515625 20.910156 -21.289062 21.359375 -20.84375 C 21.804688 -20.394531 22.03125 -19.816406 22.03125 -19.109375 L 22.03125 -2.40625 C 22.03125 -1.71875 21.804688 -1.144531 21.359375 -0.6875 C 20.910156 -0.226562 20.34375 0 19.65625 0 C 18.976562 0 18.421875 -0.222656 17.984375 -0.671875 C 17.546875 -1.117188 17.316406 -1.6875 17.296875 -2.375 C 16.640625 -1.601562 15.75 -0.945312 14.625 -0.40625 C 13.507812 0.125 12.332031 0.390625 11.09375 0.390625 C 9.28125 0.390625 7.632812 -0.0703125 6.15625 -1 C 4.6875 -1.9375 3.519531 -3.234375 2.65625 -4.890625 C 1.800781 -6.554688 1.375 -8.441406 1.375 -10.546875 C 1.375 -12.648438 1.796875 -14.535156 2.640625 -16.203125 C 3.484375 -17.878906 4.632812 -19.179688 6.09375 -20.109375 C 7.5625 -21.046875 9.175781 -21.515625 10.9375 -21.515625 C 12.195312 -21.515625 13.378906 -21.285156 14.484375 -20.828125 C 15.597656 -20.367188 16.535156 -19.785156 17.296875 -19.078125 L 17.296875 -19.109375 C 17.296875 -19.796875 17.519531 -20.367188 17.96875 -20.828125 C 18.414062 -21.285156 18.976562 -21.515625 19.65625 -21.515625 Z M 11.6875 -3.953125 C 13.394531 -3.953125 14.785156 -4.578125 15.859375 -5.828125 C 16.941406 -7.078125 17.484375 -8.648438 17.484375 -10.546875 C 17.484375 -12.441406 16.941406 -14.019531 15.859375 -15.28125 C 14.785156 -16.539062 13.394531 -17.171875 11.6875 -17.171875 C 10 -17.171875 8.613281 -16.539062 7.53125 -15.28125 C 6.457031 -14.019531 5.921875 -12.441406 5.921875 -10.546875 C 5.921875 -8.648438 6.453125 -7.078125 7.515625 -5.828125 C 8.585938 -4.578125 9.976562 -3.953125 11.6875 -3.953125 Z M 11.6875 -3.953125 "/></g></g></g><g fill="#000000" fill-opacity="1"><g transform="translate(235.816159, 196.433201)"><g><path d="M 7.703125 -2.40625 C 7.703125 -1.71875 7.46875 -1.144531 7 -0.6875 C 6.539062 -0.226562 5.972656 0 5.296875 0 C 4.628906 0 4.070312 -0.226562 3.625 -0.6875 C 3.1875 -1.144531 2.96875 -1.71875 2.96875 -2.40625 L 2.96875 -26.8125 C 2.96875 -27.5 3.195312 -28.070312 3.65625 -28.53125 C 4.113281 -28.988281 4.6875 -29.21875 5.375 -29.21875 C 6.03125 -29.21875 6.582031 -28.988281 7.03125 -28.53125 C 7.476562 -28.070312 7.703125 -27.5 7.703125 -26.8125 Z M 7.703125 -2.40625 "/></g></g></g><g fill="#000000" fill-opacity="1"><g transform="translate(137.974008, 237.372784)"><g><path d="M 18.59375 -4.546875 C 19.28125 -4.546875 19.851562 -4.3125 20.3125 -3.84375 C 20.769531 -3.382812 21 -2.851562 21 -2.25 C 21 -1.59375 20.769531 -1.050781 20.3125 -0.625 C 19.851562 -0.207031 19.28125 0 18.59375 0 L 5.375 0 C 4.6875 0 4.113281 -0.226562 3.65625 -0.6875 C 3.195312 -1.144531 2.96875 -1.71875 2.96875 -2.40625 L 2.96875 -25.234375 C 2.96875 -25.910156 3.195312 -26.476562 3.65625 -26.9375 C 4.113281 -27.40625 4.6875 -27.640625 5.375 -27.640625 L 18.59375 -27.640625 C 19.28125 -27.640625 19.851562 -27.421875 20.3125 -26.984375 C 20.769531 -26.554688 21 -26 21 -25.3125 C 21 -24.65625 20.773438 -24.117188 20.328125 -23.703125 C 19.878906 -23.296875 19.300781 -23.09375 18.59375 -23.09375 L 7.890625 -23.09375 L 7.890625 -16.390625 L 16.8125 -16.390625 C 17.5 -16.390625 18.070312 -16.171875 18.53125 -15.734375 C 19 -15.296875 19.234375 -14.738281 19.234375 -14.0625 C 19.234375 -13.394531 19.007812 -12.859375 18.5625 -12.453125 C 18.113281 -12.046875 17.53125 -11.84375 16.8125 -11.84375 L 7.890625 -11.84375 L 7.890625 -4.546875 Z M 18.59375 -4.546875 "/></g></g></g><g fill="#000000" fill-opacity="1"><g transform="translate(161.348728, 237.372784)"><g><path d="M 26.921875 -21.515625 C 29.535156 -21.515625 31.34375 -20.71875 32.34375 -19.125 C 33.34375 -17.53125 33.84375 -15.328125 33.84375 -12.515625 L 33.84375 -2.40625 C 33.84375 -1.71875 33.617188 -1.144531 33.171875 -0.6875 C 32.722656 -0.226562 32.15625 0 31.46875 0 C 30.78125 0 30.210938 -0.226562 29.765625 -0.6875 C 29.316406 -1.144531 29.09375 -1.71875 29.09375 -2.40625 L 29.09375 -12.515625 C 29.09375 -13.960938 28.8125 -15.097656 28.25 -15.921875 C 27.6875 -16.753906 26.691406 -17.171875 25.265625 -17.171875 C 23.796875 -17.171875 22.644531 -16.726562 21.8125 -15.84375 C 20.988281 -14.96875 20.578125 -13.859375 20.578125 -12.515625 L 20.578125 -2.40625 C 20.578125 -1.71875 20.351562 -1.144531 19.90625 -0.6875 C 19.457031 -0.226562 18.890625 0 18.203125 0 C 17.515625 0 16.945312 -0.226562 16.5 -0.6875 C 16.050781 -1.144531 15.828125 -1.71875 15.828125 -2.40625 L 15.828125 -12.515625 C 15.828125 -13.960938 15.546875 -15.097656 14.984375 -15.921875 C 14.421875 -16.753906 13.425781 -17.171875 12 -17.171875 C 10.53125 -17.171875 9.378906 -16.726562 8.546875 -15.84375 C 7.710938 -14.96875 7.296875 -13.859375 7.296875 -12.515625 L 7.296875 -2.40625 C 7.296875 -1.71875 7.070312 -1.144531 6.625 -0.6875 C 6.1875 -0.226562 5.625 0 4.9375 0 C 4.25 0 3.679688 -0.226562 3.234375 -0.6875 C 2.785156 -1.144531 2.5625 -1.71875 2.5625 -2.40625 L 2.5625 -18.71875 C 2.5625 -19.394531 2.785156 -19.960938 3.234375 -20.421875 C 3.679688 -20.890625 4.25 -21.125 4.9375 -21.125 C 5.625 -21.125 6.1875 -20.890625 6.625 -20.421875 C 7.070312 -19.960938 7.296875 -19.394531 7.296875 -18.71875 L 7.296875 -18.078125 C 8.015625 -19.023438 8.914062 -19.832031 10 -20.5 C 11.09375 -21.175781 12.3125 -21.515625 13.65625 -21.515625 C 16.976562 -21.515625 19.097656 -20.066406 20.015625 -17.171875 C 20.617188 -18.273438 21.53125 -19.273438 22.75 -20.171875 C 23.976562 -21.066406 25.367188 -21.515625 26.921875 -21.515625 Z M 26.921875 -21.515625 "/></g></g></g><g fill="#000000" fill-opacity="1"><g transform="translate(198.542937, 237.372784)"><g><path d="M 13.5 -21.515625 C 15.320312 -21.515625 16.96875 -21.046875 18.4375 -20.109375 C 19.914062 -19.179688 21.082031 -17.882812 21.9375 -16.21875 C 22.789062 -14.5625 23.21875 -12.679688 23.21875 -10.578125 C 23.21875 -8.472656 22.796875 -6.582031 21.953125 -4.90625 C 21.109375 -3.238281 19.957031 -1.9375 18.5 -1 C 17.039062 -0.0703125 15.425781 0.390625 13.65625 0.390625 C 12.394531 0.390625 11.203125 0.132812 10.078125 -0.375 C 8.960938 -0.882812 8.035156 -1.507812 7.296875 -2.25 L 7.296875 5.484375 C 7.296875 6.171875 7.070312 6.742188 6.625 7.203125 C 6.1875 7.660156 5.625 7.890625 4.9375 7.890625 C 4.25 7.890625 3.679688 7.664062 3.234375 7.21875 C 2.785156 6.769531 2.5625 6.191406 2.5625 5.484375 L 2.5625 -18.71875 C 2.5625 -19.394531 2.785156 -19.960938 3.234375 -20.421875 C 3.679688 -20.890625 4.25 -21.125 4.9375 -21.125 C 5.625 -21.125 6.1875 -20.890625 6.625 -20.421875 C 7.070312 -19.960938 7.296875 -19.394531 7.296875 -18.71875 L 7.296875 -18.5625 C 7.929688 -19.34375 8.8125 -20.03125 9.9375 -20.625 C 11.070312 -21.21875 12.257812 -21.515625 13.5 -21.515625 Z M 12.90625 -3.953125 C 14.59375 -3.953125 15.972656 -4.582031 17.046875 -5.84375 C 18.128906 -7.101562 18.671875 -8.679688 18.671875 -10.578125 C 18.671875 -12.472656 18.140625 -14.046875 17.078125 -15.296875 C 16.015625 -16.546875 14.625 -17.171875 12.90625 -17.171875 C 11.195312 -17.171875 9.800781 -16.546875 8.71875 -15.296875 C 7.644531 -14.046875 7.109375 -12.472656 7.109375 -10.578125 C 7.109375 -8.679688 7.644531 -7.101562 8.71875 -5.84375 C 9.800781 -4.582031 11.195312 -3.953125 12.90625 -3.953125 Z M 12.90625 -3.953125 "/></g></g></g><g fill="#000000" fill-opacity="1"><g transform="translate(223.931354, 237.372784)"><g><path d="M 7.03125 -2.40625 C 7.03125 -1.71875 6.804688 -1.144531 6.359375 -0.6875 C 5.910156 -0.226562 5.34375 0 4.65625 0 C 3.96875 0 3.398438 -0.226562 2.953125 -0.6875 C 2.515625 -1.144531 2.296875 -1.71875 2.296875 -2.40625 L 2.296875 -18.71875 C 2.296875 -19.394531 2.515625 -19.960938 2.953125 -20.421875 C 3.398438 -20.890625 3.96875 -21.125 4.65625 -21.125 C 5.34375 -21.125 5.910156 -20.890625 6.359375 -20.421875 C 6.804688 -19.960938 7.03125 -19.394531 7.03125 -18.71875 Z M 4.625 -23.6875 C 3.726562 -23.6875 3.09375 -23.832031 2.71875 -24.125 C 2.351562 -24.414062 2.171875 -24.929688 2.171875 -25.671875 L 2.171875 -26.421875 C 2.171875 -27.148438 2.367188 -27.660156 2.765625 -27.953125 C 3.160156 -28.242188 3.789062 -28.390625 4.65625 -28.390625 C 5.582031 -28.390625 6.226562 -28.242188 6.59375 -27.953125 C 6.96875 -27.660156 7.15625 -27.148438 7.15625 -26.421875 L 7.15625 -25.671875 C 7.15625 -24.898438 6.960938 -24.375 6.578125 -24.09375 C 6.191406 -23.820312 5.539062 -23.6875 4.625 -23.6875 Z M 4.625 -23.6875 "/></g></g></g><g fill="#000000" fill-opacity="1"><g transform="translate(234.039375, 237.372784)"><g><path d="M 13.546875 -21.515625 C 14.335938 -21.515625 15 -21.289062 15.53125 -20.84375 C 16.070312 -20.394531 16.34375 -19.867188 16.34375 -19.265625 C 16.34375 -18.453125 16.128906 -17.835938 15.703125 -17.421875 C 15.285156 -17.015625 14.789062 -16.8125 14.21875 -16.8125 C 13.820312 -16.8125 13.375 -16.90625 12.875 -17.09375 C 12.789062 -17.125 12.609375 -17.175781 12.328125 -17.25 C 12.054688 -17.332031 11.765625 -17.375 11.453125 -17.375 C 10.765625 -17.375 10.101562 -17.160156 9.46875 -16.734375 C 8.84375 -16.316406 8.320312 -15.679688 7.90625 -14.828125 C 7.5 -13.972656 7.296875 -12.953125 7.296875 -11.765625 L 7.296875 -2.40625 C 7.296875 -1.71875 7.070312 -1.144531 6.625 -0.6875 C 6.1875 -0.226562 5.625 0 4.9375 0 C 4.25 0 3.679688 -0.226562 3.234375 -0.6875 C 2.785156 -1.144531 2.5625 -1.71875 2.5625 -2.40625 L 2.5625 -18.71875 C 2.5625 -19.394531 2.785156 -19.960938 3.234375 -20.421875 C 3.679688 -20.890625 4.25 -21.125 4.9375 -21.125 C 5.625 -21.125 6.1875 -20.890625 6.625 -20.421875 C 7.070312 -19.960938 7.296875 -19.394531 7.296875 -18.71875 L 7.296875 -18.203125 C 7.910156 -19.285156 8.78125 -20.109375 9.90625 -20.671875 C 11.039062 -21.234375 12.253906 -21.515625 13.546875 -21.515625 Z M 13.546875 -21.515625 "/></g></g></g><g fill="#000000" fill-opacity="1"><g transform="translate(251.96528, 237.372784)"><g><path d="M 21.515625 -11.0625 C 21.492188 -10.425781 21.242188 -9.910156 20.765625 -9.515625 C 20.296875 -9.117188 19.742188 -8.921875 19.109375 -8.921875 L 6.078125 -8.921875 C 6.390625 -7.367188 7.113281 -6.148438 8.25 -5.265625 C 9.382812 -4.390625 10.660156 -3.953125 12.078125 -3.953125 C 13.160156 -3.953125 14.003906 -4.050781 14.609375 -4.25 C 15.210938 -4.445312 15.691406 -4.65625 16.046875 -4.875 C 16.398438 -5.101562 16.644531 -5.253906 16.78125 -5.328125 C 17.25 -5.566406 17.695312 -5.6875 18.125 -5.6875 C 18.675781 -5.6875 19.148438 -5.488281 19.546875 -5.09375 C 19.941406 -4.695312 20.140625 -4.238281 20.140625 -3.71875 C 20.140625 -3 19.769531 -2.351562 19.03125 -1.78125 C 18.289062 -1.175781 17.300781 -0.660156 16.0625 -0.234375 C 14.832031 0.179688 13.582031 0.390625 12.3125 0.390625 C 10.101562 0.390625 8.175781 -0.0664062 6.53125 -0.984375 C 4.882812 -1.910156 3.613281 -3.179688 2.71875 -4.796875 C 1.820312 -6.410156 1.375 -8.234375 1.375 -10.265625 C 1.375 -12.523438 1.847656 -14.507812 2.796875 -16.21875 C 3.742188 -17.9375 4.992188 -19.25 6.546875 -20.15625 C 8.109375 -21.0625 9.769531 -21.515625 11.53125 -21.515625 C 13.269531 -21.515625 14.90625 -21.039062 16.4375 -20.09375 C 17.976562 -19.144531 19.207031 -17.867188 20.125 -16.265625 C 21.050781 -14.660156 21.515625 -12.925781 21.515625 -11.0625 Z M 11.53125 -17.171875 C 8.476562 -17.171875 6.675781 -15.738281 6.125 -12.875 L 16.46875 -12.875 L 16.46875 -13.140625 C 16.363281 -14.253906 15.820312 -15.203125 14.84375 -15.984375 C 13.875 -16.773438 12.769531 -17.171875 11.53125 -17.171875 Z M 11.53125 -17.171875 "/></g></g></g><g fill="#000000" fill-opacity="1"><g transform="translate(275.655879, 237.372784)"><g><path d="M 1.34375 -3.28125 C 1.101562 -3.59375 0.984375 -3.988281 0.984375 -4.46875 C 0.984375 -5.144531 1.328125 -5.722656 2.015625 -6.203125 C 2.378906 -6.429688 2.757812 -6.546875 3.15625 -6.546875 C 3.707031 -6.546875 4.234375 -6.296875 4.734375 -5.796875 C 5.523438 -4.984375 6.347656 -4.378906 7.203125 -3.984375 C 8.054688 -3.585938 9.09375 -3.390625 10.3125 -3.390625 C 12.363281 -3.472656 13.390625 -4.25 13.390625 -5.71875 C 13.390625 -6.488281 13.039062 -7.070312 12.34375 -7.46875 C 11.644531 -7.863281 10.554688 -8.253906 9.078125 -8.640625 C 7.554688 -9.066406 6.3125 -9.488281 5.34375 -9.90625 C 4.382812 -10.332031 3.554688 -10.972656 2.859375 -11.828125 C 2.160156 -12.679688 1.8125 -13.832031 1.8125 -15.28125 C 1.8125 -16.539062 2.171875 -17.640625 2.890625 -18.578125 C 3.617188 -19.515625 4.566406 -20.238281 5.734375 -20.75 C 6.910156 -21.257812 8.15625 -21.515625 9.46875 -21.515625 C 10.8125 -21.515625 12.15625 -21.265625 13.5 -20.765625 C 14.84375 -20.265625 15.894531 -19.53125 16.65625 -18.5625 C 17 -18.132812 17.171875 -17.660156 17.171875 -17.140625 C 17.171875 -16.535156 16.921875 -16.035156 16.421875 -15.640625 C 16.054688 -15.347656 15.632812 -15.203125 15.15625 -15.203125 C 14.582031 -15.203125 14.109375 -15.382812 13.734375 -15.75 C 13.265625 -16.332031 12.65625 -16.796875 11.90625 -17.140625 C 11.15625 -17.484375 10.304688 -17.65625 9.359375 -17.65625 C 7.359375 -17.65625 6.359375 -16.929688 6.359375 -15.484375 C 6.359375 -14.898438 6.539062 -14.429688 6.90625 -14.078125 C 7.28125 -13.722656 7.75 -13.445312 8.3125 -13.25 C 8.875 -13.050781 9.671875 -12.804688 10.703125 -12.515625 C 12.117188 -12.117188 13.300781 -11.707031 14.25 -11.28125 C 15.195312 -10.863281 16 -10.222656 16.65625 -9.359375 C 17.320312 -8.492188 17.65625 -7.347656 17.65625 -5.921875 C 17.65625 -4.628906 17.269531 -3.503906 16.5 -2.546875 C 15.738281 -1.585938 14.757812 -0.859375 13.5625 -0.359375 C 12.363281 0.140625 11.132812 0.390625 9.875 0.390625 C 8.132812 0.390625 6.515625 0.101562 5.015625 -0.46875 C 3.515625 -1.050781 2.289062 -1.988281 1.34375 -3.28125 Z M 1.34375 -3.28125 "/></g></g></g></svg>