<svg xmlns="http://www.w3.org/2000/svg" xmlns:xlink="http://www.w3.org/1999/xlink" width="500" zoomAndPan="magnify" viewBox="0 0 375 374.999991" height="500" preserveAspectRatio="xMidYMid meet" version="1.0"><defs><g/><clipPath id="95fd8fe849"><path d="M 18.976562 145.964844 L 111.976562 145.964844 L 111.976562 229.214844 L 18.976562 229.214844 Z M 18.976562 145.964844 " clip-rule="nonzero"/></clipPath></defs><path stroke-linecap="round" transform="matrix(0, -0.75, 0.75, 0, 16.07458, 275.945694)" fill="none" stroke-linejoin="miter" d="M 66.000513 65.999523 L 173.00052 65.999523 " stroke="#d6860d" stroke-width="132" stroke-opacity="1" stroke-miterlimit="4"/><g clip-path="url(#95fd8fe849)"><path fill="#030304" d="M 106.484375 192.863281 C 106.527344 192.734375 106.632812 192.640625 106.757812 192.617188 C 107.660156 192.46875 108.445312 192.109375 109.113281 191.546875 C 109.644531 191.09375 110.144531 190.421875 110.609375 189.53125 C 111.429688 187.960938 111.882812 186.273438 111.964844 184.464844 C 111.972656 184.339844 111.929688 184.3125 111.828125 184.390625 C 110.113281 185.765625 108.519531 187.292969 107.054688 188.984375 C 106.902344 189.160156 106.835938 189.132812 106.855469 188.898438 L 107.214844 184.84375 C 107.226562 184.726562 107.300781 184.625 107.410156 184.574219 C 108.554688 184.085938 109.382812 183.339844 109.898438 182.332031 C 110.292969 181.550781 110.554688 180.519531 110.679688 179.230469 C 110.785156 178.132812 110.707031 177.027344 110.449219 175.910156 C 110.414062 175.738281 110.339844 175.722656 110.234375 175.859375 C 108.960938 177.488281 107.800781 179.210938 106.753906 181.019531 C 106.71875 181.078125 106.695312 181.074219 106.683594 181.007812 L 106.046875 177.335938 C 106.011719 177.140625 106.066406 176.941406 106.195312 176.800781 C 107.703125 175.117188 108.359375 173.199219 108.160156 171.039062 C 108.050781 169.867188 107.761719 168.683594 107.296875 167.496094 C 107.261719 167.410156 107.222656 167.40625 107.175781 167.484375 C 106.148438 169.210938 105.285156 170.984375 104.59375 172.8125 C 104.558594 172.90625 104.523438 172.90625 104.480469 172.820312 L 103.015625 169.628906 C 102.914062 169.410156 102.917969 169.195312 103.019531 168.976562 C 103.765625 167.394531 104.046875 165.808594 103.863281 164.210938 C 103.679688 162.621094 103.121094 161.152344 102.1875 159.808594 C 102.089844 159.667969 102.007812 159.675781 101.933594 159.828125 C 101.796875 160.136719 101.6875 160.5 101.605469 160.921875 C 101.332031 162.339844 101.027344 163.820312 100.695312 165.355469 C 100.671875 165.460938 100.625 165.472656 100.558594 165.386719 L 98.261719 162.480469 C 98.113281 162.296875 98.070312 162.097656 98.128906 161.882812 C 98.769531 159.417969 98.507812 157.039062 97.347656 154.738281 C 97.023438 154.101562 96.609375 153.535156 96.105469 153.035156 C 96.035156 152.964844 95.988281 152.976562 95.964844 153.074219 C 95.527344 154.886719 95.300781 156.726562 95.285156 158.589844 C 95.285156 158.664062 95.257812 158.671875 95.207031 158.621094 L 92.546875 155.917969 C 92.371094 155.734375 92.300781 155.519531 92.335938 155.261719 C 92.425781 154.632812 92.335938 153.941406 92.066406 153.199219 C 91.191406 150.757812 89.738281 148.8125 87.703125 147.351562 C 87.441406 147.164062 87.320312 147.230469 87.335938 147.554688 C 87.425781 149.410156 87.800781 151.175781 88.460938 152.851562 C 88.511719 152.988281 88.484375 153.011719 88.367188 152.917969 C 87.304688 152.074219 86.234375 151.257812 85.152344 150.472656 C 83.824219 149.511719 82.691406 148.785156 81.753906 148.300781 C 79.679688 147.230469 77.476562 146.5 75.144531 146.109375 C 74.730469 146.039062 74.3125 146.015625 73.886719 146.035156 C 73.800781 146.039062 73.792969 146.070312 73.851562 146.128906 C 74.953125 147.171875 76.097656 148.140625 77.296875 149.039062 C 78.886719 150.230469 80.046875 151.003906 80.777344 151.355469 C 82.023438 151.957031 83.441406 152.3125 85.03125 152.429688 C 85.34375 152.453125 85.613281 152.558594 85.839844 152.738281 L 87.839844 154.351562 C 88.238281 154.671875 88.183594 154.796875 87.675781 154.722656 C 85.476562 154.40625 83.613281 154.949219 82.089844 156.351562 C 82.082031 156.359375 82.078125 156.367188 82.074219 156.375 C 82.054688 156.410156 82.070312 156.453125 82.105469 156.46875 C 85 157.917969 88.03125 158.117188 91.195312 157.070312 C 91.335938 157.027344 91.488281 157.058594 91.589844 157.15625 L 94.152344 159.6875 C 94.367188 159.898438 94.328125 159.964844 94.035156 159.882812 C 93.769531 159.808594 93.511719 159.742188 93.265625 159.683594 C 93.003906 159.617188 92.742188 159.585938 92.480469 159.585938 C 91.011719 159.585938 89.496094 159.78125 87.933594 160.171875 C 87.847656 160.195312 87.835938 160.234375 87.910156 160.289062 C 90.671875 162.359375 93.71875 163.355469 97.050781 163.28125 C 97.117188 163.28125 97.179688 163.308594 97.222656 163.355469 C 98.085938 164.316406 98.835938 165.359375 99.472656 166.484375 C 99.503906 166.546875 99.488281 166.5625 99.421875 166.539062 C 97.296875 165.734375 95.097656 165.257812 92.824219 165.105469 C 92.695312 165.097656 92.671875 165.144531 92.746094 165.242188 C 93.226562 165.875 93.753906 166.480469 94.328125 167.0625 C 96.128906 168.890625 98.511719 169.9375 101.484375 170.203125 C 101.5625 170.207031 101.632812 170.253906 101.671875 170.320312 C 102.316406 171.5 102.871094 172.683594 103.339844 173.875 C 103.367188 173.9375 103.347656 173.949219 103.289062 173.914062 C 102.140625 173.203125 100.917969 172.671875 99.621094 172.320312 C 98.835938 172.105469 98.058594 171.894531 97.296875 171.695312 C 97.109375 171.644531 97.0625 171.703125 97.164062 171.871094 C 97.628906 172.660156 98.148438 173.410156 98.71875 174.121094 C 99.394531 174.957031 100.042969 175.589844 100.667969 176.011719 C 101.746094 176.742188 103.011719 177.199219 104.460938 177.378906 C 104.609375 177.398438 104.722656 177.503906 104.746094 177.640625 L 105.347656 181.207031 C 105.367188 181.332031 105.332031 181.355469 105.234375 181.269531 C 103.722656 179.960938 102.015625 179.019531 100.105469 178.441406 C 100.097656 178.4375 100.085938 178.4375 100.078125 178.4375 C 100.039062 178.441406 100.015625 178.476562 100.019531 178.511719 C 100.410156 181.207031 101.824219 183.128906 104.261719 184.277344 C 104.679688 184.476562 105.148438 184.601562 105.667969 184.65625 C 105.726562 184.660156 105.769531 184.714844 105.765625 184.773438 L 105.527344 188.664062 C 105.511719 188.910156 105.433594 188.933594 105.289062 188.734375 C 104.25 187.285156 102.941406 186.019531 101.359375 184.945312 C 101.34375 184.933594 101.328125 184.925781 101.308594 184.925781 C 101.253906 184.921875 101.207031 184.964844 101.203125 185.019531 C 101.140625 185.792969 101.132812 186.59375 101.175781 187.433594 C 101.214844 188.179688 101.382812 188.839844 101.679688 189.414062 C 102.394531 190.8125 103.433594 191.820312 104.792969 192.441406 C 104.929688 192.503906 105.007812 192.660156 104.96875 192.808594 C 104.644531 194.132812 104.238281 195.417969 103.742188 196.667969 C 103.664062 196.867188 103.601562 196.859375 103.554688 196.652344 C 103.28125 195.464844 102.832031 194.296875 102.203125 193.144531 C 101.800781 192.410156 101.386719 191.839844 100.960938 191.441406 C 100.953125 191.433594 100.941406 191.429688 100.933594 191.425781 C 100.898438 191.414062 100.859375 191.433594 100.847656 191.472656 C 100.484375 192.582031 100.273438 193.722656 100.21875 194.890625 C 100.125 196.835938 100.742188 198.503906 102.074219 199.894531 C 102.148438 199.976562 102.167969 200.089844 102.121094 200.179688 L 100.410156 203.367188 C 100.359375 203.464844 100.324219 203.457031 100.308594 203.347656 C 100.003906 201.5 99.410156 199.800781 98.523438 198.253906 C 98.40625 198.046875 98.304688 198.054688 98.210938 198.269531 C 97.671875 199.539062 97.339844 200.917969 97.214844 202.40625 C 97.101562 203.785156 97.386719 205.125 98.078125 206.429688 C 98.21875 206.6875 98.199219 206.921875 98.023438 207.125 L 95.574219 210.027344 C 95.519531 210.089844 95.496094 210.078125 95.496094 209.992188 C 95.515625 208.210938 95.28125 206.414062 94.785156 204.605469 C 94.78125 204.589844 94.777344 204.578125 94.765625 204.566406 C 94.730469 204.53125 94.675781 204.527344 94.636719 204.558594 C 94.285156 204.882812 94.007812 205.210938 93.8125 205.546875 C 93.171875 206.640625 92.683594 207.796875 92.34375 209.015625 C 92.023438 210.152344 92.003906 211.292969 92.28125 212.4375 C 92.296875 212.5 92.277344 212.566406 92.230469 212.613281 C 91.171875 213.597656 90.078125 214.480469 88.945312 215.261719 C 88.828125 215.339844 88.796875 215.316406 88.84375 215.183594 C 89.121094 214.421875 89.273438 213.679688 89.300781 212.960938 C 89.339844 211.886719 89.296875 210.820312 89.167969 209.757812 C 89.144531 209.574219 89.0625 209.539062 88.921875 209.660156 C 86.980469 211.296875 85.753906 213.367188 85.238281 215.867188 C 85.183594 216.140625 85.148438 216.488281 85.132812 216.910156 C 85.128906 217.007812 85.074219 217.097656 84.992188 217.140625 L 81.632812 219 C 81.488281 219.082031 81.457031 219.046875 81.542969 218.90625 C 82.574219 217.210938 83.089844 215.375 83.089844 213.394531 C 83.089844 213.382812 83.085938 213.375 83.085938 213.367188 C 83.070312 213.324219 83.027344 213.300781 82.984375 213.3125 C 82.539062 213.4375 82.132812 213.640625 81.757812 213.925781 C 79.949219 215.289062 78.523438 217.03125 77.484375 219.15625 C 77.4375 219.253906 77.355469 219.328125 77.257812 219.367188 C 73.746094 220.773438 70.164062 221.679688 66.519531 222.085938 C 65.769531 222.167969 65.019531 222.160156 64.269531 222.058594 C 60.675781 221.566406 57.191406 220.671875 53.816406 219.382812 C 53.589844 219.296875 53.417969 219.148438 53.304688 218.933594 C 52.488281 217.417969 51.488281 216.046875 50.292969 214.8125 C 49.667969 214.160156 48.925781 213.664062 48.066406 213.324219 C 48.035156 213.3125 48 213.308594 47.96875 213.308594 C 47.851562 213.320312 47.769531 213.421875 47.777344 213.539062 C 47.957031 215.511719 48.5 217.304688 49.410156 218.910156 C 49.484375 219.046875 49.460938 219.070312 49.335938 218.976562 C 48.382812 218.265625 47.3125 217.617188 46.125 217.03125 C 46.0625 217 46.023438 216.933594 46.019531 216.863281 C 46.003906 216.355469 45.921875 215.867188 45.777344 215.390625 C 45.261719 213.734375 44.457031 212.238281 43.363281 210.894531 C 42.953125 210.390625 42.488281 209.96875 41.972656 209.636719 C 41.953125 209.621094 41.929688 209.613281 41.902344 209.613281 C 41.820312 209.605469 41.746094 209.667969 41.738281 209.753906 C 41.660156 210.800781 41.652344 211.816406 41.714844 212.796875 C 41.761719 213.597656 41.945312 214.371094 42.257812 215.113281 C 42.347656 215.324219 42.300781 215.359375 42.125 215.21875 L 38.933594 212.65625 C 38.886719 212.617188 38.867188 212.554688 38.882812 212.488281 C 39.097656 211.722656 39.175781 211.109375 39.117188 210.644531 C 38.832031 208.425781 37.976562 206.429688 36.546875 204.664062 C 36.359375 204.433594 36.234375 204.460938 36.167969 204.75 C 35.773438 206.464844 35.601562 208.222656 35.652344 210.03125 C 35.652344 210.125 35.625 210.140625 35.5625 210.070312 L 32.800781 206.964844 C 32.71875 206.871094 32.707031 206.730469 32.773438 206.613281 C 33.664062 205.050781 33.957031 203.429688 33.65625 201.75 C 33.535156 201.0625 33.355469 200.414062 33.125 199.804688 C 32.882812 199.167969 32.554688 198.574219 32.132812 198.027344 C 32.128906 198.019531 32.117188 198.015625 32.109375 198.011719 C 32.078125 197.996094 32.039062 198.007812 32.023438 198.039062 C 31.261719 199.609375 30.75 201.386719 30.488281 203.371094 C 30.464844 203.550781 30.410156 203.5625 30.328125 203.402344 L 28.597656 200.183594 C 28.570312 200.128906 28.578125 200.058594 28.621094 200.003906 C 29.253906 199.207031 29.699219 198.597656 29.953125 198.183594 C 30.347656 197.535156 30.578125 196.75 30.644531 195.828125 C 30.75 194.367188 30.550781 192.929688 30.050781 191.515625 C 29.992188 191.355469 29.910156 191.339844 29.804688 191.480469 C 28.625 193.054688 27.773438 194.765625 27.246094 196.617188 C 27.207031 196.765625 27.15625 196.765625 27.105469 196.621094 C 26.621094 195.300781 26.226562 193.988281 25.921875 192.683594 C 25.890625 192.550781 25.957031 192.410156 26.082031 192.347656 C 27.542969 191.605469 28.613281 190.601562 29.289062 189.335938 C 29.550781 188.839844 29.707031 188.308594 29.746094 187.742188 C 29.808594 186.867188 29.828125 185.945312 29.804688 184.96875 C 29.800781 184.859375 29.757812 184.835938 29.667969 184.902344 C 28.109375 186.03125 26.734375 187.386719 25.546875 188.957031 C 25.5 189.019531 25.472656 189.011719 25.46875 188.9375 L 25.21875 184.796875 C 25.214844 184.714844 25.273438 184.636719 25.359375 184.617188 C 28.625 183.808594 30.519531 181.773438 31.035156 178.507812 C 31.035156 178.496094 31.035156 178.488281 31.03125 178.480469 C 31.019531 178.445312 30.984375 178.425781 30.949219 178.4375 C 29.082031 179.019531 27.402344 179.898438 25.90625 181.066406 C 25.765625 181.175781 25.707031 181.140625 25.730469 180.96875 C 25.863281 179.800781 26.078125 178.648438 26.371094 177.507812 C 26.402344 177.378906 26.519531 177.289062 26.648438 177.289062 C 27.476562 177.269531 28.257812 177.066406 29 176.675781 C 31.097656 175.570312 32.699219 173.953125 33.796875 171.835938 C 33.847656 171.738281 33.820312 171.703125 33.714844 171.722656 C 31.648438 172.121094 29.648438 172.84375 27.71875 173.894531 C 27.558594 173.984375 27.511719 173.941406 27.570312 173.769531 C 27.976562 172.644531 28.488281 171.496094 29.109375 170.328125 C 29.148438 170.257812 29.21875 170.207031 29.300781 170.199219 C 32.1875 169.929688 34.5 168.914062 36.242188 167.148438 C 36.84375 166.539062 37.402344 165.890625 37.917969 165.203125 C 37.972656 165.125 37.957031 165.09375 37.863281 165.101562 C 36.386719 165.234375 34.929688 165.46875 33.484375 165.804688 C 32.859375 165.949219 32.261719 166.171875 31.691406 166.46875 C 31.449219 166.59375 31.394531 166.539062 31.527344 166.300781 C 32.101562 165.269531 32.800781 164.289062 33.621094 163.355469 C 33.667969 163.304688 33.730469 163.277344 33.796875 163.28125 C 37.0625 163.363281 39.96875 162.371094 42.519531 160.300781 C 42.683594 160.167969 42.660156 160.082031 42.457031 160.039062 C 42.027344 159.953125 41.570312 159.878906 41.085938 159.816406 C 41.0625 159.8125 40.664062 159.75 39.878906 159.625 C 38.785156 159.453125 37.699219 159.515625 36.617188 159.804688 C 36.550781 159.824219 36.539062 159.808594 36.585938 159.757812 C 37.484375 158.746094 38.476562 157.832031 39.554688 157.023438 C 39.609375 156.984375 39.679688 156.972656 39.738281 156.992188 C 42.628906 157.980469 45.53125 157.796875 48.453125 156.449219 C 48.464844 156.445312 48.472656 156.4375 48.484375 156.429688 C 48.53125 156.386719 48.535156 156.3125 48.492188 156.265625 C 47.210938 154.890625 45.65625 154.328125 43.824219 154.585938 C 43.488281 154.636719 43.160156 154.640625 42.828125 154.609375 C 42.761719 154.601562 42.753906 154.574219 42.8125 154.53125 C 43.707031 153.835938 44.628906 153.179688 45.574219 152.5625 C 45.847656 152.382812 46.144531 152.277344 46.46875 152.246094 C 46.960938 152.195312 47.460938 152.15625 47.957031 152.125 C 48.640625 152.085938 49.457031 151.800781 50.402344 151.269531 C 51.832031 150.472656 53.167969 149.539062 54.410156 148.472656 C 55.292969 147.710938 56.214844 146.925781 57.175781 146.113281 C 57.28125 146.027344 57.265625 145.984375 57.128906 145.980469 C 56.480469 145.976562 55.933594 146.019531 55.480469 146.105469 C 52.003906 146.78125 48.847656 148.175781 46.007812 150.285156 C 44.746094 151.226562 43.488281 152.179688 42.246094 153.152344 C 42.191406 153.195312 42.179688 153.183594 42.207031 153.121094 C 42.957031 151.355469 43.414062 149.4375 43.582031 147.363281 C 43.59375 147.222656 43.539062 147.1875 43.421875 147.269531 C 41.230469 148.726562 39.65625 150.730469 38.699219 153.28125 C 38.476562 153.871094 38.421875 154.625 38.53125 155.539062 C 38.539062 155.609375 38.515625 155.675781 38.46875 155.71875 L 35.625 158.546875 C 35.542969 158.628906 35.5 158.609375 35.503906 158.492188 C 35.539062 156.601562 35.359375 154.882812 34.964844 153.34375 C 34.898438 153.089844 34.785156 153.066406 34.628906 153.273438 C 32.777344 155.726562 32.15625 158.570312 32.757812 161.8125 C 32.800781 162.035156 32.746094 162.234375 32.597656 162.40625 C 31.820312 163.308594 31.050781 164.332031 30.292969 165.484375 C 30.199219 165.621094 30.140625 165.609375 30.113281 165.445312 L 29.144531 160.011719 C 29.089844 159.703125 28.972656 159.675781 28.792969 159.933594 C 26.890625 162.625 26.570312 165.605469 27.832031 168.878906 C 27.949219 169.191406 27.941406 169.5 27.800781 169.796875 L 26.363281 172.875 C 26.308594 172.992188 26.261719 172.992188 26.214844 172.867188 C 25.582031 171.050781 24.722656 169.351562 23.632812 167.773438 C 23.59375 167.714844 23.558594 167.722656 23.535156 167.785156 C 23.15625 168.78125 22.929688 169.898438 22.855469 171.140625 C 22.726562 173.332031 23.335938 175.175781 24.691406 176.679688 C 24.886719 176.894531 24.957031 177.148438 24.90625 177.449219 L 24.359375 180.667969 C 24.320312 180.910156 24.234375 180.925781 24.105469 180.71875 C 23.058594 179.007812 21.894531 177.371094 20.605469 175.808594 C 20.5625 175.753906 20.53125 175.761719 20.519531 175.828125 C 20.042969 178.136719 20.316406 180.347656 21.34375 182.453125 C 21.8125 183.417969 22.589844 184.105469 23.667969 184.519531 C 23.742188 184.546875 23.792969 184.621094 23.796875 184.703125 L 24.011719 188.996094 C 24.023438 189.25 23.953125 189.277344 23.804688 189.070312 C 22.5 187.253906 20.945312 185.660156 19.136719 184.289062 C 19.03125 184.207031 18.976562 184.234375 18.984375 184.371094 C 19.03125 186.152344 19.429688 187.804688 20.175781 189.332031 C 20.664062 190.328125 21.304688 191.140625 22.101562 191.765625 C 22.394531 191.992188 22.71875 192.171875 23.070312 192.300781 C 23.417969 192.425781 23.773438 192.523438 24.140625 192.585938 C 24.273438 192.609375 24.386719 192.707031 24.425781 192.835938 L 25.574219 196.644531 C 25.628906 196.820312 25.578125 196.851562 25.429688 196.75 C 24.128906 195.832031 22.820312 194.960938 21.507812 194.136719 C 20.882812 193.746094 20.359375 193.46875 19.933594 193.308594 C 19.867188 193.28125 19.839844 193.304688 19.851562 193.375 C 20.367188 196.132812 21.75 198.257812 23.996094 199.75 C 24.503906 200.085938 24.992188 200.332031 25.464844 200.484375 C 25.996094 200.65625 26.542969 200.75 27.101562 200.765625 C 27.191406 200.769531 27.273438 200.820312 27.316406 200.898438 L 29.132812 204.1875 C 29.234375 204.375 29.191406 204.421875 29 204.332031 C 27.015625 203.394531 24.925781 202.566406 22.726562 201.847656 C 22.640625 201.820312 22.617188 201.847656 22.652344 201.929688 C 23.242188 203.273438 24.035156 204.433594 25.035156 205.40625 C 26.691406 207.015625 28.761719 207.71875 31.25 207.527344 C 31.34375 207.519531 31.429688 207.554688 31.488281 207.625 L 34.453125 211.015625 C 34.496094 211.066406 34.511719 211.125 34.492188 211.15625 C 34.46875 211.183594 34.429688 211.183594 34.367188 211.160156 C 33.121094 210.640625 31.828125 210.289062 30.492188 210.109375 C 29.539062 209.980469 28.582031 209.851562 27.628906 209.726562 C 27.558594 209.71875 27.542969 209.742188 27.582031 209.796875 C 28.214844 210.707031 29.023438 211.539062 30.007812 212.285156 C 31.4375 213.375 33.011719 214.015625 34.722656 214.210938 C 35.742188 214.324219 36.710938 214.195312 37.636719 213.824219 C 37.738281 213.785156 37.855469 213.796875 37.945312 213.855469 C 39.125 214.644531 40.253906 215.5 41.332031 216.414062 C 41.601562 216.644531 41.566406 216.710938 41.226562 216.621094 C 40.671875 216.472656 40.113281 216.425781 39.542969 216.472656 C 38.136719 216.589844 36.652344 216.800781 35.09375 217.105469 C 35 217.125 34.988281 217.164062 35.0625 217.226562 C 35.953125 217.960938 36.894531 218.550781 37.894531 218.996094 C 39 219.488281 40.0625 219.746094 41.085938 219.765625 C 42.613281 219.792969 44.035156 219.347656 45.359375 218.429688 C 45.414062 218.390625 45.484375 218.382812 45.542969 218.410156 C 46.753906 218.972656 47.914062 219.59375 49.023438 220.269531 C 49.304688 220.441406 49.28125 220.542969 48.957031 220.574219 C 47.007812 220.757812 45.15625 221.273438 43.40625 222.128906 C 43.25 222.207031 43.25 222.285156 43.40625 222.359375 C 45.042969 223.148438 46.769531 223.554688 48.585938 223.585938 C 50.414062 223.609375 51.953125 223.0625 53.207031 221.933594 C 53.339844 221.816406 53.523438 221.777344 53.699219 221.828125 C 56.738281 222.734375 59.675781 223.453125 62.511719 223.980469 C 62.890625 224.050781 62.890625 224.128906 62.515625 224.210938 C 59.515625 224.871094 57.035156 226.441406 55.074219 228.917969 C 54.917969 229.117188 54.964844 229.203125 55.214844 229.167969 C 57.105469 228.933594 58.828125 228.449219 60.386719 227.714844 C 62.082031 226.917969 63.699219 225.960938 65.238281 224.84375 C 65.292969 224.804688 65.363281 224.804688 65.414062 224.84375 C 68.019531 226.710938 70.867188 228.0625 73.960938 228.894531 C 74.371094 229 74.816406 229.066406 75.304688 229.085938 C 75.457031 229.089844 75.488281 229.03125 75.394531 228.910156 C 74.222656 227.335938 72.734375 226.078125 70.9375 225.140625 C 70.171875 224.746094 69.363281 224.457031 68.511719 224.285156 C 68.03125 224.1875 68.03125 224.101562 68.519531 224.023438 C 71.546875 223.535156 74.542969 222.765625 77.503906 221.722656 C 77.5625 221.703125 77.628906 221.71875 77.675781 221.761719 C 78.9375 223.015625 80.433594 223.632812 82.164062 223.621094 C 84.15625 223.601562 85.988281 223.125 87.660156 222.183594 C 87.84375 222.082031 87.839844 221.984375 87.644531 221.902344 C 85.769531 221.0625 83.828125 220.601562 81.824219 220.523438 C 81.605469 220.515625 81.59375 220.460938 81.792969 220.363281 L 85.710938 218.457031 C 85.804688 218.410156 85.917969 218.417969 86.007812 218.476562 C 87.121094 219.230469 88.3125 219.644531 89.578125 219.722656 C 90.648438 219.789062 91.777344 219.566406 92.960938 219.054688 C 94.003906 218.601562 95.007812 217.992188 95.96875 217.226562 C 96.058594 217.15625 96.050781 217.105469 95.9375 217.074219 C 93.8125 216.515625 91.746094 216.328125 89.746094 216.515625 C 89.671875 216.523438 89.667969 216.507812 89.726562 216.460938 L 93.21875 213.855469 C 93.269531 213.816406 93.335938 213.804688 93.40625 213.824219 C 96.152344 214.535156 98.667969 214.039062 100.953125 212.335938 C 101.925781 211.613281 102.722656 210.78125 103.339844 209.839844 C 103.378906 209.78125 103.363281 209.753906 103.292969 209.761719 C 102.277344 209.867188 101.265625 209.992188 100.253906 210.132812 C 99.066406 210.296875 97.917969 210.605469 96.804688 211.0625 C 96.589844 211.152344 96.550781 211.105469 96.691406 210.914062 C 97.503906 209.835938 98.453125 208.730469 99.542969 207.601562 C 99.621094 207.523438 99.726562 207.480469 99.835938 207.488281 C 101.792969 207.609375 103.496094 207.058594 104.953125 205.84375 C 106.203125 204.796875 107.171875 203.527344 107.859375 202.039062 C 107.917969 201.902344 107.882812 201.859375 107.746094 201.914062 L 101.863281 204.136719 C 101.734375 204.1875 101.703125 204.15625 101.769531 204.039062 L 103.710938 200.785156 C 103.757812 200.710938 103.847656 200.664062 103.945312 200.664062 C 104.65625 200.664062 105.316406 200.511719 105.933594 200.207031 C 108.660156 198.835938 110.351562 196.597656 111.007812 193.492188 C 111.042969 193.320312 110.988281 193.28125 110.835938 193.367188 C 109.023438 194.417969 107.277344 195.523438 105.589844 196.6875 C 105.363281 196.84375 105.289062 196.789062 105.371094 196.519531 Z M 106.484375 192.863281 " fill-opacity="1" fill-rule="nonzero"/></g><path fill="#030304" d="M 66.675781 162.089844 C 67 162.226562 67.285156 162.417969 67.53125 162.664062 C 67.777344 162.914062 67.96875 163.199219 68.101562 163.523438 C 68.234375 163.847656 68.300781 164.183594 68.300781 164.535156 C 68.300781 164.886719 68.234375 165.222656 68.101562 165.546875 C 67.96875 165.871094 67.777344 166.15625 67.53125 166.40625 C 67.285156 166.652344 67 166.84375 66.675781 166.980469 C 66.355469 167.113281 66.019531 167.179688 65.667969 167.179688 C 65.320312 167.179688 64.984375 167.113281 64.660156 166.980469 C 64.335938 166.84375 64.050781 166.652344 63.804688 166.40625 C 63.558594 166.15625 63.367188 165.871094 63.234375 165.546875 C 63.101562 165.222656 63.035156 164.886719 63.035156 164.535156 C 63.035156 164.183594 63.101562 163.847656 63.234375 163.523438 C 63.367188 163.199219 63.558594 162.914062 63.804688 162.664062 C 64.050781 162.417969 64.335938 162.226562 64.660156 162.089844 C 64.984375 161.957031 65.320312 161.890625 65.667969 161.890625 C 66.019531 161.890625 66.355469 161.957031 66.675781 162.089844 Z M 66.675781 162.089844 " fill-opacity="1" fill-rule="nonzero"/><path fill="#030304" d="M 93.378906 195.1875 C 93.316406 195.15625 93.273438 195.097656 93.257812 195.03125 C 92.800781 193.257812 92.289062 191.511719 91.726562 189.792969 C 90.214844 185.175781 88.667969 180.566406 87.085938 175.964844 C 86.957031 175.585938 86.84375 175.28125 86.75 175.050781 C 87.234375 174.699219 87.554688 174.125 87.554688 173.472656 C 87.554688 172.777344 87.1875 172.164062 86.640625 171.820312 C 86.734375 171.796875 86.820312 171.773438 86.90625 171.746094 C 87.816406 171.585938 88.507812 170.785156 88.507812 169.824219 C 88.507812 169.128906 88.144531 168.519531 87.601562 168.175781 C 87.339844 167.988281 87.054688 167.886719 86.742188 167.875 C 86.980469 168.152344 87.136719 168.5 87.175781 168.882812 C 87.289062 170.046875 86.324219 171.015625 85.164062 170.902344 C 85.078125 170.890625 84.996094 170.875 84.910156 170.855469 C 84.914062 170.863281 84.917969 170.867188 84.921875 170.875 C 79.367188 169.90625 73.828125 168.992188 68.304688 168.132812 C 66.519531 167.855469 64.777344 167.84375 63.070312 168.097656 C 57.898438 168.875 52.394531 169.808594 46.5625 170.90625 C 46.5625 170.902344 46.566406 170.898438 46.566406 170.894531 C 46.429688 170.910156 46.289062 170.914062 46.140625 170.898438 C 45.285156 170.8125 44.589844 170.117188 44.503906 169.257812 C 44.453125 168.726562 44.625 168.238281 44.9375 167.871094 C 44.800781 167.871094 44.667969 167.886719 44.535156 167.914062 C 44.472656 167.925781 44.410156 167.9375 44.34375 167.957031 C 43.945312 168.066406 43.632812 168.289062 43.402344 168.628906 C 43.148438 168.960938 42.996094 169.375 42.996094 169.824219 C 42.996094 169.84375 43 169.863281 43 169.882812 C 42.976562 170.316406 43.097656 170.699219 43.363281 171.027344 C 43.632812 171.363281 43.980469 171.613281 44.402344 171.785156 C 43.820312 172.125 43.429688 172.75 43.429688 173.472656 C 43.429688 174.199219 43.824219 174.828125 44.410156 175.167969 C 43.90625 176.8125 43.363281 178.449219 42.773438 180.078125 C 41.582031 183.367188 40.425781 186.671875 39.3125 189.992188 C 38.5625 192.214844 38.046875 193.949219 37.765625 195.191406 C 37.75 195.253906 37.699219 195.296875 37.636719 195.300781 C 37.160156 195.339844 36.886719 195.589844 36.8125 196.046875 C 36.6875 196.839844 36.964844 197.386719 37.644531 197.683594 C 37.769531 197.738281 37.953125 197.769531 38.195312 197.777344 C 38.386719 197.785156 38.574219 197.808594 38.761719 197.847656 C 38.828125 197.863281 38.890625 197.898438 38.9375 197.949219 C 39.261719 198.289062 39.585938 198.636719 39.902344 198.984375 C 40.699219 199.871094 41.628906 200.484375 42.695312 200.832031 C 43.648438 201.140625 44.722656 201.261719 45.917969 201.199219 C 48.234375 201.070312 50.109375 200.007812 51.539062 198.011719 C 51.578125 197.957031 51.640625 197.921875 51.703125 197.917969 C 51.871094 197.910156 52.039062 197.910156 52.203125 197.917969 C 52.449219 197.929688 52.648438 197.910156 52.796875 197.867188 C 53.765625 197.589844 54.132812 196.933594 53.902344 195.902344 C 53.867188 195.734375 53.808594 195.605469 53.730469 195.515625 C 53.617188 195.386719 53.484375 195.320312 53.332031 195.304688 C 53.210938 195.292969 53.109375 195.207031 53.078125 195.089844 C 52.601562 193.230469 52.09375 191.453125 51.546875 189.757812 C 49.992188 184.921875 48.351562 180.113281 46.625 175.335938 C 46.597656 175.257812 46.554688 175.167969 46.496094 175.070312 C 46.996094 174.714844 47.324219 174.132812 47.324219 173.472656 C 47.324219 172.78125 46.964844 172.175781 46.421875 171.828125 C 47.730469 171.65625 49.511719 171.394531 51.773438 171.042969 C 55.816406 170.414062 59.808594 169.777344 63.75 169.132812 C 63.753906 169.132812 63.761719 169.132812 63.765625 169.132812 C 63.867188 169.125 63.953125 169.203125 63.957031 169.304688 C 64.316406 177.144531 64.480469 184.992188 64.441406 192.839844 C 64.4375 194.386719 64.410156 195.789062 64.363281 197.039062 C 64.257812 199.769531 64.105469 201.996094 63.90625 203.714844 C 63.710938 205.402344 63.449219 206.941406 63.121094 208.335938 C 62.851562 209.484375 62.46875 210.613281 61.972656 211.734375 C 61.480469 212.847656 60.945312 213.753906 60.375 214.453125 C 59.699219 215.273438 58.902344 215.980469 57.984375 216.566406 C 57.027344 217.175781 56.058594 217.761719 55.078125 218.332031 C 54.726562 218.535156 54.75 218.671875 55.152344 218.742188 C 58.5625 219.332031 61.878906 219.277344 65.101562 218.582031 C 65.414062 218.519531 65.722656 218.515625 66.035156 218.570312 C 69.3125 219.175781 72.488281 219.269531 75.570312 218.839844 C 76.078125 218.773438 76.128906 218.578125 75.722656 218.265625 C 75.378906 218.003906 74.957031 217.742188 74.460938 217.480469 C 72.859375 216.644531 71.550781 215.523438 70.535156 214.117188 C 69.859375 213.1875 69.261719 211.929688 68.734375 210.347656 C 68.132812 208.539062 67.726562 206.75 67.515625 204.972656 C 66.832031 199.140625 66.542969 193.027344 66.644531 186.640625 C 66.742188 180.84375 66.910156 175.046875 67.144531 169.253906 C 67.144531 169.25 67.148438 169.246094 67.148438 169.242188 C 67.15625 169.191406 67.203125 169.15625 67.253906 169.164062 L 84.542969 171.835938 C 84.015625 172.183594 83.664062 172.785156 83.664062 173.46875 C 83.664062 174.167969 84.027344 174.777344 84.578125 175.125 C 84.570312 175.140625 84.558594 175.15625 84.554688 175.175781 C 83.421875 178.464844 82.273438 181.753906 81.113281 185.039062 C 80.074219 187.984375 79.105469 190.953125 78.210938 193.949219 C 78.109375 194.289062 78.027344 194.675781 77.960938 195.101562 C 77.949219 195.167969 77.90625 195.222656 77.84375 195.246094 C 77.195312 195.488281 76.890625 195.890625 76.929688 196.453125 C 76.957031 196.894531 77.132812 197.253906 77.457031 197.535156 C 77.792969 197.828125 78.226562 197.925781 78.753906 197.828125 C 78.957031 197.792969 79.164062 197.863281 79.300781 198.023438 C 79.683594 198.457031 80.066406 198.863281 80.457031 199.242188 C 80.917969 199.6875 81.359375 200.023438 81.785156 200.257812 C 82.839844 200.839844 84.046875 201.148438 85.402344 201.191406 C 88.203125 201.273438 90.359375 200.234375 91.878906 198.074219 C 91.917969 198.019531 91.976562 197.988281 92.042969 197.988281 C 92.574219 197.992188 93.050781 197.871094 93.472656 197.617188 C 93.925781 197.34375 94.183594 196.980469 94.246094 196.523438 C 94.320312 195.960938 94.03125 195.515625 93.378906 195.1875 Z M 53.65625 196.320312 C 53.65625 196.304688 53.65625 196.289062 53.660156 196.273438 C 53.65625 196.289062 53.65625 196.304688 53.65625 196.320312 C 53.65625 196.332031 53.652344 196.339844 53.652344 196.351562 C 53.652344 196.34375 53.65625 196.332031 53.65625 196.320312 Z M 53.617188 196.070312 C 53.605469 196.054688 53.589844 196.046875 53.574219 196.046875 C 53.589844 196.046875 53.605469 196.054688 53.617188 196.070312 Z M 53.515625 196.574219 C 53.488281 196.570312 53.46875 196.550781 53.453125 196.511719 C 53.46875 196.550781 53.488281 196.570312 53.515625 196.574219 Z M 44.90625 196.191406 C 44.90625 196.25 44.859375 196.292969 44.804688 196.292969 L 39.625 196.304688 C 39.492188 196.308594 39.371094 196.203125 39.351562 196.066406 C 39.289062 195.667969 39.132812 195.398438 38.882812 195.261719 C 38.867188 195.253906 38.796875 195.242188 38.683594 195.230469 L 38.273438 195.1875 C 38.269531 195.1875 38.265625 195.1875 38.261719 195.183594 C 38.210938 195.171875 38.183594 195.109375 38.199219 195.050781 C 39.097656 191.722656 40.140625 188.4375 41.328125 185.203125 C 42.445312 182.15625 43.523438 179.09375 44.558594 176.015625 C 44.636719 175.785156 44.746094 175.566406 44.882812 175.359375 C 44.941406 175.375 45 175.386719 45.0625 175.398438 C 45.0625 175.402344 45.0625 175.410156 45.0625 175.414062 C 44.886719 182.320312 44.832031 189.246094 44.90625 196.191406 Z M 52.671875 195.011719 C 52.671875 195.011719 52.671875 195.011719 52.671875 195.015625 C 52.683594 195.070312 52.652344 195.125 52.597656 195.140625 C 52.410156 195.1875 52.226562 195.222656 52.039062 195.25 C 51.597656 195.320312 51.367188 195.582031 51.351562 196.046875 C 51.347656 196.191406 51.230469 196.308594 51.085938 196.308594 L 45.351562 196.296875 C 45.347656 196.296875 45.34375 196.296875 45.339844 196.296875 C 45.289062 196.292969 45.25 196.242188 45.253906 196.191406 C 45.265625 196.066406 45.28125 195.941406 45.300781 195.816406 C 45.324219 195.671875 45.335938 195.546875 45.335938 195.433594 C 45.367188 189.542969 45.421875 183.65625 45.503906 177.765625 C 45.515625 176.980469 45.542969 176.199219 45.585938 175.414062 C 45.761719 175.398438 45.933594 175.351562 46.089844 175.289062 C 46.128906 175.335938 46.160156 175.386719 46.179688 175.441406 C 48.648438 181.921875 50.808594 188.445312 52.671875 195.011719 Z M 85.605469 177.132812 C 85.550781 183.496094 85.539062 189.855469 85.570312 196.21875 C 85.570312 196.273438 85.523438 196.320312 85.464844 196.320312 L 79.761719 196.308594 C 79.648438 196.308594 79.554688 196.21875 79.554688 196.105469 C 79.542969 195.765625 79.390625 195.488281 79.09375 195.277344 C 79.0625 195.253906 78.996094 195.234375 78.902344 195.222656 L 78.503906 195.171875 C 78.5 195.171875 78.5 195.171875 78.5 195.171875 C 78.445312 195.160156 78.410156 195.101562 78.421875 195.035156 C 78.574219 194.105469 78.828125 193.09375 79.175781 192 C 81.03125 186.183594 82.960938 180.679688 84.964844 175.488281 C 84.984375 175.429688 85.007812 175.382812 85.03125 175.339844 C 85.183594 175.386719 85.34375 175.414062 85.511719 175.421875 C 85.582031 175.617188 85.613281 176.1875 85.605469 177.132812 Z M 92.1875 196.191406 C 92.191406 196.144531 92.199219 196.101562 92.214844 196.0625 C 92.199219 196.101562 92.191406 196.144531 92.1875 196.191406 C 92.179688 196.292969 92.210938 196.382812 92.257812 196.441406 C 92.207031 196.382812 92.179688 196.292969 92.1875 196.191406 Z M 92.363281 196.5 C 92.367188 196.5 92.371094 196.496094 92.375 196.496094 C 92.371094 196.496094 92.367188 196.5 92.363281 196.5 Z M 92.429688 196.484375 C 92.496094 196.453125 92.546875 196.375 92.566406 196.273438 C 92.546875 196.375 92.496094 196.453125 92.429688 196.484375 Z M 92.402344 195.90625 C 92.453125 195.910156 92.496094 195.941406 92.527344 195.992188 C 92.496094 195.941406 92.453125 195.910156 92.402344 195.90625 Z M 92.722656 195.140625 C 91.96875 195.195312 91.5625 195.527344 91.511719 196.128906 C 91.503906 196.238281 91.410156 196.320312 91.300781 196.320312 L 86.117188 196.320312 C 86.0625 196.320312 86.015625 196.273438 86.015625 196.214844 L 86.082031 175.367188 C 86.175781 175.34375 86.265625 175.3125 86.355469 175.277344 C 86.367188 175.296875 86.378906 175.320312 86.386719 175.351562 C 88.769531 181.828125 90.929688 188.355469 92.863281 194.9375 C 92.867188 194.949219 92.867188 194.960938 92.871094 194.972656 C 92.875 195.058594 92.808594 195.132812 92.722656 195.140625 Z M 92.722656 195.140625 " fill-opacity="1" fill-rule="nonzero"/><g fill="#000000" fill-opacity="1"><g transform="translate(135.234663, 149.848901)"><g><path d="M 29.890625 -39.109375 C 30.898438 -39.109375 31.71875 -38.8125 32.34375 -38.21875 C 32.976562 -37.625 33.296875 -36.84375 33.296875 -35.875 C 33.296875 -34.90625 32.976562 -34.128906 32.34375 -33.546875 C 31.71875 -32.972656 30.898438 -32.6875 29.890625 -32.6875 L 21.125 -32.6875 L 21.125 -3.40625 C 21.125 -2.4375 20.769531 -1.625 20.0625 -0.96875 C 19.351562 -0.320312 18.476562 0 17.4375 0 C 16.394531 0 15.535156 -0.320312 14.859375 -0.96875 C 14.191406 -1.625 13.859375 -2.4375 13.859375 -3.40625 L 13.859375 -32.6875 L 5.078125 -32.6875 C 4.078125 -32.6875 3.257812 -32.984375 2.625 -33.578125 C 1.988281 -34.171875 1.671875 -34.953125 1.671875 -35.921875 C 1.671875 -36.859375 1.992188 -37.625 2.640625 -38.21875 C 3.296875 -38.8125 4.109375 -39.109375 5.078125 -39.109375 Z M 29.890625 -39.109375 "/></g></g></g><g fill="#000000" fill-opacity="1"><g transform="translate(171.323932, 149.848901)"><g><path d="M 19.328125 -30.453125 C 23.015625 -30.453125 25.566406 -29.320312 26.984375 -27.0625 C 28.398438 -24.8125 29.109375 -21.695312 29.109375 -17.71875 L 29.109375 -3.40625 C 29.109375 -2.4375 28.789062 -1.625 28.15625 -0.96875 C 27.53125 -0.320312 26.734375 0 25.765625 0 C 24.796875 0 23.992188 -0.320312 23.359375 -0.96875 C 22.722656 -1.625 22.40625 -2.4375 22.40625 -3.40625 L 22.40625 -17.71875 C 22.40625 -19.757812 22.003906 -21.367188 21.203125 -22.546875 C 20.398438 -23.722656 18.992188 -24.3125 16.984375 -24.3125 C 14.898438 -24.3125 13.269531 -23.6875 12.09375 -22.4375 C 10.925781 -21.1875 10.34375 -19.613281 10.34375 -17.71875 L 10.34375 -3.40625 C 10.34375 -2.4375 10.023438 -1.625 9.390625 -0.96875 C 8.753906 -0.320312 7.953125 0 6.984375 0 C 6.015625 0 5.210938 -0.320312 4.578125 -0.96875 C 3.941406 -1.625 3.625 -2.4375 3.625 -3.40625 L 3.625 -37.9375 C 3.625 -38.90625 3.941406 -39.710938 4.578125 -40.359375 C 5.210938 -41.015625 6.015625 -41.34375 6.984375 -41.34375 C 7.953125 -41.34375 8.753906 -41.015625 9.390625 -40.359375 C 10.023438 -39.710938 10.34375 -38.90625 10.34375 -37.9375 L 10.34375 -25.59375 C 11.34375 -26.9375 12.613281 -28.082031 14.15625 -29.03125 C 15.707031 -29.976562 17.429688 -30.453125 19.328125 -30.453125 Z M 19.328125 -30.453125 "/></g></g></g><g fill="#000000" fill-opacity="1"><g transform="translate(205.178579, 149.848901)"><g><path d="M 30.453125 -15.640625 C 30.410156 -14.742188 30.054688 -14.015625 29.390625 -13.453125 C 28.722656 -12.898438 27.941406 -12.625 27.046875 -12.625 L 8.609375 -12.625 C 9.054688 -10.425781 10.078125 -8.703125 11.671875 -7.453125 C 13.273438 -6.210938 15.082031 -5.59375 17.09375 -5.59375 C 18.625 -5.59375 19.816406 -5.726562 20.671875 -6 C 21.523438 -6.28125 22.203125 -6.578125 22.703125 -6.890625 C 23.210938 -7.210938 23.5625 -7.429688 23.75 -7.546875 C 24.414062 -7.878906 25.046875 -8.046875 25.640625 -8.046875 C 26.421875 -8.046875 27.09375 -7.765625 27.65625 -7.203125 C 28.21875 -6.648438 28.5 -6 28.5 -5.25 C 28.5 -4.25 27.976562 -3.335938 26.9375 -2.515625 C 25.894531 -1.660156 24.492188 -0.929688 22.734375 -0.328125 C 20.984375 0.265625 19.21875 0.5625 17.4375 0.5625 C 14.300781 0.5625 11.566406 -0.0859375 9.234375 -1.390625 C 6.910156 -2.703125 5.113281 -4.5 3.84375 -6.78125 C 2.582031 -9.070312 1.953125 -11.65625 1.953125 -14.53125 C 1.953125 -17.726562 2.625 -20.535156 3.96875 -22.953125 C 5.3125 -25.378906 7.082031 -27.234375 9.28125 -28.515625 C 11.476562 -29.804688 13.820312 -30.453125 16.3125 -30.453125 C 18.769531 -30.453125 21.085938 -29.78125 23.265625 -28.4375 C 25.453125 -27.09375 27.195312 -25.285156 28.5 -23.015625 C 29.800781 -20.742188 30.453125 -18.285156 30.453125 -15.640625 Z M 16.3125 -24.3125 C 11.988281 -24.3125 9.4375 -22.28125 8.65625 -18.21875 L 23.296875 -18.21875 L 23.296875 -18.609375 C 23.148438 -20.171875 22.382812 -21.507812 21 -22.625 C 19.625 -23.75 18.0625 -24.3125 16.3125 -24.3125 Z M 16.3125 -24.3125 "/></g></g></g><g fill="#000000" fill-opacity="1"><g transform="translate(135.234663, 207.773662)"><g><path d="M 25.765625 -6.53125 C 26.734375 -6.53125 27.539062 -6.222656 28.1875 -5.609375 C 28.84375 -4.992188 29.171875 -4.203125 29.171875 -3.234375 C 29.171875 -2.304688 28.84375 -1.535156 28.1875 -0.921875 C 27.539062 -0.304688 26.734375 0 25.765625 0 L 7.59375 0 C 6.625 0 5.8125 -0.320312 5.15625 -0.96875 C 4.507812 -1.625 4.1875 -2.4375 4.1875 -3.40625 L 4.1875 -35.703125 C 4.1875 -36.671875 4.519531 -37.476562 5.1875 -38.125 C 5.863281 -38.78125 6.722656 -39.109375 7.765625 -39.109375 C 8.691406 -39.109375 9.488281 -38.78125 10.15625 -38.125 C 10.832031 -37.476562 11.171875 -36.671875 11.171875 -35.703125 L 11.171875 -6.53125 Z M 25.765625 -6.53125 "/></g></g></g><g fill="#000000" fill-opacity="1"><g transform="translate(167.748535, 207.773662)"><g><path d="M 30.453125 -15.640625 C 30.410156 -14.742188 30.054688 -14.015625 29.390625 -13.453125 C 28.722656 -12.898438 27.941406 -12.625 27.046875 -12.625 L 8.609375 -12.625 C 9.054688 -10.425781 10.078125 -8.703125 11.671875 -7.453125 C 13.273438 -6.210938 15.082031 -5.59375 17.09375 -5.59375 C 18.625 -5.59375 19.816406 -5.726562 20.671875 -6 C 21.523438 -6.28125 22.203125 -6.578125 22.703125 -6.890625 C 23.210938 -7.210938 23.5625 -7.429688 23.75 -7.546875 C 24.414062 -7.878906 25.046875 -8.046875 25.640625 -8.046875 C 26.421875 -8.046875 27.09375 -7.765625 27.65625 -7.203125 C 28.21875 -6.648438 28.5 -6 28.5 -5.25 C 28.5 -4.25 27.976562 -3.335938 26.9375 -2.515625 C 25.894531 -1.660156 24.492188 -0.929688 22.734375 -0.328125 C 20.984375 0.265625 19.21875 0.5625 17.4375 0.5625 C 14.300781 0.5625 11.566406 -0.0859375 9.234375 -1.390625 C 6.910156 -2.703125 5.113281 -4.5 3.84375 -6.78125 C 2.582031 -9.070312 1.953125 -11.65625 1.953125 -14.53125 C 1.953125 -17.726562 2.625 -20.535156 3.96875 -22.953125 C 5.3125 -25.378906 7.082031 -27.234375 9.28125 -28.515625 C 11.476562 -29.804688 13.820312 -30.453125 16.3125 -30.453125 C 18.769531 -30.453125 21.085938 -29.78125 23.265625 -28.4375 C 25.453125 -27.09375 27.195312 -25.285156 28.5 -23.015625 C 29.800781 -20.742188 30.453125 -18.285156 30.453125 -15.640625 Z M 16.3125 -24.3125 C 11.988281 -24.3125 9.4375 -22.28125 8.65625 -18.21875 L 23.296875 -18.21875 L 23.296875 -18.609375 C 23.148438 -20.171875 22.382812 -21.507812 21 -22.625 C 19.625 -23.75 18.0625 -24.3125 16.3125 -24.3125 Z M 16.3125 -24.3125 "/></g></g></g><g fill="#000000" fill-opacity="1"><g transform="translate(201.267977, 207.773662)"><g><path d="M 28.390625 -30.453125 C 29.359375 -30.453125 30.15625 -30.132812 30.78125 -29.5 C 31.414062 -28.863281 31.734375 -28.046875 31.734375 -27.046875 L 31.734375 -2.171875 C 31.734375 2.367188 30.328125 5.726562 27.515625 7.90625 C 24.703125 10.082031 21.132812 11.171875 16.8125 11.171875 C 15.695312 11.171875 14.160156 10.984375 12.203125 10.609375 C 10.253906 10.242188 8.867188 9.875 8.046875 9.5 C 6.222656 8.71875 5.3125 7.640625 5.3125 6.265625 C 5.3125 5.992188 5.363281 5.691406 5.46875 5.359375 C 5.695312 4.546875 6.082031 3.921875 6.625 3.484375 C 7.164062 3.054688 7.75 2.84375 8.375 2.84375 C 8.75 2.84375 9.101562 2.898438 9.4375 3.015625 C 9.59375 3.054688 10.515625 3.398438 12.203125 4.046875 C 13.898438 4.703125 15.4375 5.03125 16.8125 5.03125 C 19.570312 5.03125 21.628906 4.476562 22.984375 3.375 C 24.347656 2.28125 25.03125 0.726562 25.03125 -1.28125 L 25.03125 -3.96875 C 24.207031 -2.8125 22.96875 -1.765625 21.3125 -0.828125 C 19.65625 0.0976562 17.878906 0.5625 15.984375 0.5625 C 13.367188 0.5625 10.988281 -0.0976562 8.84375 -1.421875 C 6.707031 -2.742188 5.023438 -4.578125 3.796875 -6.921875 C 2.566406 -9.273438 1.953125 -11.941406 1.953125 -14.921875 C 1.953125 -17.898438 2.554688 -20.570312 3.765625 -22.9375 C 4.984375 -25.300781 6.644531 -27.144531 8.75 -28.46875 C 10.851562 -29.789062 13.1875 -30.453125 15.75 -30.453125 C 17.65625 -30.453125 19.425781 -30.0625 21.0625 -29.28125 C 22.695312 -28.5 24.019531 -27.546875 25.03125 -26.421875 L 25.03125 -27.046875 C 25.03125 -28.015625 25.347656 -28.820312 25.984375 -29.46875 C 26.617188 -30.125 27.421875 -30.453125 28.390625 -30.453125 Z M 16.8125 -5.59375 C 19.3125 -5.59375 21.351562 -6.472656 22.9375 -8.234375 C 24.519531 -10.003906 25.3125 -12.234375 25.3125 -14.921875 C 25.3125 -17.597656 24.519531 -19.832031 22.9375 -21.625 C 21.351562 -23.414062 19.3125 -24.3125 16.8125 -24.3125 C 14.320312 -24.3125 12.289062 -23.414062 10.71875 -21.625 C 9.15625 -19.832031 8.375 -17.597656 8.375 -14.921875 C 8.375 -12.234375 9.15625 -10.003906 10.71875 -8.234375 C 12.289062 -6.472656 14.320312 -5.59375 16.8125 -5.59375 Z M 16.8125 -5.59375 "/></g></g></g><g fill="#000000" fill-opacity="1"><g transform="translate(237.748292, 207.773662)"><g><path d="M 27.828125 -30.453125 C 28.796875 -30.453125 29.59375 -30.132812 30.21875 -29.5 C 30.851562 -28.863281 31.171875 -28.046875 31.171875 -27.046875 L 31.171875 -3.40625 C 31.171875 -2.4375 30.851562 -1.625 30.21875 -0.96875 C 29.59375 -0.320312 28.796875 0 27.828125 0 C 26.859375 0 26.066406 -0.316406 25.453125 -0.953125 C 24.835938 -1.585938 24.507812 -2.390625 24.46875 -3.359375 C 23.539062 -2.273438 22.285156 -1.347656 20.703125 -0.578125 C 19.117188 0.179688 17.453125 0.5625 15.703125 0.5625 C 13.128906 0.5625 10.800781 -0.0976562 8.71875 -1.421875 C 6.632812 -2.742188 4.984375 -4.578125 3.765625 -6.921875 C 2.554688 -9.273438 1.953125 -11.941406 1.953125 -14.921875 C 1.953125 -17.898438 2.546875 -20.570312 3.734375 -22.9375 C 4.929688 -25.300781 6.5625 -27.144531 8.625 -28.46875 C 10.695312 -29.789062 12.984375 -30.453125 15.484375 -30.453125 C 17.265625 -30.453125 18.9375 -30.125 20.5 -29.46875 C 22.070312 -28.820312 23.394531 -27.992188 24.46875 -26.984375 L 24.46875 -27.046875 C 24.46875 -28.015625 24.785156 -28.820312 25.421875 -29.46875 C 26.054688 -30.125 26.859375 -30.453125 27.828125 -30.453125 Z M 16.53125 -5.59375 C 18.957031 -5.59375 20.929688 -6.472656 22.453125 -8.234375 C 23.984375 -10.003906 24.75 -12.234375 24.75 -14.921875 C 24.75 -17.597656 23.984375 -19.832031 22.453125 -21.625 C 20.929688 -23.414062 18.957031 -24.3125 16.53125 -24.3125 C 14.15625 -24.3125 12.203125 -23.414062 10.671875 -21.625 C 9.140625 -19.832031 8.375 -17.597656 8.375 -14.921875 C 8.375 -12.234375 9.128906 -10.003906 10.640625 -8.234375 C 12.148438 -6.472656 14.113281 -5.59375 16.53125 -5.59375 Z M 16.53125 -5.59375 "/></g></g></g><g fill="#000000" fill-opacity="1"><g transform="translate(273.669956, 207.773662)"><g><path d="M 10.890625 -3.40625 C 10.890625 -2.4375 10.5625 -1.625 9.90625 -0.96875 C 9.257812 -0.320312 8.453125 0 7.484375 0 C 6.554688 0 5.773438 -0.320312 5.140625 -0.96875 C 4.503906 -1.625 4.1875 -2.4375 4.1875 -3.40625 L 4.1875 -37.9375 C 4.1875 -38.90625 4.507812 -39.710938 5.15625 -40.359375 C 5.8125 -41.015625 6.625 -41.34375 7.59375 -41.34375 C 8.53125 -41.34375 9.3125 -41.015625 9.9375 -40.359375 C 10.570312 -39.710938 10.890625 -38.90625 10.890625 -37.9375 Z M 10.890625 -3.40625 "/></g></g></g><g fill="#000000" fill-opacity="1"><g transform="translate(135.234663, 265.698423)"><g><path d="M 26.3125 -6.421875 C 27.28125 -6.421875 28.085938 -6.09375 28.734375 -5.4375 C 29.390625 -4.789062 29.71875 -4.039062 29.71875 -3.1875 C 29.71875 -2.25 29.390625 -1.484375 28.734375 -0.890625 C 28.085938 -0.296875 27.28125 0 26.3125 0 L 7.59375 0 C 6.625 0 5.8125 -0.320312 5.15625 -0.96875 C 4.507812 -1.625 4.1875 -2.4375 4.1875 -3.40625 L 4.1875 -35.703125 C 4.1875 -36.671875 4.507812 -37.476562 5.15625 -38.125 C 5.8125 -38.78125 6.625 -39.109375 7.59375 -39.109375 L 26.3125 -39.109375 C 27.28125 -39.109375 28.085938 -38.800781 28.734375 -38.1875 C 29.390625 -37.570312 29.71875 -36.78125 29.71875 -35.8125 C 29.71875 -34.882812 29.398438 -34.128906 28.765625 -33.546875 C 28.140625 -32.972656 27.320312 -32.6875 26.3125 -32.6875 L 11.171875 -32.6875 L 11.171875 -23.1875 L 23.796875 -23.1875 C 24.765625 -23.1875 25.578125 -22.878906 26.234375 -22.265625 C 26.890625 -21.648438 27.21875 -20.859375 27.21875 -19.890625 C 27.21875 -18.960938 26.898438 -18.207031 26.265625 -17.625 C 25.628906 -17.050781 24.804688 -16.765625 23.796875 -16.765625 L 11.171875 -16.765625 L 11.171875 -6.421875 Z M 26.3125 -6.421875 "/></g></g></g><g fill="#000000" fill-opacity="1"><g transform="translate(168.30718, 265.698423)"><g><path d="M 38.109375 -30.453125 C 41.796875 -30.453125 44.347656 -29.320312 45.765625 -27.0625 C 47.179688 -24.8125 47.890625 -21.695312 47.890625 -17.71875 L 47.890625 -3.40625 C 47.890625 -2.4375 47.570312 -1.625 46.9375 -0.96875 C 46.300781 -0.320312 45.5 0 44.53125 0 C 43.5625 0 42.757812 -0.320312 42.125 -0.96875 C 41.5 -1.625 41.1875 -2.4375 41.1875 -3.40625 L 41.1875 -17.71875 C 41.1875 -19.757812 40.785156 -21.367188 39.984375 -22.546875 C 39.179688 -23.722656 37.773438 -24.3125 35.765625 -24.3125 C 33.671875 -24.3125 32.035156 -23.6875 30.859375 -22.4375 C 29.691406 -21.1875 29.109375 -19.613281 29.109375 -17.71875 L 29.109375 -3.40625 C 29.109375 -2.4375 28.789062 -1.625 28.15625 -0.96875 C 27.53125 -0.320312 26.734375 0 25.765625 0 C 24.796875 0 23.992188 -0.320312 23.359375 -0.96875 C 22.722656 -1.625 22.40625 -2.4375 22.40625 -3.40625 L 22.40625 -17.71875 C 22.40625 -19.757812 22.003906 -21.367188 21.203125 -22.546875 C 20.398438 -23.722656 18.992188 -24.3125 16.984375 -24.3125 C 14.898438 -24.3125 13.269531 -23.6875 12.09375 -22.4375 C 10.925781 -21.1875 10.34375 -19.613281 10.34375 -17.71875 L 10.34375 -3.40625 C 10.34375 -2.4375 10.023438 -1.625 9.390625 -0.96875 C 8.753906 -0.320312 7.953125 0 6.984375 0 C 6.015625 0 5.210938 -0.320312 4.578125 -0.96875 C 3.941406 -1.625 3.625 -2.4375 3.625 -3.40625 L 3.625 -26.484375 C 3.625 -27.453125 3.941406 -28.257812 4.578125 -28.90625 C 5.210938 -29.5625 6.015625 -29.890625 6.984375 -29.890625 C 7.953125 -29.890625 8.753906 -29.5625 9.390625 -28.90625 C 10.023438 -28.257812 10.34375 -27.453125 10.34375 -26.484375 L 10.34375 -25.59375 C 11.34375 -26.9375 12.613281 -28.082031 14.15625 -29.03125 C 15.707031 -29.976562 17.429688 -30.453125 19.328125 -30.453125 C 24.023438 -30.453125 27.023438 -28.40625 28.328125 -24.3125 C 29.179688 -25.875 30.472656 -27.285156 32.203125 -28.546875 C 33.941406 -29.816406 35.910156 -30.453125 38.109375 -30.453125 Z M 38.109375 -30.453125 "/></g></g></g><g fill="#000000" fill-opacity="1"><g transform="translate(220.932672, 265.698423)"><g><path d="M 19.109375 -30.453125 C 21.679688 -30.453125 24.007812 -29.789062 26.09375 -28.46875 C 28.175781 -27.144531 29.820312 -25.304688 31.03125 -22.953125 C 32.25 -20.609375 32.859375 -17.945312 32.859375 -14.96875 C 32.859375 -11.988281 32.257812 -9.316406 31.0625 -6.953125 C 29.875 -4.585938 28.242188 -2.742188 26.171875 -1.421875 C 24.109375 -0.0976562 21.828125 0.5625 19.328125 0.5625 C 17.546875 0.5625 15.863281 0.195312 14.28125 -0.53125 C 12.695312 -1.257812 11.382812 -2.144531 10.34375 -3.1875 L 10.34375 7.765625 C 10.34375 8.734375 10.023438 9.539062 9.390625 10.1875 C 8.753906 10.84375 7.953125 11.171875 6.984375 11.171875 C 6.015625 11.171875 5.210938 10.851562 4.578125 10.21875 C 3.941406 9.59375 3.625 8.773438 3.625 7.765625 L 3.625 -26.484375 C 3.625 -27.453125 3.941406 -28.257812 4.578125 -28.90625 C 5.210938 -29.5625 6.015625 -29.890625 6.984375 -29.890625 C 7.953125 -29.890625 8.753906 -29.5625 9.390625 -28.90625 C 10.023438 -28.257812 10.34375 -27.453125 10.34375 -26.484375 L 10.34375 -26.265625 C 11.226562 -27.378906 12.472656 -28.351562 14.078125 -29.1875 C 15.679688 -30.03125 17.359375 -30.453125 19.109375 -30.453125 Z M 18.265625 -5.59375 C 20.648438 -5.59375 22.601562 -6.484375 24.125 -8.265625 C 25.65625 -10.054688 26.421875 -12.289062 26.421875 -14.96875 C 26.421875 -17.65625 25.664062 -19.882812 24.15625 -21.65625 C 22.65625 -23.425781 20.691406 -24.3125 18.265625 -24.3125 C 15.847656 -24.3125 13.875 -23.425781 12.34375 -21.65625 C 10.820312 -19.882812 10.0625 -17.65625 10.0625 -14.96875 C 10.0625 -12.289062 10.820312 -10.054688 12.34375 -8.265625 C 13.875 -6.484375 15.847656 -5.59375 18.265625 -5.59375 Z M 18.265625 -5.59375 "/></g></g></g><g fill="#000000" fill-opacity="1"><g transform="translate(256.854336, 265.698423)"><g><path d="M 9.953125 -3.40625 C 9.953125 -2.4375 9.632812 -1.625 9 -0.96875 C 8.363281 -0.320312 7.5625 0 6.59375 0 C 5.625 0 4.820312 -0.320312 4.1875 -0.96875 C 3.550781 -1.625 3.234375 -2.4375 3.234375 -3.40625 L 3.234375 -26.484375 C 3.234375 -27.453125 3.550781 -28.257812 4.1875 -28.90625 C 4.820312 -29.5625 5.625 -29.890625 6.59375 -29.890625 C 7.5625 -29.890625 8.363281 -29.5625 9 -28.90625 C 9.632812 -28.257812 9.953125 -27.453125 9.953125 -26.484375 Z M 6.53125 -33.53125 C 5.269531 -33.53125 4.378906 -33.734375 3.859375 -34.140625 C 3.335938 -34.546875 3.078125 -35.269531 3.078125 -36.3125 L 3.078125 -37.375 C 3.078125 -38.414062 3.351562 -39.140625 3.90625 -39.546875 C 4.46875 -39.960938 5.363281 -40.171875 6.59375 -40.171875 C 7.894531 -40.171875 8.804688 -39.960938 9.328125 -39.546875 C 9.847656 -39.140625 10.109375 -38.414062 10.109375 -37.375 L 10.109375 -36.3125 C 10.109375 -35.238281 9.835938 -34.503906 9.296875 -34.109375 C 8.753906 -33.722656 7.832031 -33.53125 6.53125 -33.53125 Z M 6.53125 -33.53125 "/></g></g></g><g fill="#000000" fill-opacity="1"><g transform="translate(271.156014, 265.698423)"><g><path d="M 19.171875 -30.453125 C 20.285156 -30.453125 21.222656 -30.132812 21.984375 -29.5 C 22.742188 -28.863281 23.125 -28.117188 23.125 -27.265625 C 23.125 -26.109375 22.828125 -25.238281 22.234375 -24.65625 C 21.640625 -24.082031 20.929688 -23.796875 20.109375 -23.796875 C 19.554688 -23.796875 18.925781 -23.925781 18.21875 -24.1875 C 18.101562 -24.226562 17.847656 -24.300781 17.453125 -24.40625 C 17.066406 -24.519531 16.648438 -24.578125 16.203125 -24.578125 C 15.234375 -24.578125 14.300781 -24.28125 13.40625 -23.6875 C 12.507812 -23.09375 11.773438 -22.191406 11.203125 -20.984375 C 10.628906 -19.773438 10.34375 -18.332031 10.34375 -16.65625 L 10.34375 -3.40625 C 10.34375 -2.4375 10.023438 -1.625 9.390625 -0.96875 C 8.753906 -0.320312 7.953125 0 6.984375 0 C 6.015625 0 5.210938 -0.320312 4.578125 -0.96875 C 3.941406 -1.625 3.625 -2.4375 3.625 -3.40625 L 3.625 -26.484375 C 3.625 -27.453125 3.941406 -28.257812 4.578125 -28.90625 C 5.210938 -29.5625 6.015625 -29.890625 6.984375 -29.890625 C 7.953125 -29.890625 8.753906 -29.5625 9.390625 -28.90625 C 10.023438 -28.257812 10.34375 -27.453125 10.34375 -26.484375 L 10.34375 -25.765625 C 11.195312 -27.285156 12.421875 -28.445312 14.015625 -29.25 C 15.617188 -30.050781 17.335938 -30.453125 19.171875 -30.453125 Z M 19.171875 -30.453125 "/></g></g></g><g fill="#000000" fill-opacity="1"><g transform="translate(296.519089, 265.698423)"><g><path d="M 30.453125 -15.640625 C 30.410156 -14.742188 30.054688 -14.015625 29.390625 -13.453125 C 28.722656 -12.898438 27.941406 -12.625 27.046875 -12.625 L 8.609375 -12.625 C 9.054688 -10.425781 10.078125 -8.703125 11.671875 -7.453125 C 13.273438 -6.210938 15.082031 -5.59375 17.09375 -5.59375 C 18.625 -5.59375 19.816406 -5.726562 20.671875 -6 C 21.523438 -6.28125 22.203125 -6.578125 22.703125 -6.890625 C 23.210938 -7.210938 23.5625 -7.429688 23.75 -7.546875 C 24.414062 -7.878906 25.046875 -8.046875 25.640625 -8.046875 C 26.421875 -8.046875 27.09375 -7.765625 27.65625 -7.203125 C 28.21875 -6.648438 28.5 -6 28.5 -5.25 C 28.5 -4.25 27.976562 -3.335938 26.9375 -2.515625 C 25.894531 -1.660156 24.492188 -0.929688 22.734375 -0.328125 C 20.984375 0.265625 19.21875 0.5625 17.4375 0.5625 C 14.300781 0.5625 11.566406 -0.0859375 9.234375 -1.390625 C 6.910156 -2.703125 5.113281 -4.5 3.84375 -6.78125 C 2.582031 -9.070312 1.953125 -11.65625 1.953125 -14.53125 C 1.953125 -17.726562 2.625 -20.535156 3.96875 -22.953125 C 5.3125 -25.378906 7.082031 -27.234375 9.28125 -28.515625 C 11.476562 -29.804688 13.820312 -30.453125 16.3125 -30.453125 C 18.769531 -30.453125 21.085938 -29.78125 23.265625 -28.4375 C 25.453125 -27.09375 27.195312 -25.285156 28.5 -23.015625 C 29.800781 -20.742188 30.453125 -18.285156 30.453125 -15.640625 Z M 16.3125 -24.3125 C 11.988281 -24.3125 9.4375 -22.28125 8.65625 -18.21875 L 23.296875 -18.21875 L 23.296875 -18.609375 C 23.148438 -20.171875 22.382812 -21.507812 21 -22.625 C 19.625 -23.75 18.0625 -24.3125 16.3125 -24.3125 Z M 16.3125 -24.3125 "/></g></g></g><g fill="#000000" fill-opacity="1"><g transform="translate(330.038539, 265.698423)"><g><path d="M 1.90625 -4.640625 C 1.5625 -5.085938 1.390625 -5.644531 1.390625 -6.3125 C 1.390625 -7.28125 1.875 -8.097656 2.84375 -8.765625 C 3.363281 -9.109375 3.90625 -9.28125 4.46875 -9.28125 C 5.25 -9.28125 5.992188 -8.925781 6.703125 -8.21875 C 7.816406 -7.0625 8.976562 -6.203125 10.1875 -5.640625 C 11.40625 -5.085938 12.867188 -4.8125 14.578125 -4.8125 C 17.484375 -4.914062 18.9375 -6.015625 18.9375 -8.109375 C 18.9375 -9.179688 18.441406 -10 17.453125 -10.5625 C 16.472656 -11.125 14.9375 -11.679688 12.84375 -12.234375 C 10.6875 -12.828125 8.925781 -13.421875 7.5625 -14.015625 C 6.207031 -14.617188 5.035156 -15.523438 4.046875 -16.734375 C 3.054688 -17.941406 2.5625 -19.570312 2.5625 -21.625 C 2.5625 -23.414062 3.070312 -24.96875 4.09375 -26.28125 C 5.125 -27.601562 6.46875 -28.628906 8.125 -29.359375 C 9.78125 -30.085938 11.539062 -30.453125 13.40625 -30.453125 C 15.3125 -30.453125 17.210938 -30.097656 19.109375 -29.390625 C 21.003906 -28.679688 22.492188 -27.640625 23.578125 -26.265625 C 24.066406 -25.671875 24.3125 -25 24.3125 -24.25 C 24.3125 -23.394531 23.957031 -22.6875 23.25 -22.125 C 22.726562 -21.71875 22.128906 -21.515625 21.453125 -21.515625 C 20.640625 -21.515625 19.96875 -21.773438 19.4375 -22.296875 C 18.769531 -23.109375 17.90625 -23.753906 16.84375 -24.234375 C 15.78125 -24.722656 14.582031 -24.96875 13.25 -24.96875 C 10.414062 -24.96875 9 -23.945312 9 -21.90625 C 9 -21.082031 9.257812 -20.421875 9.78125 -19.921875 C 10.300781 -19.421875 10.960938 -19.03125 11.765625 -18.75 C 12.566406 -18.46875 13.691406 -18.125 15.140625 -17.71875 C 17.148438 -17.15625 18.828125 -16.578125 20.171875 -15.984375 C 21.515625 -15.390625 22.648438 -14.476562 23.578125 -13.25 C 24.503906 -12.019531 24.96875 -10.394531 24.96875 -8.375 C 24.96875 -6.550781 24.425781 -4.957031 23.34375 -3.59375 C 22.269531 -2.238281 20.882812 -1.207031 19.1875 -0.5 C 17.5 0.207031 15.757812 0.5625 13.96875 0.5625 C 11.507812 0.5625 9.21875 0.148438 7.09375 -0.671875 C 4.96875 -1.492188 3.238281 -2.816406 1.90625 -4.640625 Z M 1.90625 -4.640625 "/></g></g></g></svg>