<svg xmlns="http://www.w3.org/2000/svg" xmlns:xlink="http://www.w3.org/1999/xlink" width="500" zoomAndPan="magnify" viewBox="0 0 375 374.999991" height="500" preserveAspectRatio="xMidYMid meet" version="1.0"><defs><g/><clipPath id="e0ada59f94"><path d="M 64.035156 144.441406 L 124.785156 144.441406 L 124.785156 199.191406 L 64.035156 199.191406 Z M 64.035156 144.441406 " clip-rule="nonzero"/></clipPath></defs><path stroke-linecap="round" transform="matrix(0, -0.75, 0.75, 0, 62.323887, 229.627514)" fill="none" stroke-linejoin="miter" d="M 42.998146 43.000445 L 113.638776 43.000445 " stroke="#d6860d" stroke-width="86" stroke-opacity="1" stroke-miterlimit="4"/><g clip-path="url(#e0ada59f94)"><path fill="#030304" d="M 121.199219 175.285156 C 121.226562 175.199219 121.292969 175.136719 121.378906 175.121094 C 121.964844 175.023438 122.480469 174.789062 122.914062 174.417969 C 123.261719 174.121094 123.589844 173.679688 123.890625 173.09375 C 124.429688 172.058594 124.726562 170.949219 124.777344 169.757812 C 124.785156 169.675781 124.753906 169.660156 124.6875 169.710938 C 123.566406 170.613281 122.527344 171.621094 121.570312 172.730469 C 121.46875 172.847656 121.425781 172.828125 121.441406 172.675781 L 121.675781 170.007812 C 121.683594 169.929688 121.730469 169.863281 121.804688 169.832031 C 122.550781 169.511719 123.09375 169.019531 123.425781 168.355469 C 123.6875 167.84375 123.855469 167.164062 123.9375 166.316406 C 124.007812 165.597656 123.957031 164.867188 123.789062 164.132812 C 123.761719 164.023438 123.714844 164.011719 123.648438 164.101562 C 122.816406 165.171875 122.058594 166.304688 121.371094 167.496094 C 121.351562 167.53125 121.335938 167.53125 121.328125 167.484375 L 120.910156 165.070312 C 120.886719 164.941406 120.925781 164.8125 121.007812 164.71875 C 121.996094 163.613281 122.421875 162.351562 122.292969 160.929688 C 122.222656 160.160156 122.035156 159.382812 121.730469 158.597656 C 121.707031 158.542969 121.679688 158.542969 121.652344 158.589844 C 120.976562 159.726562 120.414062 160.894531 119.964844 162.097656 C 119.941406 162.160156 119.917969 162.160156 119.890625 162.101562 L 118.929688 160.003906 C 118.867188 159.859375 118.867188 159.714844 118.933594 159.574219 C 119.421875 158.535156 119.605469 157.488281 119.484375 156.4375 C 119.367188 155.394531 119 154.429688 118.390625 153.542969 C 118.328125 153.449219 118.273438 153.457031 118.226562 153.558594 C 118.136719 153.757812 118.0625 154 118.011719 154.273438 C 117.832031 155.210938 117.632812 156.183594 117.417969 157.191406 C 117.402344 157.261719 117.371094 157.269531 117.328125 157.214844 L 115.824219 155.300781 C 115.730469 155.179688 115.703125 155.050781 115.738281 154.910156 C 116.160156 153.289062 115.988281 151.722656 115.230469 150.210938 C 115.019531 149.792969 114.746094 149.417969 114.417969 149.089844 C 114.371094 149.042969 114.339844 149.050781 114.324219 149.113281 C 114.039062 150.308594 113.894531 151.515625 113.882812 152.742188 C 113.882812 152.789062 113.863281 152.796875 113.832031 152.761719 L 112.09375 150.984375 C 111.976562 150.867188 111.933594 150.722656 111.957031 150.554688 C 112.015625 150.140625 111.957031 149.6875 111.78125 149.195312 C 111.207031 147.59375 110.257812 146.3125 108.929688 145.351562 C 108.757812 145.226562 108.679688 145.273438 108.6875 145.484375 C 108.746094 146.703125 108.992188 147.867188 109.425781 148.96875 C 109.457031 149.058594 109.4375 149.074219 109.363281 149.011719 C 108.671875 148.457031 107.96875 147.921875 107.261719 147.40625 C 106.394531 146.769531 105.65625 146.296875 105.042969 145.976562 C 103.6875 145.273438 102.25 144.792969 100.726562 144.535156 C 100.453125 144.488281 100.179688 144.472656 99.90625 144.484375 C 99.847656 144.488281 99.84375 144.507812 99.882812 144.546875 C 100.597656 145.230469 101.347656 145.871094 102.132812 146.460938 C 103.167969 147.246094 103.929688 147.753906 104.40625 147.984375 C 105.21875 148.378906 106.144531 148.613281 107.183594 148.691406 C 107.386719 148.707031 107.5625 148.773438 107.710938 148.894531 L 109.019531 149.953125 C 109.28125 150.164062 109.246094 150.246094 108.914062 150.199219 C 107.476562 149.992188 106.257812 150.347656 105.261719 151.269531 C 105.257812 151.273438 105.253906 151.28125 105.253906 151.285156 C 105.242188 151.308594 105.25 151.335938 105.273438 151.347656 C 107.164062 152.300781 109.144531 152.433594 111.210938 151.746094 C 111.300781 151.714844 111.402344 151.734375 111.46875 151.800781 L 113.140625 153.464844 C 113.28125 153.605469 113.257812 153.648438 113.066406 153.59375 C 112.890625 153.546875 112.726562 153.5 112.5625 153.460938 C 112.390625 153.417969 112.21875 153.394531 112.050781 153.394531 C 111.089844 153.394531 110.101562 153.527344 109.082031 153.785156 C 109.023438 153.796875 109.015625 153.824219 109.066406 153.859375 C 110.871094 155.222656 112.859375 155.878906 115.035156 155.828125 C 115.078125 155.828125 115.121094 155.84375 115.148438 155.878906 C 115.710938 156.507812 116.199219 157.195312 116.617188 157.933594 C 116.636719 157.976562 116.628906 157.988281 116.585938 157.96875 C 115.195312 157.441406 113.757812 157.128906 112.273438 157.027344 C 112.191406 157.023438 112.175781 157.050781 112.222656 157.117188 C 112.535156 157.535156 112.882812 157.933594 113.257812 158.316406 C 114.433594 159.515625 115.992188 160.203125 117.933594 160.378906 C 117.984375 160.382812 118.027344 160.414062 118.054688 160.457031 C 118.476562 161.230469 118.839844 162.011719 119.144531 162.792969 C 119.160156 162.835938 119.148438 162.84375 119.109375 162.820312 C 118.363281 162.355469 117.5625 162.003906 116.714844 161.773438 C 116.203125 161.628906 115.695312 161.492188 115.195312 161.359375 C 115.074219 161.328125 115.042969 161.367188 115.109375 161.476562 C 115.414062 161.996094 115.753906 162.492188 116.125 162.957031 C 116.566406 163.507812 116.992188 163.921875 117.398438 164.199219 C 118.101562 164.679688 118.929688 164.980469 119.875 165.101562 C 119.972656 165.113281 120.046875 165.183594 120.0625 165.273438 L 120.457031 167.617188 C 120.46875 167.699219 120.445312 167.714844 120.378906 167.660156 C 119.394531 166.800781 118.277344 166.179688 117.03125 165.796875 C 117.023438 165.796875 117.019531 165.792969 117.011719 165.796875 C 116.988281 165.800781 116.972656 165.820312 116.976562 165.84375 C 117.230469 167.617188 118.152344 168.882812 119.746094 169.636719 C 120.019531 169.769531 120.328125 169.851562 120.664062 169.886719 C 120.703125 169.886719 120.730469 169.921875 120.726562 169.960938 L 120.570312 172.519531 C 120.5625 172.683594 120.511719 172.699219 120.417969 172.566406 C 119.738281 171.613281 118.882812 170.785156 117.851562 170.074219 C 117.839844 170.070312 117.828125 170.0625 117.816406 170.0625 C 117.78125 170.0625 117.75 170.089844 117.746094 170.125 C 117.707031 170.632812 117.703125 171.160156 117.730469 171.710938 C 117.757812 172.203125 117.867188 172.636719 118.058594 173.015625 C 118.527344 173.933594 119.203125 174.597656 120.09375 175.003906 C 120.183594 175.046875 120.230469 175.148438 120.207031 175.246094 C 119.996094 176.117188 119.730469 176.964844 119.40625 177.785156 C 119.355469 177.914062 119.316406 177.914062 119.285156 177.777344 C 119.105469 176.996094 118.8125 176.226562 118.402344 175.46875 C 118.136719 174.984375 117.867188 174.609375 117.589844 174.347656 C 117.585938 174.34375 117.578125 174.339844 117.570312 174.335938 C 117.546875 174.332031 117.523438 174.34375 117.515625 174.367188 C 117.277344 175.097656 117.140625 175.847656 117.105469 176.617188 C 117.042969 177.894531 117.449219 178.992188 118.316406 179.90625 C 118.367188 179.960938 118.378906 180.035156 118.347656 180.097656 L 117.230469 182.191406 C 117.195312 182.253906 117.171875 182.25 117.164062 182.179688 C 116.964844 180.964844 116.578125 179.847656 115.996094 178.828125 C 115.921875 178.695312 115.855469 178.699219 115.792969 178.839844 C 115.441406 179.671875 115.226562 180.578125 115.144531 181.558594 C 115.066406 182.464844 115.253906 183.347656 115.707031 184.203125 C 115.796875 184.375 115.785156 184.527344 115.671875 184.664062 L 114.070312 186.570312 C 114.035156 186.613281 114.019531 186.605469 114.019531 186.546875 C 114.035156 185.375 113.878906 184.195312 113.554688 183.003906 C 113.554688 182.996094 113.550781 182.988281 113.542969 182.980469 C 113.519531 182.957031 113.484375 182.953125 113.460938 182.976562 C 113.226562 183.1875 113.046875 183.402344 112.917969 183.625 C 112.503906 184.34375 112.183594 185.105469 111.960938 185.90625 C 111.753906 186.652344 111.738281 187.402344 111.917969 188.15625 C 111.929688 188.199219 111.917969 188.242188 111.886719 188.269531 C 111.195312 188.921875 110.480469 189.5 109.738281 190.015625 C 109.664062 190.066406 109.644531 190.050781 109.675781 189.964844 C 109.855469 189.460938 109.957031 188.972656 109.972656 188.5 C 110 187.796875 109.96875 187.09375 109.886719 186.394531 C 109.871094 186.273438 109.816406 186.25 109.726562 186.328125 C 108.457031 187.40625 107.65625 188.769531 107.320312 190.414062 C 107.28125 190.589844 107.261719 190.820312 107.25 191.097656 C 107.246094 191.164062 107.210938 191.222656 107.160156 191.25 L 104.964844 192.472656 C 104.871094 192.527344 104.851562 192.503906 104.90625 192.410156 C 105.578125 191.296875 105.914062 190.089844 105.914062 188.785156 C 105.914062 188.78125 105.914062 188.773438 105.914062 188.769531 C 105.902344 188.738281 105.875 188.722656 105.847656 188.734375 C 105.558594 188.816406 105.289062 188.949219 105.046875 189.132812 C 103.863281 190.03125 102.933594 191.179688 102.253906 192.574219 C 102.222656 192.640625 102.171875 192.6875 102.105469 192.714844 C 99.8125 193.640625 97.472656 194.234375 95.089844 194.5 C 94.601562 194.558594 94.113281 194.550781 93.621094 194.484375 C 91.277344 194.160156 89 193.574219 86.792969 192.726562 C 86.644531 192.667969 86.535156 192.570312 86.460938 192.429688 C 85.925781 191.433594 85.273438 190.53125 84.492188 189.71875 C 84.082031 189.289062 83.597656 188.964844 83.039062 188.738281 C 83.015625 188.730469 82.996094 188.730469 82.972656 188.730469 C 82.898438 188.738281 82.84375 188.804688 82.851562 188.882812 C 82.964844 190.179688 83.320312 191.355469 83.914062 192.414062 C 83.964844 192.503906 83.949219 192.519531 83.867188 192.457031 C 83.246094 191.992188 82.546875 191.5625 81.769531 191.179688 C 81.730469 191.15625 81.703125 191.113281 81.699219 191.070312 C 81.691406 190.734375 81.636719 190.410156 81.542969 190.101562 C 81.203125 189.011719 80.679688 188.023438 79.96875 187.140625 C 79.699219 186.808594 79.394531 186.535156 79.058594 186.3125 C 79.042969 186.304688 79.027344 186.300781 79.011719 186.296875 C 78.957031 186.292969 78.910156 186.335938 78.90625 186.390625 C 78.851562 187.082031 78.847656 187.746094 78.886719 188.390625 C 78.921875 188.921875 79.039062 189.429688 79.242188 189.917969 C 79.300781 190.054688 79.273438 190.078125 79.15625 189.988281 L 77.070312 188.300781 C 77.039062 188.277344 77.027344 188.234375 77.039062 188.191406 C 77.179688 187.6875 77.230469 187.28125 77.191406 186.976562 C 77.007812 185.519531 76.445312 184.207031 75.511719 183.042969 C 75.390625 182.894531 75.308594 182.910156 75.265625 183.101562 C 75.007812 184.226562 74.898438 185.386719 74.929688 186.574219 C 74.929688 186.636719 74.910156 186.644531 74.871094 186.597656 L 73.066406 184.558594 C 73.011719 184.496094 73.003906 184.402344 73.046875 184.324219 C 73.628906 183.296875 73.820312 182.230469 73.625 181.128906 C 73.546875 180.675781 73.429688 180.25 73.277344 179.847656 C 73.121094 179.429688 72.90625 179.039062 72.628906 178.679688 C 72.625 178.675781 72.621094 178.671875 72.617188 178.667969 C 72.59375 178.65625 72.566406 178.667969 72.558594 178.6875 C 72.0625 179.71875 71.726562 180.886719 71.554688 182.195312 C 71.539062 182.3125 71.503906 182.320312 71.449219 182.214844 L 70.320312 180.097656 C 70.300781 180.058594 70.308594 180.015625 70.335938 179.980469 C 70.75 179.453125 71.039062 179.054688 71.207031 178.78125 C 71.460938 178.355469 71.613281 177.839844 71.65625 177.234375 C 71.726562 176.273438 71.597656 175.328125 71.269531 174.398438 C 71.230469 174.289062 71.175781 174.28125 71.109375 174.375 C 70.339844 175.410156 69.78125 176.535156 69.4375 177.753906 C 69.410156 177.851562 69.378906 177.851562 69.34375 177.753906 C 69.03125 176.886719 68.773438 176.023438 68.574219 175.164062 C 68.554688 175.078125 68.59375 174.984375 68.675781 174.945312 C 69.632812 174.457031 70.332031 173.796875 70.769531 172.964844 C 70.945312 172.636719 71.042969 172.285156 71.070312 171.914062 C 71.109375 171.339844 71.125 170.734375 71.109375 170.089844 C 71.105469 170.019531 71.078125 170.003906 71.019531 170.046875 C 70 170.792969 69.101562 171.679688 68.328125 172.714844 C 68.296875 172.753906 68.28125 172.75 68.277344 172.703125 L 68.113281 169.980469 C 68.109375 169.921875 68.148438 169.875 68.203125 169.859375 C 70.339844 169.328125 71.574219 167.988281 71.914062 165.84375 C 71.914062 165.835938 71.914062 165.828125 71.910156 165.824219 C 71.902344 165.800781 71.878906 165.789062 71.855469 165.792969 C 70.636719 166.179688 69.539062 166.757812 68.5625 167.523438 C 68.472656 167.597656 68.433594 167.574219 68.445312 167.460938 C 68.535156 166.691406 68.675781 165.933594 68.867188 165.183594 C 68.886719 165.101562 68.960938 165.042969 69.046875 165.039062 C 69.585938 165.027344 70.097656 164.894531 70.582031 164.636719 C 71.953125 163.910156 73 162.847656 73.71875 161.453125 C 73.75 161.390625 73.730469 161.367188 73.664062 161.378906 C 72.3125 161.640625 71.007812 162.117188 69.746094 162.808594 C 69.640625 162.867188 69.609375 162.839844 69.652344 162.726562 C 69.914062 161.984375 70.25 161.230469 70.65625 160.460938 C 70.679688 160.414062 70.726562 160.382812 70.777344 160.378906 C 72.664062 160.203125 74.175781 159.53125 75.316406 158.371094 C 75.707031 157.972656 76.070312 157.542969 76.410156 157.09375 C 76.445312 157.042969 76.433594 157.019531 76.371094 157.023438 C 75.410156 157.113281 74.457031 157.265625 73.511719 157.488281 C 73.105469 157.582031 72.710938 157.730469 72.339844 157.925781 C 72.183594 158.007812 72.148438 157.96875 72.234375 157.8125 C 72.609375 157.136719 73.066406 156.492188 73.601562 155.875 C 73.632812 155.84375 73.671875 155.824219 73.71875 155.828125 C 75.851562 155.882812 77.75 155.230469 79.414062 153.867188 C 79.519531 153.78125 79.507812 153.722656 79.375 153.695312 C 79.09375 153.640625 78.792969 153.589844 78.476562 153.546875 C 78.464844 153.546875 78.199219 153.503906 77.691406 153.425781 C 76.976562 153.308594 76.265625 153.351562 75.558594 153.542969 C 75.515625 153.554688 75.507812 153.542969 75.539062 153.511719 C 76.125 152.84375 76.773438 152.246094 77.476562 151.710938 C 77.511719 151.6875 77.558594 151.679688 77.597656 151.691406 C 79.484375 152.339844 81.382812 152.222656 83.289062 151.335938 C 83.296875 151.332031 83.304688 151.328125 83.308594 151.320312 C 83.339844 151.292969 83.34375 151.246094 83.316406 151.214844 C 82.480469 150.308594 81.460938 149.941406 80.265625 150.109375 C 80.046875 150.140625 79.832031 150.144531 79.617188 150.125 C 79.570312 150.121094 79.566406 150.101562 79.605469 150.074219 C 80.191406 149.617188 80.792969 149.183594 81.410156 148.777344 C 81.585938 148.660156 81.78125 148.589844 81.992188 148.570312 C 82.316406 148.535156 82.640625 148.511719 82.964844 148.492188 C 83.414062 148.464844 83.945312 148.277344 84.5625 147.929688 C 85.496094 147.402344 86.367188 146.789062 87.179688 146.089844 C 87.757812 145.589844 88.359375 145.070312 88.988281 144.535156 C 89.054688 144.480469 89.046875 144.453125 88.957031 144.449219 C 88.535156 144.449219 88.175781 144.476562 87.882812 144.53125 C 85.609375 144.976562 83.546875 145.894531 81.695312 147.28125 C 80.867188 147.898438 80.046875 148.527344 79.234375 149.164062 C 79.199219 149.195312 79.191406 149.1875 79.210938 149.144531 C 79.699219 147.984375 80 146.722656 80.109375 145.359375 C 80.117188 145.265625 80.082031 145.246094 80.003906 145.296875 C 78.574219 146.253906 77.542969 147.574219 76.917969 149.25 C 76.773438 149.640625 76.738281 150.136719 76.808594 150.734375 C 76.8125 150.78125 76.800781 150.824219 76.769531 150.855469 L 74.910156 152.714844 C 74.855469 152.765625 74.828125 152.753906 74.832031 152.675781 C 74.855469 151.433594 74.738281 150.304688 74.480469 149.292969 C 74.4375 149.125 74.363281 149.109375 74.261719 149.246094 C 73.050781 150.859375 72.644531 152.730469 73.039062 154.863281 C 73.066406 155.007812 73.03125 155.140625 72.933594 155.253906 C 72.425781 155.84375 71.921875 156.519531 71.429688 157.277344 C 71.367188 157.367188 71.328125 157.359375 71.308594 157.25 L 70.675781 153.675781 C 70.640625 153.476562 70.566406 153.457031 70.445312 153.628906 C 69.207031 155.398438 68.996094 157.359375 69.820312 159.511719 C 69.898438 159.714844 69.890625 159.917969 69.800781 160.113281 L 68.863281 162.136719 C 68.824219 162.214844 68.792969 162.214844 68.765625 162.132812 C 68.351562 160.9375 67.789062 159.820312 67.078125 158.78125 C 67.050781 158.746094 67.03125 158.75 67.011719 158.792969 C 66.765625 159.445312 66.617188 160.179688 66.570312 160.996094 C 66.484375 162.4375 66.882812 163.652344 67.769531 164.640625 C 67.894531 164.78125 67.941406 164.949219 67.910156 165.144531 L 67.550781 167.261719 C 67.527344 167.421875 67.46875 167.433594 67.386719 167.296875 C 66.703125 166.171875 65.941406 165.09375 65.101562 164.066406 C 65.070312 164.03125 65.050781 164.035156 65.042969 164.078125 C 64.730469 165.597656 64.910156 167.050781 65.582031 168.4375 C 65.890625 169.070312 66.394531 169.523438 67.097656 169.796875 C 67.148438 169.8125 67.183594 169.863281 67.183594 169.917969 L 67.324219 172.738281 C 67.332031 172.90625 67.285156 172.925781 67.191406 172.789062 C 66.335938 171.59375 65.320312 170.546875 64.140625 169.644531 C 64.070312 169.589844 64.035156 169.609375 64.039062 169.699219 C 64.070312 170.871094 64.332031 171.957031 64.820312 172.960938 C 65.136719 173.617188 65.558594 174.148438 66.078125 174.5625 C 66.269531 174.710938 66.480469 174.828125 66.710938 174.914062 C 66.9375 174.996094 67.171875 175.058594 67.410156 175.101562 C 67.496094 175.117188 67.570312 175.179688 67.59375 175.265625 L 68.347656 177.769531 C 68.382812 177.886719 68.347656 177.90625 68.25 177.839844 C 67.402344 177.234375 66.546875 176.664062 65.6875 176.121094 C 65.28125 175.863281 64.9375 175.679688 64.660156 175.574219 C 64.617188 175.558594 64.601562 175.574219 64.609375 175.621094 C 64.945312 177.433594 65.847656 178.832031 67.3125 179.8125 C 67.644531 180.035156 67.964844 180.195312 68.273438 180.296875 C 68.621094 180.410156 68.976562 180.472656 69.34375 180.480469 C 69.402344 180.484375 69.453125 180.515625 69.484375 180.570312 L 70.667969 182.730469 C 70.738281 182.855469 70.707031 182.886719 70.582031 182.824219 C 69.289062 182.207031 67.921875 181.664062 66.484375 181.191406 C 66.429688 181.171875 66.414062 181.191406 66.4375 181.246094 C 66.820312 182.132812 67.339844 182.894531 67.992188 183.53125 C 69.074219 184.589844 70.425781 185.054688 72.054688 184.925781 C 72.113281 184.921875 72.171875 184.945312 72.207031 184.992188 L 74.144531 187.222656 C 74.171875 187.253906 74.183594 187.292969 74.171875 187.3125 C 74.15625 187.332031 74.128906 187.332031 74.089844 187.316406 C 73.273438 186.976562 72.429688 186.746094 71.558594 186.625 C 70.933594 186.539062 70.308594 186.457031 69.6875 186.375 C 69.640625 186.367188 69.632812 186.382812 69.65625 186.421875 C 70.070312 187.019531 70.597656 187.566406 71.242188 188.058594 C 72.175781 188.773438 73.203125 189.195312 74.320312 189.320312 C 74.988281 189.398438 75.621094 189.3125 76.226562 189.070312 C 76.292969 189.042969 76.367188 189.050781 76.425781 189.089844 C 77.199219 189.609375 77.933594 190.167969 78.636719 190.773438 C 78.816406 190.921875 78.792969 190.96875 78.570312 190.910156 C 78.207031 190.8125 77.839844 190.777344 77.46875 190.8125 C 76.550781 190.886719 75.582031 191.027344 74.566406 191.226562 C 74.503906 191.238281 74.496094 191.265625 74.542969 191.304688 C 75.125 191.789062 75.742188 192.175781 76.394531 192.46875 C 77.113281 192.796875 77.808594 192.964844 78.476562 192.976562 C 79.476562 192.996094 80.40625 192.703125 81.269531 192.097656 C 81.304688 192.074219 81.351562 192.066406 81.390625 192.085938 C 82.179688 192.453125 82.9375 192.863281 83.664062 193.308594 C 83.847656 193.421875 83.832031 193.488281 83.621094 193.507812 C 82.34375 193.628906 81.136719 193.96875 79.992188 194.53125 C 79.890625 194.582031 79.890625 194.632812 79.992188 194.683594 C 81.0625 195.199219 82.191406 195.46875 83.378906 195.488281 C 84.570312 195.503906 85.574219 195.144531 86.394531 194.402344 C 86.480469 194.324219 86.601562 194.296875 86.714844 194.332031 C 88.703125 194.929688 90.621094 195.402344 92.472656 195.746094 C 92.71875 195.796875 92.722656 195.84375 92.476562 195.898438 C 90.519531 196.335938 88.898438 197.367188 87.617188 198.996094 C 87.511719 199.128906 87.542969 199.183594 87.707031 199.160156 C 88.941406 199.007812 90.066406 198.6875 91.085938 198.207031 C 92.191406 197.679688 93.25 197.050781 94.253906 196.316406 C 94.289062 196.289062 94.335938 196.289062 94.371094 196.316406 C 96.070312 197.542969 97.929688 198.433594 99.953125 198.980469 C 100.21875 199.050781 100.511719 199.09375 100.828125 199.105469 C 100.929688 199.109375 100.949219 199.070312 100.890625 198.992188 C 100.121094 197.957031 99.152344 197.128906 97.976562 196.511719 C 97.480469 196.25 96.949219 196.0625 96.394531 195.949219 C 96.078125 195.886719 96.078125 195.828125 96.398438 195.777344 C 98.375 195.453125 100.332031 194.949219 102.265625 194.265625 C 102.304688 194.25 102.347656 194.261719 102.378906 194.289062 C 103.203125 195.113281 104.183594 195.519531 105.3125 195.511719 C 106.613281 195.5 107.808594 195.183594 108.902344 194.566406 C 109.023438 194.5 109.019531 194.4375 108.890625 194.378906 C 107.664062 193.828125 106.398438 193.527344 105.089844 193.476562 C 104.945312 193.46875 104.9375 193.433594 105.070312 193.371094 L 107.628906 192.117188 C 107.691406 192.085938 107.765625 192.089844 107.820312 192.128906 C 108.550781 192.625 109.328125 192.898438 110.152344 192.949219 C 110.851562 192.992188 111.589844 192.847656 112.363281 192.507812 C 113.046875 192.210938 113.699219 191.8125 114.328125 191.308594 C 114.386719 191.257812 114.382812 191.226562 114.308594 191.207031 C 112.917969 190.839844 111.570312 190.714844 110.265625 190.839844 C 110.214844 190.84375 110.210938 190.832031 110.25 190.804688 L 112.53125 189.089844 C 112.566406 189.066406 112.609375 189.058594 112.65625 189.066406 C 114.449219 189.535156 116.09375 189.210938 117.585938 188.089844 C 118.21875 187.613281 118.738281 187.066406 119.144531 186.449219 C 119.167969 186.410156 119.160156 186.390625 119.113281 186.394531 C 118.449219 186.46875 117.789062 186.546875 117.128906 186.640625 C 116.351562 186.746094 115.601562 186.953125 114.875 187.253906 C 114.734375 187.3125 114.710938 187.28125 114.800781 187.15625 C 115.332031 186.445312 115.953125 185.71875 116.664062 184.976562 C 116.714844 184.925781 116.785156 184.898438 116.855469 184.902344 C 118.132812 184.980469 119.246094 184.621094 120.195312 183.820312 C 121.015625 183.132812 121.644531 182.296875 122.09375 181.316406 C 122.136719 181.226562 122.113281 181.199219 122.019531 181.234375 L 118.179688 182.699219 C 118.09375 182.730469 118.074219 182.710938 118.121094 182.632812 L 119.386719 180.496094 C 119.417969 180.445312 119.472656 180.414062 119.539062 180.414062 C 120.003906 180.414062 120.433594 180.3125 120.839844 180.113281 C 122.621094 179.210938 123.722656 177.738281 124.152344 175.695312 C 124.175781 175.585938 124.140625 175.558594 124.039062 175.613281 C 122.859375 176.304688 121.714844 177.035156 120.613281 177.796875 C 120.464844 177.902344 120.417969 177.863281 120.46875 177.6875 Z M 121.199219 175.285156 " fill-opacity="1" fill-rule="nonzero"/></g><path fill="#030304" d="M 95.195312 155.046875 C 95.40625 155.132812 95.589844 155.257812 95.753906 155.421875 C 95.914062 155.585938 96.039062 155.773438 96.125 155.988281 C 96.214844 156.199219 96.257812 156.421875 96.257812 156.652344 C 96.257812 156.882812 96.214844 157.105469 96.125 157.320312 C 96.039062 157.53125 95.914062 157.71875 95.753906 157.882812 C 95.589844 158.046875 95.40625 158.171875 95.195312 158.261719 C 94.984375 158.347656 94.765625 158.394531 94.535156 158.394531 C 94.308594 158.394531 94.089844 158.347656 93.878906 158.261719 C 93.667969 158.171875 93.480469 158.046875 93.320312 157.882812 C 93.15625 157.71875 93.035156 157.53125 92.945312 157.320312 C 92.859375 157.105469 92.816406 156.882812 92.816406 156.652344 C 92.816406 156.421875 92.859375 156.199219 92.945312 155.988281 C 93.035156 155.773438 93.15625 155.585938 93.320312 155.421875 C 93.480469 155.257812 93.667969 155.132812 93.878906 155.046875 C 94.089844 154.957031 94.308594 154.914062 94.535156 154.914062 C 94.765625 154.914062 94.984375 154.957031 95.195312 155.046875 Z M 95.195312 155.046875 " fill-opacity="1" fill-rule="nonzero"/><path fill="#030304" d="M 112.636719 176.8125 C 112.597656 176.789062 112.566406 176.753906 112.558594 176.710938 C 112.257812 175.542969 111.925781 174.394531 111.558594 173.265625 C 110.570312 170.226562 109.558594 167.195312 108.527344 164.171875 C 108.441406 163.921875 108.367188 163.71875 108.308594 163.570312 C 108.625 163.335938 108.832031 162.957031 108.832031 162.53125 C 108.832031 162.074219 108.59375 161.671875 108.234375 161.445312 C 108.296875 161.429688 108.351562 161.414062 108.40625 161.394531 C 109.003906 161.289062 109.457031 160.765625 109.457031 160.132812 C 109.457031 159.675781 109.21875 159.273438 108.863281 159.046875 C 108.691406 158.921875 108.503906 158.859375 108.300781 158.847656 C 108.457031 159.03125 108.558594 159.261719 108.585938 159.511719 C 108.660156 160.277344 108.027344 160.914062 107.273438 160.839844 C 107.214844 160.832031 107.160156 160.824219 107.105469 160.808594 C 107.109375 160.8125 107.109375 160.816406 107.113281 160.820312 C 103.484375 160.183594 99.867188 159.582031 96.257812 159.019531 C 95.09375 158.835938 93.953125 158.828125 92.839844 158.996094 C 89.460938 159.503906 85.863281 160.121094 82.054688 160.84375 C 82.054688 160.839844 82.058594 160.835938 82.058594 160.835938 C 81.96875 160.847656 81.875 160.847656 81.78125 160.839844 C 81.222656 160.78125 80.765625 160.324219 80.710938 159.757812 C 80.675781 159.410156 80.789062 159.085938 80.996094 158.847656 C 80.90625 158.847656 80.816406 158.855469 80.730469 158.875 C 80.691406 158.882812 80.648438 158.890625 80.605469 158.902344 C 80.347656 158.972656 80.140625 159.121094 79.992188 159.34375 C 79.824219 159.5625 79.726562 159.835938 79.726562 160.132812 C 79.726562 160.144531 79.726562 160.15625 79.726562 160.167969 C 79.714844 160.453125 79.792969 160.707031 79.964844 160.921875 C 80.140625 161.144531 80.367188 161.308594 80.644531 161.421875 C 80.265625 161.644531 80.011719 162.054688 80.011719 162.53125 C 80.011719 163.007812 80.265625 163.421875 80.648438 163.644531 C 80.320312 164.726562 79.964844 165.800781 79.582031 166.875 C 78.800781 169.039062 78.046875 171.210938 77.320312 173.394531 C 76.828125 174.859375 76.492188 176 76.308594 176.816406 C 76.300781 176.855469 76.265625 176.882812 76.226562 176.886719 C 75.914062 176.914062 75.734375 177.074219 75.6875 177.375 C 75.605469 177.898438 75.785156 178.257812 76.230469 178.453125 C 76.3125 178.488281 76.429688 178.507812 76.589844 178.515625 C 76.714844 178.519531 76.839844 178.535156 76.960938 178.5625 C 77.003906 178.570312 77.042969 178.59375 77.074219 178.628906 C 77.289062 178.851562 77.496094 179.078125 77.703125 179.308594 C 78.226562 179.890625 78.832031 180.296875 79.53125 180.523438 C 80.152344 180.726562 80.855469 180.808594 81.632812 180.765625 C 83.148438 180.683594 84.371094 179.984375 85.304688 178.667969 C 85.332031 178.632812 85.375 178.609375 85.414062 178.609375 C 85.523438 178.605469 85.632812 178.605469 85.742188 178.609375 C 85.902344 178.613281 86.03125 178.605469 86.128906 178.574219 C 86.761719 178.390625 87 177.960938 86.851562 177.28125 C 86.828125 177.171875 86.789062 177.085938 86.738281 177.027344 C 86.664062 176.945312 86.578125 176.898438 86.476562 176.890625 C 86.398438 176.882812 86.332031 176.824219 86.3125 176.75 C 86 175.523438 85.667969 174.355469 85.3125 173.242188 C 84.296875 170.058594 83.226562 166.898438 82.097656 163.757812 C 82.078125 163.703125 82.050781 163.644531 82.011719 163.582031 C 82.339844 163.347656 82.550781 162.964844 82.550781 162.53125 C 82.550781 162.078125 82.316406 161.675781 81.964844 161.449219 C 82.816406 161.335938 83.980469 161.164062 85.457031 160.933594 C 88.097656 160.519531 90.707031 160.101562 93.28125 159.675781 C 93.285156 159.675781 93.289062 159.675781 93.292969 159.675781 C 93.359375 159.671875 93.414062 159.722656 93.417969 159.789062 C 93.652344 164.945312 93.757812 170.105469 93.734375 175.269531 C 93.730469 176.285156 93.714844 177.207031 93.683594 178.03125 C 93.613281 179.828125 93.515625 181.289062 93.382812 182.417969 C 93.257812 183.53125 93.085938 184.542969 92.871094 185.460938 C 92.695312 186.214844 92.445312 186.957031 92.121094 187.695312 C 91.800781 188.425781 91.449219 189.023438 91.078125 189.480469 C 90.636719 190.023438 90.117188 190.484375 89.515625 190.871094 C 88.890625 191.273438 88.257812 191.660156 87.617188 192.035156 C 87.386719 192.167969 87.402344 192.257812 87.664062 192.304688 C 89.894531 192.691406 92.058594 192.65625 94.167969 192.199219 C 94.367188 192.15625 94.570312 192.152344 94.777344 192.191406 C 96.914062 192.589844 98.992188 192.648438 101.003906 192.367188 C 101.335938 192.324219 101.367188 192.195312 101.101562 191.992188 C 100.878906 191.816406 100.605469 191.644531 100.28125 191.472656 C 99.234375 190.921875 98.378906 190.1875 97.714844 189.261719 C 97.273438 188.648438 96.882812 187.824219 96.539062 186.78125 C 96.144531 185.59375 95.878906 184.414062 95.742188 183.246094 C 95.296875 179.410156 95.105469 175.390625 95.175781 171.191406 C 95.238281 167.378906 95.347656 163.566406 95.5 159.757812 C 95.5 159.753906 95.5 159.75 95.5 159.75 C 95.507812 159.714844 95.539062 159.691406 95.570312 159.695312 L 106.867188 161.453125 C 106.519531 161.683594 106.289062 162.078125 106.289062 162.527344 C 106.289062 162.988281 106.527344 163.390625 106.886719 163.617188 C 106.882812 163.628906 106.875 163.640625 106.871094 163.648438 C 106.132812 165.816406 105.382812 167.976562 104.625 170.136719 C 103.945312 172.074219 103.3125 174.027344 102.730469 175.996094 C 102.664062 176.222656 102.609375 176.472656 102.566406 176.753906 C 102.558594 176.796875 102.527344 176.835938 102.488281 176.851562 C 102.066406 177.011719 101.867188 177.277344 101.890625 177.644531 C 101.910156 177.933594 102.023438 178.171875 102.238281 178.355469 C 102.457031 178.546875 102.738281 178.613281 103.082031 178.550781 C 103.214844 178.523438 103.351562 178.574219 103.441406 178.675781 C 103.691406 178.960938 103.941406 179.226562 104.195312 179.476562 C 104.496094 179.769531 104.785156 179.992188 105.0625 180.148438 C 105.753906 180.527344 106.539062 180.734375 107.425781 180.761719 C 109.253906 180.8125 110.664062 180.132812 111.65625 178.710938 C 111.683594 178.675781 111.722656 178.652344 111.765625 178.652344 C 112.113281 178.65625 112.421875 178.574219 112.695312 178.410156 C 112.996094 178.230469 113.164062 177.992188 113.203125 177.691406 C 113.25 177.320312 113.0625 177.027344 112.636719 176.8125 Z M 86.6875 177.558594 C 86.691406 177.546875 86.691406 177.535156 86.691406 177.527344 C 86.691406 177.535156 86.691406 177.546875 86.6875 177.558594 C 86.6875 177.566406 86.6875 177.570312 86.6875 177.578125 C 86.6875 177.570312 86.6875 177.566406 86.6875 177.558594 Z M 86.664062 177.390625 C 86.65625 177.382812 86.648438 177.378906 86.636719 177.375 C 86.644531 177.375 86.65625 177.382812 86.664062 177.390625 Z M 86.597656 177.722656 C 86.578125 177.722656 86.566406 177.707031 86.558594 177.683594 C 86.566406 177.707031 86.582031 177.722656 86.597656 177.722656 Z M 80.972656 177.472656 C 80.972656 177.507812 80.941406 177.539062 80.90625 177.539062 L 77.523438 177.546875 C 77.4375 177.546875 77.359375 177.480469 77.34375 177.390625 C 77.304688 177.128906 77.203125 176.953125 77.039062 176.863281 C 77.027344 176.855469 76.984375 176.847656 76.90625 176.839844 L 76.640625 176.8125 C 76.636719 176.8125 76.636719 176.8125 76.632812 176.808594 C 76.601562 176.800781 76.582031 176.761719 76.59375 176.722656 C 77.179688 174.53125 77.859375 172.375 78.636719 170.246094 C 79.367188 168.242188 80.070312 166.226562 80.746094 164.203125 C 80.796875 164.050781 80.867188 163.90625 80.957031 163.773438 C 80.996094 163.78125 81.035156 163.789062 81.074219 163.796875 C 81.074219 163.800781 81.074219 163.804688 81.074219 163.808594 C 80.960938 168.351562 80.925781 172.90625 80.972656 177.472656 Z M 86.046875 176.695312 C 86.046875 176.695312 86.046875 176.699219 86.046875 176.699219 C 86.054688 176.734375 86.035156 176.769531 85.996094 176.78125 C 85.875 176.8125 85.753906 176.835938 85.632812 176.855469 C 85.34375 176.898438 85.195312 177.074219 85.183594 177.378906 C 85.179688 177.472656 85.105469 177.550781 85.007812 177.550781 L 81.261719 177.539062 C 81.261719 177.539062 81.261719 177.539062 81.257812 177.539062 C 81.222656 177.539062 81.199219 177.507812 81.199219 177.472656 C 81.207031 177.390625 81.21875 177.308594 81.230469 177.226562 C 81.246094 177.132812 81.253906 177.046875 81.253906 176.972656 C 81.273438 173.101562 81.308594 169.226562 81.363281 165.355469 C 81.371094 164.839844 81.390625 164.324219 81.417969 163.808594 C 81.535156 163.796875 81.644531 163.765625 81.746094 163.726562 C 81.773438 163.753906 81.792969 163.789062 81.804688 163.824219 C 83.417969 168.085938 84.832031 172.378906 86.046875 176.695312 Z M 107.558594 164.9375 C 107.523438 169.121094 107.515625 173.304688 107.535156 177.488281 C 107.535156 177.527344 107.503906 177.558594 107.46875 177.558594 L 103.742188 177.546875 C 103.667969 177.546875 103.609375 177.488281 103.605469 177.414062 C 103.597656 177.191406 103.5 177.011719 103.304688 176.871094 C 103.285156 176.855469 103.242188 176.84375 103.179688 176.835938 L 102.917969 176.800781 C 102.882812 176.792969 102.859375 176.753906 102.867188 176.710938 C 102.96875 176.097656 103.132812 175.433594 103.359375 174.714844 C 104.570312 170.890625 105.832031 167.269531 107.140625 163.855469 C 107.152344 163.820312 107.167969 163.785156 107.183594 163.757812 C 107.285156 163.789062 107.390625 163.808594 107.5 163.8125 C 107.542969 163.941406 107.5625 164.316406 107.558594 164.9375 Z M 111.859375 177.472656 C 111.859375 177.441406 111.867188 177.414062 111.878906 177.386719 C 111.867188 177.414062 111.859375 177.441406 111.859375 177.472656 C 111.855469 177.539062 111.871094 177.597656 111.902344 177.636719 C 111.871094 177.597656 111.855469 177.539062 111.859375 177.472656 Z M 111.972656 177.675781 C 111.976562 177.675781 111.980469 177.671875 111.980469 177.671875 C 111.980469 177.671875 111.976562 177.675781 111.972656 177.675781 Z M 112.015625 177.664062 C 112.058594 177.644531 112.09375 177.59375 112.105469 177.527344 C 112.09375 177.59375 112.058594 177.644531 112.015625 177.664062 Z M 112 177.285156 C 112.03125 177.289062 112.058594 177.308594 112.082031 177.339844 C 112.058594 177.308594 112.03125 177.289062 112 177.285156 Z M 112.207031 176.78125 C 111.714844 176.816406 111.453125 177.035156 111.417969 177.429688 C 111.410156 177.503906 111.351562 177.558594 111.28125 177.558594 L 107.894531 177.558594 C 107.855469 177.558594 107.828125 177.527344 107.828125 177.488281 L 107.871094 163.777344 C 107.929688 163.761719 107.992188 163.742188 108.046875 163.71875 C 108.058594 163.730469 108.0625 163.746094 108.070312 163.765625 C 109.625 168.023438 111.035156 172.320312 112.300781 176.648438 C 112.300781 176.65625 112.304688 176.664062 112.304688 176.671875 C 112.308594 176.726562 112.265625 176.777344 112.207031 176.78125 Z M 112.207031 176.78125 " fill-opacity="1" fill-rule="nonzero"/><g fill="#ffffff" fill-opacity="1"><g transform="translate(140.230997, 146.98573)"><g><path d="M 19.59375 -25.625 C 20.25 -25.625 20.78125 -25.425781 21.1875 -25.03125 C 21.601562 -24.644531 21.8125 -24.132812 21.8125 -23.5 C 21.8125 -22.863281 21.601562 -22.359375 21.1875 -21.984375 C 20.78125 -21.609375 20.25 -21.421875 19.59375 -21.421875 L 13.84375 -21.421875 L 13.84375 -2.234375 C 13.84375 -1.597656 13.609375 -1.066406 13.140625 -0.640625 C 12.679688 -0.210938 12.109375 0 11.421875 0 C 10.734375 0 10.171875 -0.210938 9.734375 -0.640625 C 9.296875 -1.066406 9.078125 -1.597656 9.078125 -2.234375 L 9.078125 -21.421875 L 3.328125 -21.421875 C 2.671875 -21.421875 2.132812 -21.613281 1.71875 -22 C 1.300781 -22.394531 1.09375 -22.910156 1.09375 -23.546875 C 1.09375 -24.148438 1.304688 -24.644531 1.734375 -25.03125 C 2.160156 -25.425781 2.691406 -25.625 3.328125 -25.625 Z M 19.59375 -25.625 "/></g></g></g><g fill="#ffffff" fill-opacity="1"><g transform="translate(163.883877, 146.98573)"><g><path d="M 12.671875 -19.953125 C 15.085938 -19.953125 16.757812 -19.210938 17.6875 -17.734375 C 18.613281 -16.253906 19.078125 -14.210938 19.078125 -11.609375 L 19.078125 -2.234375 C 19.078125 -1.597656 18.867188 -1.066406 18.453125 -0.640625 C 18.035156 -0.210938 17.507812 0 16.875 0 C 16.238281 0 15.710938 -0.210938 15.296875 -0.640625 C 14.890625 -1.066406 14.6875 -1.597656 14.6875 -2.234375 L 14.6875 -11.609375 C 14.6875 -12.953125 14.421875 -14.003906 13.890625 -14.765625 C 13.367188 -15.535156 12.445312 -15.921875 11.125 -15.921875 C 9.757812 -15.921875 8.691406 -15.507812 7.921875 -14.6875 C 7.148438 -13.875 6.765625 -12.847656 6.765625 -11.609375 L 6.765625 -2.234375 C 6.765625 -1.597656 6.554688 -1.066406 6.140625 -0.640625 C 5.734375 -0.210938 5.210938 0 4.578125 0 C 3.941406 0 3.414062 -0.210938 3 -0.640625 C 2.582031 -1.066406 2.375 -1.597656 2.375 -2.234375 L 2.375 -24.859375 C 2.375 -25.492188 2.582031 -26.023438 3 -26.453125 C 3.414062 -26.878906 3.941406 -27.09375 4.578125 -27.09375 C 5.210938 -27.09375 5.734375 -26.878906 6.140625 -26.453125 C 6.554688 -26.023438 6.765625 -25.492188 6.765625 -24.859375 L 6.765625 -16.765625 C 7.429688 -17.640625 8.269531 -18.390625 9.28125 -19.015625 C 10.289062 -19.640625 11.421875 -19.953125 12.671875 -19.953125 Z M 12.671875 -19.953125 "/></g></g></g><g fill="#ffffff" fill-opacity="1"><g transform="translate(186.072186, 146.98573)"><g><path d="M 19.953125 -10.25 C 19.929688 -9.664062 19.695312 -9.191406 19.25 -8.828125 C 18.8125 -8.460938 18.300781 -8.28125 17.71875 -8.28125 L 5.640625 -8.28125 C 5.929688 -6.832031 6.597656 -5.695312 7.640625 -4.875 C 8.691406 -4.0625 9.878906 -3.65625 11.203125 -3.65625 C 12.203125 -3.65625 12.984375 -3.742188 13.546875 -3.921875 C 14.109375 -4.109375 14.550781 -4.304688 14.875 -4.515625 C 15.207031 -4.722656 15.4375 -4.863281 15.5625 -4.9375 C 16 -5.15625 16.410156 -5.265625 16.796875 -5.265625 C 17.316406 -5.265625 17.757812 -5.082031 18.125 -4.71875 C 18.488281 -4.351562 18.671875 -3.925781 18.671875 -3.4375 C 18.671875 -2.78125 18.328125 -2.179688 17.640625 -1.640625 C 16.960938 -1.085938 16.046875 -0.613281 14.890625 -0.21875 C 13.742188 0.164062 12.585938 0.359375 11.421875 0.359375 C 9.367188 0.359375 7.578125 -0.0664062 6.046875 -0.921875 C 4.523438 -1.773438 3.347656 -2.953125 2.515625 -4.453125 C 1.691406 -5.953125 1.28125 -7.640625 1.28125 -9.515625 C 1.28125 -11.617188 1.71875 -13.460938 2.59375 -15.046875 C 3.476562 -16.628906 4.640625 -17.84375 6.078125 -18.6875 C 7.515625 -19.53125 9.050781 -19.953125 10.6875 -19.953125 C 12.300781 -19.953125 13.820312 -19.507812 15.25 -18.625 C 16.675781 -17.75 17.816406 -16.566406 18.671875 -15.078125 C 19.523438 -13.585938 19.953125 -11.976562 19.953125 -10.25 Z M 10.6875 -15.921875 C 7.851562 -15.921875 6.179688 -14.59375 5.671875 -11.9375 L 15.265625 -11.9375 L 15.265625 -12.1875 C 15.171875 -13.21875 14.671875 -14.097656 13.765625 -14.828125 C 12.859375 -15.554688 11.832031 -15.921875 10.6875 -15.921875 Z M 10.6875 -15.921875 "/></g></g></g><g fill="#ffffff" fill-opacity="1"><g transform="translate(140.230997, 184.949574)"><g><path d="M 16.875 -4.28125 C 17.507812 -4.28125 18.039062 -4.078125 18.46875 -3.671875 C 18.894531 -3.273438 19.109375 -2.757812 19.109375 -2.125 C 19.109375 -1.507812 18.894531 -1 18.46875 -0.59375 C 18.039062 -0.195312 17.507812 0 16.875 0 L 4.984375 0 C 4.347656 0 3.816406 -0.210938 3.390625 -0.640625 C 2.960938 -1.066406 2.75 -1.597656 2.75 -2.234375 L 2.75 -23.390625 C 2.75 -24.023438 2.96875 -24.554688 3.40625 -24.984375 C 3.84375 -25.410156 4.40625 -25.625 5.09375 -25.625 C 5.695312 -25.625 6.21875 -25.410156 6.65625 -24.984375 C 7.101562 -24.554688 7.328125 -24.023438 7.328125 -23.390625 L 7.328125 -4.28125 Z M 16.875 -4.28125 "/></g></g></g><g fill="#ffffff" fill-opacity="1"><g transform="translate(161.540564, 184.949574)"><g><path d="M 19.953125 -10.25 C 19.929688 -9.664062 19.695312 -9.191406 19.25 -8.828125 C 18.8125 -8.460938 18.300781 -8.28125 17.71875 -8.28125 L 5.640625 -8.28125 C 5.929688 -6.832031 6.597656 -5.695312 7.640625 -4.875 C 8.691406 -4.0625 9.878906 -3.65625 11.203125 -3.65625 C 12.203125 -3.65625 12.984375 -3.742188 13.546875 -3.921875 C 14.109375 -4.109375 14.550781 -4.304688 14.875 -4.515625 C 15.207031 -4.722656 15.4375 -4.863281 15.5625 -4.9375 C 16 -5.15625 16.410156 -5.265625 16.796875 -5.265625 C 17.316406 -5.265625 17.757812 -5.082031 18.125 -4.71875 C 18.488281 -4.351562 18.671875 -3.925781 18.671875 -3.4375 C 18.671875 -2.78125 18.328125 -2.179688 17.640625 -1.640625 C 16.960938 -1.085938 16.046875 -0.613281 14.890625 -0.21875 C 13.742188 0.164062 12.585938 0.359375 11.421875 0.359375 C 9.367188 0.359375 7.578125 -0.0664062 6.046875 -0.921875 C 4.523438 -1.773438 3.347656 -2.953125 2.515625 -4.453125 C 1.691406 -5.953125 1.28125 -7.640625 1.28125 -9.515625 C 1.28125 -11.617188 1.71875 -13.460938 2.59375 -15.046875 C 3.476562 -16.628906 4.640625 -17.84375 6.078125 -18.6875 C 7.515625 -19.53125 9.050781 -19.953125 10.6875 -19.953125 C 12.300781 -19.953125 13.820312 -19.507812 15.25 -18.625 C 16.675781 -17.75 17.816406 -16.566406 18.671875 -15.078125 C 19.523438 -13.585938 19.953125 -11.976562 19.953125 -10.25 Z M 10.6875 -15.921875 C 7.851562 -15.921875 6.179688 -14.59375 5.671875 -11.9375 L 15.265625 -11.9375 L 15.265625 -12.1875 C 15.171875 -13.21875 14.671875 -14.097656 13.765625 -14.828125 C 12.859375 -15.554688 11.832031 -15.921875 10.6875 -15.921875 Z M 10.6875 -15.921875 "/></g></g></g><g fill="#ffffff" fill-opacity="1"><g transform="translate(183.509181, 184.949574)"><g><path d="M 18.59375 -19.953125 C 19.226562 -19.953125 19.753906 -19.742188 20.171875 -19.328125 C 20.585938 -18.910156 20.796875 -18.375 20.796875 -17.71875 L 20.796875 -1.421875 C 20.796875 1.546875 19.875 3.742188 18.03125 5.171875 C 16.1875 6.609375 13.847656 7.328125 11.015625 7.328125 C 10.285156 7.328125 9.28125 7.203125 8 6.953125 C 6.71875 6.710938 5.804688 6.46875 5.265625 6.21875 C 4.078125 5.707031 3.484375 5 3.484375 4.09375 C 3.484375 3.925781 3.519531 3.734375 3.59375 3.515625 C 3.738281 2.972656 3.988281 2.5625 4.34375 2.28125 C 4.695312 2 5.078125 1.859375 5.484375 1.859375 C 5.734375 1.859375 5.96875 1.898438 6.1875 1.984375 C 6.28125 2.003906 6.882812 2.226562 8 2.65625 C 9.113281 3.082031 10.117188 3.296875 11.015625 3.296875 C 12.828125 3.296875 14.175781 2.9375 15.0625 2.21875 C 15.957031 1.5 16.40625 0.476562 16.40625 -0.84375 L 16.40625 -2.59375 C 15.863281 -1.84375 15.050781 -1.160156 13.96875 -0.546875 C 12.882812 0.0546875 11.71875 0.359375 10.46875 0.359375 C 8.757812 0.359375 7.203125 -0.0703125 5.796875 -0.9375 C 4.398438 -1.800781 3.296875 -3 2.484375 -4.53125 C 1.679688 -6.070312 1.28125 -7.820312 1.28125 -9.78125 C 1.28125 -11.726562 1.675781 -13.476562 2.46875 -15.03125 C 3.257812 -16.582031 4.34375 -17.789062 5.71875 -18.65625 C 7.101562 -19.519531 8.640625 -19.953125 10.328125 -19.953125 C 11.566406 -19.953125 12.722656 -19.695312 13.796875 -19.1875 C 14.867188 -18.675781 15.738281 -18.050781 16.40625 -17.3125 L 16.40625 -17.71875 C 16.40625 -18.351562 16.609375 -18.882812 17.015625 -19.3125 C 17.429688 -19.738281 17.957031 -19.953125 18.59375 -19.953125 Z M 11.015625 -3.65625 C 12.648438 -3.65625 13.984375 -4.234375 15.015625 -5.390625 C 16.054688 -6.554688 16.578125 -8.019531 16.578125 -9.78125 C 16.578125 -11.53125 16.054688 -12.988281 15.015625 -14.15625 C 13.984375 -15.332031 12.648438 -15.921875 11.015625 -15.921875 C 9.378906 -15.921875 8.046875 -15.332031 7.015625 -14.15625 C 5.992188 -12.988281 5.484375 -11.53125 5.484375 -9.78125 C 5.484375 -8.019531 5.992188 -6.554688 7.015625 -5.390625 C 8.046875 -4.234375 9.378906 -3.65625 11.015625 -3.65625 Z M 11.015625 -3.65625 "/></g></g></g><g fill="#ffffff" fill-opacity="1"><g transform="translate(207.418352, 184.949574)"><g><path d="M 18.234375 -19.953125 C 18.867188 -19.953125 19.390625 -19.742188 19.796875 -19.328125 C 20.210938 -18.910156 20.421875 -18.375 20.421875 -17.71875 L 20.421875 -2.234375 C 20.421875 -1.597656 20.210938 -1.066406 19.796875 -0.640625 C 19.390625 -0.210938 18.867188 0 18.234375 0 C 17.597656 0 17.078125 -0.207031 16.671875 -0.625 C 16.273438 -1.039062 16.0625 -1.566406 16.03125 -2.203125 C 15.425781 -1.492188 14.601562 -0.890625 13.5625 -0.390625 C 12.53125 0.109375 11.4375 0.359375 10.28125 0.359375 C 8.601562 0.359375 7.078125 -0.0703125 5.703125 -0.9375 C 4.335938 -1.800781 3.257812 -3 2.46875 -4.53125 C 1.675781 -6.070312 1.28125 -7.820312 1.28125 -9.78125 C 1.28125 -11.726562 1.671875 -13.476562 2.453125 -15.03125 C 3.234375 -16.582031 4.300781 -17.789062 5.65625 -18.65625 C 7.007812 -19.519531 8.503906 -19.953125 10.140625 -19.953125 C 11.304688 -19.953125 12.398438 -19.738281 13.421875 -19.3125 C 14.453125 -18.882812 15.320312 -18.34375 16.03125 -17.6875 L 16.03125 -17.71875 C 16.03125 -18.351562 16.238281 -18.882812 16.65625 -19.3125 C 17.070312 -19.738281 17.597656 -19.953125 18.234375 -19.953125 Z M 10.84375 -3.65625 C 12.425781 -3.65625 13.71875 -4.234375 14.71875 -5.390625 C 15.71875 -6.554688 16.21875 -8.019531 16.21875 -9.78125 C 16.21875 -11.53125 15.71875 -12.988281 14.71875 -14.15625 C 13.71875 -15.332031 12.425781 -15.921875 10.84375 -15.921875 C 9.28125 -15.921875 7.992188 -15.332031 6.984375 -14.15625 C 5.984375 -12.988281 5.484375 -11.53125 5.484375 -9.78125 C 5.484375 -8.019531 5.976562 -6.554688 6.96875 -5.390625 C 7.957031 -4.234375 9.25 -3.65625 10.84375 -3.65625 Z M 10.84375 -3.65625 "/></g></g></g><g fill="#ffffff" fill-opacity="1"><g transform="translate(230.961383, 184.949574)"><g><path d="M 7.140625 -2.234375 C 7.140625 -1.597656 6.925781 -1.066406 6.5 -0.640625 C 6.070312 -0.210938 5.539062 0 4.90625 0 C 4.289062 0 3.773438 -0.210938 3.359375 -0.640625 C 2.953125 -1.066406 2.75 -1.597656 2.75 -2.234375 L 2.75 -24.859375 C 2.75 -25.492188 2.960938 -26.023438 3.390625 -26.453125 C 3.816406 -26.878906 4.347656 -27.09375 4.984375 -27.09375 C 5.585938 -27.09375 6.097656 -26.878906 6.515625 -26.453125 C 6.929688 -26.023438 7.140625 -25.492188 7.140625 -24.859375 Z M 7.140625 -2.234375 "/></g></g></g><g fill="#ffffff" fill-opacity="1"><g transform="translate(140.230997, 222.913419)"><g><path d="M 17.25 -4.203125 C 17.875 -4.203125 18.398438 -3.988281 18.828125 -3.5625 C 19.253906 -3.132812 19.46875 -2.644531 19.46875 -2.09375 C 19.46875 -1.476562 19.253906 -0.972656 18.828125 -0.578125 C 18.398438 -0.191406 17.875 0 17.25 0 L 4.984375 0 C 4.347656 0 3.816406 -0.210938 3.390625 -0.640625 C 2.960938 -1.066406 2.75 -1.597656 2.75 -2.234375 L 2.75 -23.390625 C 2.75 -24.023438 2.960938 -24.554688 3.390625 -24.984375 C 3.816406 -25.410156 4.347656 -25.625 4.984375 -25.625 L 17.25 -25.625 C 17.875 -25.625 18.398438 -25.421875 18.828125 -25.015625 C 19.253906 -24.617188 19.46875 -24.101562 19.46875 -23.46875 C 19.46875 -22.851562 19.257812 -22.359375 18.84375 -21.984375 C 18.4375 -21.609375 17.90625 -21.421875 17.25 -21.421875 L 7.328125 -21.421875 L 7.328125 -15.1875 L 15.59375 -15.1875 C 16.226562 -15.1875 16.757812 -14.984375 17.1875 -14.578125 C 17.613281 -14.179688 17.828125 -13.664062 17.828125 -13.03125 C 17.828125 -12.425781 17.617188 -11.929688 17.203125 -11.546875 C 16.785156 -11.171875 16.25 -10.984375 15.59375 -10.984375 L 7.328125 -10.984375 L 7.328125 -4.203125 Z M 17.25 -4.203125 "/></g></g></g><g fill="#ffffff" fill-opacity="1"><g transform="translate(161.9067, 222.913419)"><g><path d="M 24.96875 -19.953125 C 27.382812 -19.953125 29.054688 -19.210938 29.984375 -17.734375 C 30.910156 -16.253906 31.375 -14.210938 31.375 -11.609375 L 31.375 -2.234375 C 31.375 -1.597656 31.164062 -1.066406 30.75 -0.640625 C 30.332031 -0.210938 29.804688 0 29.171875 0 C 28.535156 0 28.007812 -0.210938 27.59375 -0.640625 C 27.1875 -1.066406 26.984375 -1.597656 26.984375 -2.234375 L 26.984375 -11.609375 C 26.984375 -12.953125 26.71875 -14.003906 26.1875 -14.765625 C 25.664062 -15.535156 24.75 -15.921875 23.4375 -15.921875 C 22.0625 -15.921875 20.988281 -15.507812 20.21875 -14.6875 C 19.457031 -13.875 19.078125 -12.847656 19.078125 -11.609375 L 19.078125 -2.234375 C 19.078125 -1.597656 18.867188 -1.066406 18.453125 -0.640625 C 18.035156 -0.210938 17.507812 0 16.875 0 C 16.238281 0 15.710938 -0.210938 15.296875 -0.640625 C 14.890625 -1.066406 14.6875 -1.597656 14.6875 -2.234375 L 14.6875 -11.609375 C 14.6875 -12.953125 14.421875 -14.003906 13.890625 -14.765625 C 13.367188 -15.535156 12.445312 -15.921875 11.125 -15.921875 C 9.757812 -15.921875 8.691406 -15.507812 7.921875 -14.6875 C 7.148438 -13.875 6.765625 -12.847656 6.765625 -11.609375 L 6.765625 -2.234375 C 6.765625 -1.597656 6.554688 -1.066406 6.140625 -0.640625 C 5.734375 -0.210938 5.210938 0 4.578125 0 C 3.941406 0 3.414062 -0.210938 3 -0.640625 C 2.582031 -1.066406 2.375 -1.597656 2.375 -2.234375 L 2.375 -17.359375 C 2.375 -17.992188 2.582031 -18.523438 3 -18.953125 C 3.414062 -19.378906 3.941406 -19.59375 4.578125 -19.59375 C 5.210938 -19.59375 5.734375 -19.378906 6.140625 -18.953125 C 6.554688 -18.523438 6.765625 -17.992188 6.765625 -17.359375 L 6.765625 -16.765625 C 7.429688 -17.640625 8.269531 -18.390625 9.28125 -19.015625 C 10.289062 -19.640625 11.421875 -19.953125 12.671875 -19.953125 C 15.742188 -19.953125 17.707031 -18.609375 18.5625 -15.921875 C 19.125 -16.953125 19.972656 -17.878906 21.109375 -18.703125 C 22.242188 -19.535156 23.53125 -19.953125 24.96875 -19.953125 Z M 24.96875 -19.953125 "/></g></g></g><g fill="#ffffff" fill-opacity="1"><g transform="translate(196.397407, 222.913419)"><g><path d="M 12.515625 -19.953125 C 14.203125 -19.953125 15.726562 -19.519531 17.09375 -18.65625 C 18.457031 -17.789062 19.535156 -16.585938 20.328125 -15.046875 C 21.128906 -13.503906 21.53125 -11.757812 21.53125 -9.8125 C 21.53125 -7.851562 21.140625 -6.097656 20.359375 -4.546875 C 19.578125 -3.003906 18.507812 -1.800781 17.15625 -0.9375 C 15.800781 -0.0703125 14.304688 0.359375 12.671875 0.359375 C 11.492188 0.359375 10.382812 0.125 9.34375 -0.34375 C 8.3125 -0.820312 7.453125 -1.40625 6.765625 -2.09375 L 6.765625 5.09375 C 6.765625 5.726562 6.554688 6.257812 6.140625 6.6875 C 5.734375 7.113281 5.210938 7.328125 4.578125 7.328125 C 3.941406 7.328125 3.414062 7.117188 3 6.703125 C 2.582031 6.285156 2.375 5.75 2.375 5.09375 L 2.375 -17.359375 C 2.375 -17.992188 2.582031 -18.523438 3 -18.953125 C 3.414062 -19.378906 3.941406 -19.59375 4.578125 -19.59375 C 5.210938 -19.59375 5.734375 -19.378906 6.140625 -18.953125 C 6.554688 -18.523438 6.765625 -17.992188 6.765625 -17.359375 L 6.765625 -17.203125 C 7.359375 -17.941406 8.175781 -18.582031 9.21875 -19.125 C 10.269531 -19.675781 11.367188 -19.953125 12.515625 -19.953125 Z M 11.96875 -3.65625 C 13.53125 -3.65625 14.8125 -4.238281 15.8125 -5.40625 C 16.8125 -6.582031 17.3125 -8.050781 17.3125 -9.8125 C 17.3125 -11.570312 16.816406 -13.03125 15.828125 -14.1875 C 14.835938 -15.34375 13.550781 -15.921875 11.96875 -15.921875 C 10.382812 -15.921875 9.09375 -15.34375 8.09375 -14.1875 C 7.09375 -13.03125 6.59375 -11.570312 6.59375 -9.8125 C 6.59375 -8.050781 7.09375 -6.582031 8.09375 -5.40625 C 9.09375 -4.238281 10.382812 -3.65625 11.96875 -3.65625 Z M 11.96875 -3.65625 "/></g></g></g><g fill="#ffffff" fill-opacity="1"><g transform="translate(219.940438, 222.913419)"><g><path d="M 6.515625 -2.234375 C 6.515625 -1.597656 6.304688 -1.066406 5.890625 -0.640625 C 5.472656 -0.210938 4.945312 0 4.3125 0 C 3.6875 0 3.164062 -0.210938 2.75 -0.640625 C 2.332031 -1.066406 2.125 -1.597656 2.125 -2.234375 L 2.125 -17.359375 C 2.125 -17.992188 2.332031 -18.523438 2.75 -18.953125 C 3.164062 -19.378906 3.6875 -19.59375 4.3125 -19.59375 C 4.945312 -19.59375 5.472656 -19.378906 5.890625 -18.953125 C 6.304688 -18.523438 6.515625 -17.992188 6.515625 -17.359375 Z M 4.28125 -21.96875 C 3.445312 -21.96875 2.859375 -22.097656 2.515625 -22.359375 C 2.179688 -22.628906 2.015625 -23.109375 2.015625 -23.796875 L 2.015625 -24.484375 C 2.015625 -25.171875 2.195312 -25.648438 2.5625 -25.921875 C 2.925781 -26.191406 3.507812 -26.328125 4.3125 -26.328125 C 5.164062 -26.328125 5.765625 -26.191406 6.109375 -25.921875 C 6.453125 -25.648438 6.625 -25.171875 6.625 -24.484375 L 6.625 -23.796875 C 6.625 -23.085938 6.445312 -22.601562 6.09375 -22.34375 C 5.738281 -22.09375 5.132812 -21.96875 4.28125 -21.96875 Z M 4.28125 -21.96875 "/></g></g></g><g fill="#ffffff" fill-opacity="1"><g transform="translate(229.313747, 222.913419)"><g><path d="M 12.5625 -19.953125 C 13.289062 -19.953125 13.90625 -19.742188 14.40625 -19.328125 C 14.90625 -18.910156 15.15625 -18.421875 15.15625 -17.859375 C 15.15625 -17.109375 14.957031 -16.539062 14.5625 -16.15625 C 14.175781 -15.78125 13.710938 -15.59375 13.171875 -15.59375 C 12.804688 -15.59375 12.394531 -15.679688 11.9375 -15.859375 C 11.863281 -15.878906 11.695312 -15.925781 11.4375 -16 C 11.1875 -16.070312 10.910156 -16.109375 10.609375 -16.109375 C 9.984375 -16.109375 9.375 -15.910156 8.78125 -15.515625 C 8.195312 -15.128906 7.710938 -14.539062 7.328125 -13.75 C 6.953125 -12.957031 6.765625 -12.007812 6.765625 -10.90625 L 6.765625 -2.234375 C 6.765625 -1.597656 6.554688 -1.066406 6.140625 -0.640625 C 5.734375 -0.210938 5.210938 0 4.578125 0 C 3.941406 0 3.414062 -0.210938 3 -0.640625 C 2.582031 -1.066406 2.375 -1.597656 2.375 -2.234375 L 2.375 -17.359375 C 2.375 -17.992188 2.582031 -18.523438 3 -18.953125 C 3.414062 -19.378906 3.941406 -19.59375 4.578125 -19.59375 C 5.210938 -19.59375 5.734375 -19.378906 6.140625 -18.953125 C 6.554688 -18.523438 6.765625 -17.992188 6.765625 -17.359375 L 6.765625 -16.875 C 7.328125 -17.875 8.132812 -18.632812 9.1875 -19.15625 C 10.238281 -19.6875 11.363281 -19.953125 12.5625 -19.953125 Z M 12.5625 -19.953125 "/></g></g></g><g fill="#ffffff" fill-opacity="1"><g transform="translate(245.936687, 222.913419)"><g><path d="M 19.953125 -10.25 C 19.929688 -9.664062 19.695312 -9.191406 19.25 -8.828125 C 18.8125 -8.460938 18.300781 -8.28125 17.71875 -8.28125 L 5.640625 -8.28125 C 5.929688 -6.832031 6.597656 -5.695312 7.640625 -4.875 C 8.691406 -4.0625 9.878906 -3.65625 11.203125 -3.65625 C 12.203125 -3.65625 12.984375 -3.742188 13.546875 -3.921875 C 14.109375 -4.109375 14.550781 -4.304688 14.875 -4.515625 C 15.207031 -4.722656 15.4375 -4.863281 15.5625 -4.9375 C 16 -5.15625 16.410156 -5.265625 16.796875 -5.265625 C 17.316406 -5.265625 17.757812 -5.082031 18.125 -4.71875 C 18.488281 -4.351562 18.671875 -3.925781 18.671875 -3.4375 C 18.671875 -2.78125 18.328125 -2.179688 17.640625 -1.640625 C 16.960938 -1.085938 16.046875 -0.613281 14.890625 -0.21875 C 13.742188 0.164062 12.585938 0.359375 11.421875 0.359375 C 9.367188 0.359375 7.578125 -0.0664062 6.046875 -0.921875 C 4.523438 -1.773438 3.347656 -2.953125 2.515625 -4.453125 C 1.691406 -5.953125 1.28125 -7.640625 1.28125 -9.515625 C 1.28125 -11.617188 1.71875 -13.460938 2.59375 -15.046875 C 3.476562 -16.628906 4.640625 -17.84375 6.078125 -18.6875 C 7.515625 -19.53125 9.050781 -19.953125 10.6875 -19.953125 C 12.300781 -19.953125 13.820312 -19.507812 15.25 -18.625 C 16.675781 -17.75 17.816406 -16.566406 18.671875 -15.078125 C 19.523438 -13.585938 19.953125 -11.976562 19.953125 -10.25 Z M 10.6875 -15.921875 C 7.851562 -15.921875 6.179688 -14.59375 5.671875 -11.9375 L 15.265625 -11.9375 L 15.265625 -12.1875 C 15.171875 -13.21875 14.671875 -14.097656 13.765625 -14.828125 C 12.859375 -15.554688 11.832031 -15.921875 10.6875 -15.921875 Z M 10.6875 -15.921875 "/></g></g></g><g fill="#ffffff" fill-opacity="1"><g transform="translate(267.90531, 222.913419)"><g><path d="M 1.25 -3.03125 C 1.03125 -3.332031 0.921875 -3.703125 0.921875 -4.140625 C 0.921875 -4.773438 1.234375 -5.3125 1.859375 -5.75 C 2.203125 -5.96875 2.554688 -6.078125 2.921875 -6.078125 C 3.441406 -6.078125 3.929688 -5.84375 4.390625 -5.375 C 5.117188 -4.625 5.878906 -4.0625 6.671875 -3.6875 C 7.472656 -3.320312 8.4375 -3.140625 9.5625 -3.140625 C 11.457031 -3.222656 12.40625 -3.945312 12.40625 -5.3125 C 12.40625 -6.019531 12.082031 -6.554688 11.4375 -6.921875 C 10.789062 -7.285156 9.785156 -7.648438 8.421875 -8.015625 C 7.003906 -8.410156 5.847656 -8.800781 4.953125 -9.1875 C 4.066406 -9.582031 3.300781 -10.175781 2.65625 -10.96875 C 2.007812 -11.757812 1.6875 -12.828125 1.6875 -14.171875 C 1.6875 -15.335938 2.019531 -16.351562 2.6875 -17.21875 C 3.363281 -18.09375 4.242188 -18.765625 5.328125 -19.234375 C 6.410156 -19.710938 7.5625 -19.953125 8.78125 -19.953125 C 10.03125 -19.953125 11.273438 -19.71875 12.515625 -19.25 C 13.765625 -18.789062 14.742188 -18.109375 15.453125 -17.203125 C 15.765625 -16.816406 15.921875 -16.378906 15.921875 -15.890625 C 15.921875 -15.328125 15.691406 -14.863281 15.234375 -14.5 C 14.890625 -14.226562 14.5 -14.09375 14.0625 -14.09375 C 13.519531 -14.09375 13.078125 -14.265625 12.734375 -14.609375 C 12.296875 -15.140625 11.726562 -15.5625 11.03125 -15.875 C 10.34375 -16.195312 9.554688 -16.359375 8.671875 -16.359375 C 6.816406 -16.359375 5.890625 -15.6875 5.890625 -14.34375 C 5.890625 -13.8125 6.0625 -13.378906 6.40625 -13.046875 C 6.75 -12.722656 7.179688 -12.46875 7.703125 -12.28125 C 8.234375 -12.101562 8.972656 -11.878906 9.921875 -11.609375 C 11.234375 -11.242188 12.328125 -10.863281 13.203125 -10.46875 C 14.085938 -10.082031 14.832031 -9.484375 15.4375 -8.671875 C 16.050781 -7.867188 16.359375 -6.804688 16.359375 -5.484375 C 16.359375 -4.296875 16.003906 -3.253906 15.296875 -2.359375 C 14.585938 -1.472656 13.675781 -0.796875 12.5625 -0.328125 C 11.457031 0.128906 10.320312 0.359375 9.15625 0.359375 C 7.539062 0.359375 6.035156 0.09375 4.640625 -0.4375 C 3.253906 -0.976562 2.125 -1.84375 1.25 -3.03125 Z M 1.25 -3.03125 "/></g></g></g></svg>